<?xml version="1.0" standalone="no"?>
<!DOCTYPE svg PUBLIC "-//W3C//DTD SVG 1.1//EN" "http://www.w3.org/Graphics/SVG/1.1/DTD/svg11.dtd" >
<svg xmlns="http://www.w3.org/2000/svg" xmlns:xlink="http://www.w3.org/1999/xlink" version="1.1">
<metadata>
Created by FontForge 20170910 at Thu Aug 16 23:08:14 2007
 By jimmywarting
Copyright 1990, 1991, 1992, 1994, 1997, 1998, 2000, 2002, 2004 Adobe Systems Incorporated. All rights reserved. Protected by U.S. Patents D371,799; D497,175; D497,630. Minion is either a registered trademark or a trademark of Adobe Systems Incorporated in the United States and/or other countries.
</metadata>
<defs>
<font id="MinionPro-Bold" horiz-adv-x="400" >
  <font-face 
    font-family="Minion Pro"
    font-weight="700"
    font-stretch="normal"
    units-per-em="1000"
    panose-1="2 4 7 3 6 2 1 2 2 3"
    ascent="727"
    descent="-273"
    x-height="442"
    cap-height="650"
    bbox="-319 -360 1684 1024"
    underline-thickness="50"
    underline-position="-100"
    stemh="41"
    stemv="128"
    unicode-range="U+0020-FB06"
  />
<missing-glyph horiz-adv-x="500" 
d="M500 0h-500v700h500v-700zM420 650h-340l170 -255zM450 95v510l-170 -255zM80 50h340l-170 255zM50 605v-510l170 255z" />
    <glyph glyph-name="T_h" unicode="Th" horiz-adv-x="1105" 
d="M1086 0h-235v32c48 7 51 14 51 68v177c0 77 -34 103 -73 103c-23 0 -50 -8 -72 -29v-251c0 -54 4 -61 46 -68v-32h-239v32c60 7 65 10 65 75v490c-46 7 -98 9 -195 9h-39v-475c0 -84 10 -90 89 -97v-34h-309v34c75 7 86 13 86 97v475h-38c-88 0 -106 -11 -122 -32
c-14 -17 -26 -44 -38 -91h-36c4 72 10 141 12 192h22c15 -22 29 -25 57 -25h413c76 0 98 5 98 20v13c39 7 98 17 128 28v-321c35 35 83 64 133 64c87 0 139 -56 139 -166v-182c0 -63 5 -67 57 -74v-32z" />
    <glyph glyph-name="f_b" unicode="fb" horiz-adv-x="853" 
d="M509 417l36 17c26 12 50 20 71 20c118 0 207 -99 207 -211c0 -146 -116 -255 -264 -255c-54 0 -109 10 -178 36v574c-26 32 -72 55 -104 55c-23 0 -38 -14 -45 -38c-9 -25 -11 -61 -11 -138v-35h94c4 -11 0 -41 -13 -49h-81v-281c0 -64 4 -72 72 -79v-33h-262v33
c51 6 62 11 62 79v281h-67l-4 12l29 37h42v22c0 25 4 47 13 70c8 23 30 72 88 116c39 30 79 47 123 53c42 -2 68 -12 89 -25c27 5 69 15 97 25l6 -7v-279zM509 381v-272c0 -14 1 -27 5 -35c6 -17 31 -47 63 -48c51 -1 108 58 108 189c0 126 -67 174 -131 174
c-18 0 -33 -3 -45 -8z" />
    <glyph glyph-name="f_f" unicode="ff" horiz-adv-x="615" 
d="M92 442v17c0 30 8 57 22 85c16 32 38 60 77 88c43 32 92 50 134 54c71 -2 108 -26 131 -50c45 42 88 63 135 69c43 0 73 -16 90 -35c13 -15 13 -29 7 -43c-5 -12 -18 -26 -31 -36c-13 -9 -26 -9 -36 2c-22 20 -55 55 -84 55c-20 0 -29 -13 -33 -31c-4 -20 -5 -53 0 -138
l2 -37h116c5 -11 2 -41 -12 -49h-104v-288c0 -61 11 -65 76 -73v-32h-252v32c41 6 48 13 48 73v288h-158v-288c0 -58 8 -66 53 -73v-32h-245v32c55 7 64 14 64 73v288h-68l-5 12l30 37h43zM378 442v19c0 24 3 41 7 58c5 19 9 28 16 42c-17 32 -60 79 -113 79
c-31 0 -49 -24 -57 -54c-10 -35 -11 -66 -11 -113v-31h158z" />
    <glyph glyph-name="f_f_b" unicode="ffb" horiz-adv-x="1140" 
d="M796 696v-280c12 6 24 12 37 17c26 12 49 21 70 21c118 0 207 -99 207 -211c0 -146 -116 -255 -264 -255c-55 0 -109 10 -178 36v570c-25 34 -63 62 -99 62c-24 0 -40 -18 -49 -42c-10 -25 -12 -69 -12 -137v-35h94c6 -10 2 -39 -13 -48h-81v-289c0 -63 9 -66 67 -72v-33
h-244v33c42 6 49 10 49 73v288h-160v-290c0 -60 8 -65 52 -71v-33h-242v33c57 6 63 11 63 71v290h-67l-5 12l30 36h42v17c0 23 7 48 20 76c17 35 42 66 85 95c37 27 89 48 141 52c64 -2 103 -24 123 -45c42 38 94 62 145 66c42 -1 68 -12 88 -25c28 6 66 15 95 25zM380 442
v20c0 32 10 75 28 106c-17 27 -54 67 -108 67c-34 0 -59 -27 -69 -61c-10 -33 -11 -68 -11 -101v-31h160zM796 379v-270c0 -14 1 -26 5 -35c6 -16 30 -45 63 -46c53 -1 108 63 108 187c0 125 -67 173 -131 173c-18 0 -33 -3 -45 -9z" />
    <glyph glyph-name="f_f_h" unicode="ffh" horiz-adv-x="1147" 
d="M1128 0h-235v33c48 6 51 11 51 64v181c0 77 -33 103 -72 103c-24 0 -53 -9 -75 -31v-253c0 -53 4 -58 46 -64v-33h-224v33c45 6 50 9 50 68v495c-24 34 -62 60 -97 60c-26 0 -42 -18 -52 -48c-9 -27 -11 -61 -11 -131v-35h93c6 -10 3 -40 -12 -48h-81v-295
c0 -55 8 -60 64 -66v-33h-241v33c42 6 49 10 49 67v294h-160v-293c0 -58 8 -62 52 -68v-33h-240v33c53 6 60 11 60 68v293h-64l-5 12l29 36h40v17c0 26 12 58 21 78c17 31 46 66 85 93c37 27 88 49 143 52c64 -1 100 -23 123 -44c41 37 91 61 142 64c41 -1 67 -10 87 -22
c31 5 72 14 97 23l6 -6v-307c35 34 85 64 135 64c87 0 139 -58 139 -168v-188c0 -54 4 -59 57 -65v-33zM381 442v22c0 34 9 77 28 106c-17 27 -52 64 -110 64c-38 0 -59 -31 -68 -66c-8 -32 -10 -62 -10 -95v-31h160z" />
    <glyph glyph-name="f_f_i" unicode="ffi" horiz-adv-x="867" 
d="M851 0h-236v32c40 6 47 15 47 68v223c0 62 -3 71 -52 71h-105v-289c0 -62 10 -66 53 -73v-32h-230v32c41 6 49 12 49 73v289h-157v-291c0 -58 7 -64 52 -71v-32h-241v32c52 7 61 13 61 72v290h-65l-6 12l31 36h40v17c0 24 5 51 18 78c19 39 42 68 86 99
c43 30 86 49 135 53c68 -2 113 -26 134 -53c50 41 107 67 163 71c59 -1 98 -25 120 -48c18 -19 20 -38 12 -54c-6 -14 -17 -26 -31 -35c-18 -12 -33 -13 -44 -2c-16 17 -55 87 -117 87c-29 0 -47 -26 -55 -61c-8 -33 -8 -74 -8 -115v-37h100c45 0 129 1 185 12v-354
c0 -53 5 -60 61 -68v-32zM377 442v20c0 23 2 40 9 62c6 18 11 31 19 42c-13 25 -57 76 -116 76c-31 0 -51 -25 -60 -58c-9 -34 -9 -66 -9 -111v-31h157z" />
    <glyph glyph-name="f_f_j" unicode="ffj" horiz-adv-x="859" 
d="M506 442h102c45 0 127 1 183 12v-327c0 -76 -9 -115 -28 -161c-40 -95 -116 -179 -140 -196c-15 -11 -24 -15 -36 -15c-14 0 -40 23 -40 56c0 16 9 26 23 27c47 2 71 8 77 20s10 36 12 71c3 59 4 122 4 186v208c0 62 0 70 -49 70h-108v-288c0 -61 7 -64 65 -73v-32h-242
v32c41 6 49 10 49 73v288h-158v-290c0 -59 7 -64 53 -71v-32h-244v32c55 7 63 12 63 72v289h-67l-6 12l31 37h42v17c0 24 6 49 19 76c19 40 42 68 86 100c45 31 91 48 137 52c68 -2 111 -28 132 -54c50 41 105 69 161 72c59 -1 94 -23 116 -45c19 -19 20 -38 13 -54
c-6 -15 -18 -27 -32 -36c-17 -12 -33 -13 -43 -2c-17 17 -51 84 -113 84c-29 0 -45 -25 -53 -60c-8 -33 -9 -72 -9 -113v-37zM378 442v20c0 23 3 38 10 60c6 18 11 31 18 43c-12 24 -56 75 -116 75c-31 0 -51 -24 -60 -58c-9 -33 -10 -64 -10 -109v-31h158z" />
    <glyph glyph-name="f_f_k" unicode="ffk" horiz-adv-x="1112" 
d="M1134 0l-175 -2c-45 55 -93 129 -137 198c-8 12 -13 17 -18 17c-3 1 -7 2 -10 2v-112c0 -59 7 -64 66 -70v-33h-244v33c48 6 53 11 53 70v492c-26 35 -65 59 -98 59c-24 0 -42 -17 -52 -47c-9 -27 -11 -60 -11 -130v-35h96c3 -11 -1 -43 -14 -49h-82v-295
c0 -55 9 -59 59 -65v-33h-239v33c45 6 52 11 52 65v295h-159v-291c0 -56 6 -63 52 -69v-33h-243v33c57 6 63 12 63 68v292h-67l-6 12l31 37h42v14c0 24 8 56 24 85c16 30 41 60 80 87c38 29 93 51 146 54c65 -1 102 -23 121 -44c41 36 94 60 143 65c39 -1 69 -11 85 -24
c30 6 71 15 97 24l5 -5v-454c23 5 47 21 61 37c18 21 48 64 59 84c13 22 13 37 -30 43v31l216 9v-31c-62 -10 -92 -25 -122 -52c-28 -25 -46 -46 -74 -82c30 -49 114 -160 146 -195c30 -33 47 -47 84 -55v-33zM380 442v22c0 34 9 75 28 105c-18 26 -56 66 -109 66
c-37 0 -59 -30 -69 -67c-7 -26 -9 -62 -9 -95v-31h159z" />
    <glyph glyph-name="f_f_l" unicode="ffl" horiz-adv-x="867" 
d="M853 0h-234v32c36 5 43 10 43 68v508c-14 27 -43 52 -82 52c-22 0 -41 -13 -54 -32c-13 -20 -21 -57 -21 -117v-69h105c4 -11 0 -41 -14 -48h-91v-289c0 -63 9 -66 57 -73v-32h-234v32c41 6 49 11 49 73v289h-157v-290c0 -60 7 -65 52 -72v-32h-239v32c51 8 59 12 59 73
v289h-64l-5 12l30 36h39v19c0 26 7 53 21 81c17 32 43 63 83 91c40 29 92 52 143 54c61 -1 104 -22 128 -45c49 39 100 60 149 62c46 1 78 -9 108 -26c18 6 36 14 55 22l11 -5v-595c0 -57 8 -60 63 -68v-32zM377 442v19c0 30 6 46 11 66c4 17 12 32 19 46
c-18 32 -56 67 -111 67c-36 0 -58 -31 -67 -66c-8 -30 -9 -59 -9 -105v-27h157z" />
    <glyph glyph-name="f_f_t" unicode="fft" horiz-adv-x="924" 
d="M916 37l-84 -38c-17 -8 -33 -11 -40 -11c-77 0 -123 36 -123 126v281h-160v-297c0 -57 9 -59 67 -65v-33h-244v33c44 6 49 10 49 66v296h-160v-297c0 -54 8 -59 53 -65v-33h-245v33c59 6 64 10 64 65v297h-68l-6 12l31 35h43v17c0 23 7 51 21 78c17 33 43 63 82 91
c35 26 89 51 147 54c57 -1 98 -23 121 -44c41 36 87 62 139 65c45 -2 76 -15 95 -35c14 -14 15 -28 8 -42c-4 -11 -15 -26 -31 -37c-13 -9 -24 -9 -33 0c-24 25 -69 59 -97 59c-18 0 -28 -13 -33 -31c-6 -20 -7 -55 -4 -140l1 -35h160v59l114 82l14 -7v-134h100
c11 -11 9 -39 -8 -47h-92v-245c0 -77 34 -92 54 -92c16 0 36 4 54 12zM381 442v22c0 35 10 75 26 104c-16 25 -58 68 -112 68c-32 0 -53 -27 -64 -57c-11 -33 -11 -66 -11 -106v-31h161z" />
    <glyph glyph-name="f_h" unicode="fh" horiz-adv-x="859" 
d="M840 0h-235v33c48 6 51 13 51 67v177c0 76 -34 102 -73 102c-24 0 -52 -8 -74 -30v-249c0 -54 4 -61 46 -67v-33h-230v33c51 6 56 10 56 70v493c-23 32 -67 56 -104 56c-22 0 -37 -13 -44 -36c-9 -24 -12 -62 -12 -141v-33h93c7 -11 3 -42 -12 -49h-81v-288
c0 -60 5 -65 56 -72v-33h-246v33c57 7 62 10 62 72v288h-63l-4 12l29 37h38v19c0 26 5 49 13 72c9 23 30 72 86 115c40 31 82 49 126 55c41 -2 67 -11 87 -23c31 5 73 14 99 23l5 -6v-307c35 35 85 64 135 64c88 0 139 -57 139 -165v-184c0 -61 4 -65 57 -72v-33z" />
    <glyph glyph-name="f_i" unicode="fi" horiz-adv-x="581" 
d="M566 0h-236v33c43 5 48 13 48 72v218c0 61 -3 70 -52 70h-105v-290c0 -56 11 -64 58 -70v-33h-247v33c53 5 61 14 61 70v290h-67l-5 13l30 36h42v22c0 35 9 64 24 95c16 32 42 59 78 86c47 37 102 56 148 58c59 -2 96 -24 116 -47c15 -19 17 -39 9 -55
c-5 -12 -17 -25 -31 -33c-18 -11 -33 -9 -42 3c-16 21 -51 80 -110 80c-28 0 -47 -22 -55 -59c-6 -27 -9 -75 -9 -119v-31h99c45 0 130 1 186 12v-349c0 -59 5 -66 60 -72v-33z" />
    <glyph glyph-name="f_j" unicode="fj" horiz-adv-x="575" 
d="M221 442h102c45 0 127 1 183 12v-328c0 -75 -9 -114 -29 -160c-40 -95 -115 -179 -139 -196c-15 -11 -24 -15 -37 -15c-12 0 -41 24 -41 56c0 16 9 26 23 26c43 0 71 9 78 21c6 12 10 36 12 71c2 59 5 122 5 187v207c0 61 -2 71 -51 71h-106v-294c0 -57 10 -61 62 -68
v-32h-251v32c56 8 61 11 61 68v294h-65l-5 12l31 36h39v22c0 34 9 63 24 94c16 32 42 60 78 88c46 35 104 55 149 57c60 -2 94 -22 114 -45c16 -19 18 -39 10 -55c-6 -12 -18 -25 -31 -33c-19 -11 -33 -9 -42 3c-16 21 -51 78 -110 78c-32 0 -47 -28 -55 -62
c-9 -36 -9 -69 -9 -116v-31z" />
    <glyph glyph-name="f_k" unicode="fk" horiz-adv-x="826" 
d="M846 0l-175 -2c-50 64 -93 129 -136 198c-9 12 -14 17 -19 17c-3 1 -7 2 -10 2v-110c0 -62 7 -66 63 -72v-33h-241v33c48 6 53 10 53 72v493c-23 32 -67 55 -102 55c-24 0 -39 -14 -47 -40s-11 -60 -11 -139v-32h93c6 -11 3 -43 -12 -49h-81v-283c0 -65 5 -70 57 -77v-33
h-249v33c59 7 64 11 64 77v283h-67l-4 11l29 38h42v19c0 25 4 49 13 72c11 32 37 77 90 117c39 29 78 47 121 53c42 -2 69 -11 87 -24c28 6 71 15 96 24l6 -6v-453c24 5 49 21 63 38c19 22 46 59 61 85c13 22 16 35 -32 41v31l215 9v-31c-62 -11 -92 -24 -121 -50
c-28 -27 -46 -48 -75 -84c27 -43 111 -157 145 -195c30 -33 48 -48 84 -55v-33z" />
    <glyph glyph-name="f_l" unicode="fl" horiz-adv-x="581" 
d="M568 0h-234v33c38 5 44 12 44 72v503c-16 25 -48 50 -81 50c-25 0 -42 -11 -55 -34c-14 -23 -22 -58 -22 -115v-67h104c4 -11 0 -42 -14 -49h-90v-290c0 -57 5 -63 55 -70v-33h-246v33c57 8 63 12 63 70v290h-68l-4 14l30 35h42v17c0 38 8 67 23 99c17 33 40 65 81 93
c39 28 82 49 136 52c47 0 74 -9 104 -24c18 5 36 12 61 20l9 -5v-589c0 -60 6 -64 62 -72v-33z" />
    <glyph glyph-name="f_t" unicode="ft" horiz-adv-x="637" 
d="M628 37l-84 -38c-17 -7 -33 -11 -40 -11c-77 0 -123 36 -123 126v280h-160v-293c0 -57 5 -62 62 -68v-33h-254v33c59 7 64 11 64 68v293h-68l-5 12l31 36h42v18c0 25 5 50 14 75c7 22 28 69 85 114c38 32 77 48 122 54c46 -2 75 -14 94 -33c14 -14 15 -28 8 -42
c-4 -11 -17 -27 -33 -38c-13 -9 -23 -9 -33 0c-24 25 -67 54 -94 54c-18 0 -28 -11 -33 -29c-6 -20 -8 -61 -3 -142l1 -31h160v63l114 78l14 -7v-134h100c11 -11 9 -40 -8 -48h-92v-244c0 -78 36 -92 55 -92c16 0 36 5 54 12z" />
    <glyph glyph-name="longs_b" unicode="&#x17f;b" horiz-adv-x="844" 
d="M505 417l35 17c26 13 48 20 68 20c118 0 206 -96 206 -212c0 -146 -114 -254 -261 -254c-55 0 -107 10 -176 36v578c-26 30 -57 54 -92 54c-26 0 -43 -16 -52 -49c-10 -35 -13 -92 -13 -171v-327c0 -66 6 -70 65 -77v-32h-254v32c58 7 61 11 61 77v285h-64l-6 12l30 36
h40v21c0 24 4 45 12 68s31 74 87 117c39 31 80 49 124 55c41 -1 67 -11 89 -25c25 5 65 15 95 25l6 -8v-278zM505 382v-273c0 -14 2 -25 6 -33c5 -16 28 -45 61 -46c50 -1 104 56 104 187c0 120 -63 172 -128 172c-14 0 -26 -3 -43 -7z" />
    <glyph glyph-name="longs_h" unicode="&#x17f;h" horiz-adv-x="854" 
d="M834 0h-234v32c48 7 51 14 51 67v182c0 76 -35 100 -75 100c-24 0 -49 -8 -71 -30v-251c0 -54 4 -62 47 -68v-32h-229v32c49 6 54 9 54 70v500c-26 30 -63 53 -95 53c-26 0 -41 -17 -49 -45c-10 -33 -13 -84 -13 -182v-324c0 -61 6 -65 58 -72v-32h-247v32
c55 8 61 12 61 72v290h-67l-4 11l29 37h42v21c0 24 4 45 12 67c8 24 30 74 87 118c39 31 81 49 124 55c39 -1 65 -11 85 -23c32 5 75 14 101 23l4 -6v-306c35 35 84 63 134 63c87 0 139 -56 139 -166v-186c0 -61 5 -62 56 -70v-32z" />
    <glyph glyph-name="longs_i" unicode="&#x17f;i" horiz-adv-x="581" 
d="M51 442h42v16c0 36 8 64 23 94c17 35 44 65 82 94c44 34 100 55 148 57c57 -2 93 -23 114 -46c17 -18 18 -36 12 -53c-7 -14 -18 -27 -32 -36c-18 -12 -33 -10 -42 0c-16 20 -47 82 -116 82c-30 0 -45 -26 -52 -60c-9 -36 -9 -91 -9 -176v-316c0 -55 9 -59 55 -66v-32
h-245v32c58 7 62 11 62 66v296h-67l-5 12zM567 0h-245v32c53 7 55 9 55 80v200c0 63 -3 68 -56 78v28c56 7 129 20 184 36v-342c0 -71 4 -73 62 -80v-32z" />
    <glyph glyph-name="longs_k" unicode="&#x17f;k" horiz-adv-x="815" 
d="M837 0l-175 -1c-21 26 -89 128 -132 197c-9 12 -14 17 -19 17c-3 1 -5 2 -8 2v-111c0 -62 7 -66 67 -72v-32h-245v32c48 6 53 10 53 68v501c-26 31 -65 55 -95 55c-27 0 -42 -17 -50 -47c-9 -34 -12 -87 -12 -173v-331c0 -62 5 -66 59 -73v-32h-251v32c59 7 64 11 64 73
v289h-67l-4 12l29 36h42v21c0 24 4 46 11 67c9 25 32 75 91 120c38 29 75 47 118 53c39 -1 69 -11 86 -23c30 5 73 14 98 23l6 -6v-453c23 5 41 21 56 36c20 20 44 57 59 84c13 24 18 38 -29 44v31l214 9v-31c-62 -10 -93 -22 -122 -51c-27 -26 -45 -47 -73 -83
c24 -38 99 -142 145 -196c29 -34 47 -46 84 -55v-32z" />
    <glyph glyph-name="longs_l" unicode="&#x17f;l" horiz-adv-x="581" 
d="M567 0h-245v32c48 6 55 12 55 75v494c-22 31 -55 54 -88 54c-31 0 -44 -21 -52 -40c-11 -28 -17 -75 -17 -186v-321c0 -64 5 -69 55 -76v-32h-245v32c59 7 62 12 62 76v286h-66l-5 11l29 37h42v21c0 25 5 47 12 69c8 24 32 74 86 114c40 31 82 51 130 57
c38 -1 67 -11 88 -23c25 5 66 14 91 23l6 -6v-590c0 -64 7 -68 62 -75v-32z" />
    <glyph glyph-name="longs_longs" unicode="&#x17f;&#x17f;" horiz-adv-x="581" 
d="M93 442v9c0 25 9 50 23 78c17 35 43 67 83 97c41 31 93 52 145 54c61 -2 97 -21 119 -42c42 36 82 57 132 65c38 -2 66 -13 83 -30c15 -15 16 -30 9 -44c-4 -10 -16 -24 -30 -33c-13 -11 -24 -10 -34 -1c-23 24 -57 52 -84 52c-18 0 -29 -14 -33 -38
c-6 -36 -1 -111 -1 -205v-294c0 -67 7 -68 61 -78v-32h-244v32c50 7 55 11 55 78v282h-66l-5 12l29 38h42v17c0 38 12 73 31 106c-19 26 -55 69 -110 69c-33 0 -55 -28 -66 -68c-9 -37 -11 -92 -11 -175v-293c0 -55 5 -59 52 -66v-32h-240v32c57 7 60 12 60 66v294h-66
l-4 12l30 38h40z" />
    <glyph glyph-name="longs_t" unicode="&#x17f;t" horiz-adv-x="630" 
d="M51 442h42v19c0 25 6 46 14 71c7 22 29 69 87 115c39 34 80 50 125 56c44 -2 70 -13 90 -33c14 -14 15 -29 9 -43c-5 -11 -16 -26 -33 -37c-12 -9 -23 -8 -33 1c-22 24 -60 55 -88 55c-19 0 -29 -13 -34 -32c-9 -28 -9 -99 -9 -180v-329c0 -60 8 -66 67 -73v-32h-257v32
c57 7 62 14 62 73v289h-68l-5 12zM621 36l-79 -37c-17 -8 -35 -11 -42 -11c-77 0 -123 37 -123 126v280h-63l-6 12l29 36h40v63l114 78l14 -7v-134h98c10 -10 10 -40 -7 -48h-91v-245c0 -78 36 -92 56 -92c16 0 33 5 51 12z" />
    <glyph glyph-name="longs_longs_i" unicode="&#x17f;&#x17f;i" horiz-adv-x="870" 
d="M93 442v9c0 26 7 49 20 76c18 36 45 67 84 98c42 31 99 53 151 55c60 -2 97 -25 120 -48c41 37 110 71 170 71c54 -1 92 -25 114 -48c17 -18 18 -36 11 -53c-6 -14 -18 -26 -31 -35c-18 -13 -33 -11 -42 -1c-17 20 -52 84 -121 84c-29 0 -46 -28 -53 -63
c-9 -35 -8 -87 -8 -169v-312c0 -60 5 -67 56 -74v-32h-239v32c50 7 55 14 55 74v287h-68l-4 12l30 37h42v17c0 36 8 77 26 106c-18 25 -52 66 -109 66c-36 0 -57 -29 -66 -65c-9 -37 -10 -92 -10 -171v-294c0 -55 5 -62 52 -69v-32h-242v32c55 9 62 14 62 69v292h-68l-5 11
l31 38h42zM857 0h-241v32c46 6 51 14 51 75v205c0 64 -3 68 -56 78v28c56 7 132 20 184 36v-343c0 -66 7 -72 62 -79v-32z" />
    <glyph glyph-name="longs_longs_l" unicode="&#x17f;&#x17f;l" horiz-adv-x="870" 
d="M858 0h-246v33c48 6 55 12 55 78v488c-24 31 -59 53 -91 53c-27 0 -44 -12 -54 -38c-10 -27 -14 -71 -14 -189v-317c0 -62 5 -69 55 -75v-33h-243v33c55 7 60 13 60 75v285h-68l-4 11l30 38h42v18c0 33 9 74 29 107c-18 28 -52 65 -110 65c-31 0 -55 -26 -67 -66
c-10 -37 -11 -90 -11 -172v-291c0 -57 5 -64 52 -70v-33h-240v33c55 7 60 13 60 70v290h-68l-4 11l30 38h42v7c0 25 7 51 21 79c17 36 45 68 86 98c42 31 98 51 147 54c64 -1 99 -24 121 -45c40 35 92 65 142 68c37 -1 67 -11 86 -23c25 5 68 14 93 23l6 -6v-586
c0 -66 6 -72 63 -78v-33z" />
    <glyph glyph-name="Tcommaaccent_h" unicode="&#x162;h" horiz-adv-x="1105" 
d="M1086 0h-235v32c48 7 51 14 51 68v177c0 77 -34 103 -73 103c-23 0 -50 -8 -72 -29v-251c0 -54 4 -61 46 -68v-32h-239v32c60 7 65 10 65 75v490c-46 7 -98 9 -195 9h-39v-475c0 -84 11 -90 89 -97v-34h-309v34c75 7 86 13 86 97v475h-38c-88 0 -106 -11 -122 -32
c-14 -17 -26 -44 -38 -91h-36c4 72 10 141 12 192h22c15 -22 29 -25 57 -25h413c76 0 98 5 98 20v13c39 7 98 17 128 28v-321c35 35 83 64 133 64c87 0 139 -56 139 -166v-182c0 -63 5 -67 57 -74v-32zM318 -31c44 0 85 -39 85 -93c0 -66 -54 -103 -122 -119l-10 26
c43 21 64 43 64 69c0 24 -20 41 -51 48c-6 2 -15 11 -15 27c0 28 25 42 49 42z" />
    <glyph glyph-name="Tcaron_h" unicode="&#x164;h" horiz-adv-x="1105" 
d="M1086 0h-235v32c48 7 51 14 51 68v177c0 77 -34 103 -73 103c-23 0 -50 -8 -72 -29v-251c0 -54 4 -61 46 -68v-32h-239v32c60 7 65 10 65 75v490c-46 7 -98 9 -195 9h-39v-475c0 -84 10 -90 89 -97v-34h-309v34c75 7 86 13 86 97v475h-38c-88 0 -106 -11 -122 -32
c-14 -17 -26 -44 -38 -91h-36c4 72 10 141 12 192h22c15 -22 29 -25 57 -25h413c76 0 98 5 98 20v13c39 7 98 17 128 28v-321c35 35 83 64 133 64c87 0 139 -56 139 -166v-182c0 -63 5 -67 57 -74v-32zM461 830l15 -26c-44 -34 -93 -83 -132 -123h-30
c-39 42 -88 88 -133 123l17 26c46 -19 88 -38 131 -59c43 21 85 40 132 59z" />
    <glyph glyph-name=".notdef" horiz-adv-x="500" 
d="M500 0h-500v700h500v-700zM420 650h-340l170 -255zM450 95v510l-170 -255zM80 50h340l-170 255zM50 605v-510l170 255z" />
    <glyph glyph-name="space" unicode=" " horiz-adv-x="217" 
 />
    <glyph glyph-name="exclam" unicode="!" horiz-adv-x="285" 
d="M142 665c62 0 81 -19 81 -43c0 -17 -4 -35 -10 -73c-19 -107 -34 -215 -49 -330c-3 -12 -44 -13 -46 0c-15 115 -31 223 -50 330c-6 38 -9 56 -9 73c0 24 17 43 83 43zM142 -12c-43 0 -75 32 -75 78s32 79 76 79s76 -33 76 -79s-32 -78 -77 -78z" />
    <glyph glyph-name="quotedbl" unicode="&#x22;" horiz-adv-x="380" 
d="M147 708l10 -7c-2 -32 -24 -179 -37 -260l-37 -18c-19 100 -41 236 -47 251zM331 708l9 -7c-2 -32 -24 -184 -37 -260l-37 -18c-19 100 -41 236 -47 251z" />
    <glyph glyph-name="numbersign" unicode="#" horiz-adv-x="500" 
d="M468 469l-11 -82h-95l-30 -121h84l-13 -82h-90l-41 -169h-49l40 169h-96l-40 -169h-50l40 169h-96l11 82h105l28 121h-89l10 82h99l35 145h51l-36 -145h97l34 145h49l-34 -145h87zM312 387h-96l-29 -121h96z" />
    <glyph glyph-name="dollar" unicode="$" horiz-adv-x="500" 
d="M275 381l38 -14c76 -28 149 -80 149 -169c-1 -105 -73 -173 -187 -186v-83h-41v80c-83 1 -145 30 -165 42c-8 24 -19 90 -27 142l32 6c18 -47 61 -139 160 -148v210l-31 13c-90 36 -147 88 -147 165c0 91 64 160 178 175v75h41v-72c32 0 67 -5 93 -12c14 -4 24 -7 36 -9
c7 -36 15 -71 23 -134l-32 -5c-16 50 -43 107 -120 118v-194zM234 397v178c-54 -8 -80 -47 -80 -86c0 -48 35 -74 80 -92zM275 247v-194c46 8 82 38 82 97c0 24 -6 60 -69 90z" />
    <glyph glyph-name="percent" unicode="%" horiz-adv-x="764" 
d="M601 624l-409 -661l-37 26l408 661zM197 635c108 0 155 -99 155 -174c0 -76 -45 -176 -156 -176c-108 0 -155 100 -155 175c0 76 47 175 156 175zM197 599c-46 0 -58 -90 -58 -137c0 -49 12 -141 59 -141c46 0 56 94 56 140c0 50 -8 138 -57 138zM571 338
c107 0 154 -99 154 -175s-45 -175 -155 -175c-109 0 -156 99 -156 174c0 77 47 176 157 176zM569 302c-46 0 -57 -86 -57 -138c0 -48 11 -140 59 -140c47 0 56 94 56 140c0 50 -9 138 -58 138z" />
    <glyph glyph-name="ampersand" unicode="&#x26;" horiz-adv-x="715" 
d="M732 426v-34c-62 -6 -83 -20 -119 -67c-28 -35 -53 -73 -84 -117c64 -62 127 -139 173 -210l-6 -12c-99 0 -159 23 -172 36c-14 13 -43 47 -79 83c-62 -81 -127 -119 -193 -119c-135 0 -209 99 -209 186c0 84 52 120 140 182c-41 39 -67 83 -67 142c0 90 83 168 182 168
c100 0 169 -62 169 -145c0 -35 -16 -61 -42 -83c-21 -18 -49 -38 -80 -59c29 -24 86 -74 155 -140c18 26 34 54 49 86c21 45 14 60 -55 69l1 34h237zM288 625c-38 0 -67 -42 -67 -88c0 -50 27 -84 95 -137c26 22 50 62 50 124c0 51 -27 101 -78 101zM301 77
c43 0 92 27 117 58c-73 75 -124 119 -209 193c-27 -29 -42 -71 -42 -110c0 -96 66 -141 134 -141z" />
    <glyph glyph-name="quoteright" unicode="&#x2019;" horiz-adv-x="242" 
d="M95 708c50 0 115 -46 115 -123c0 -89 -82 -140 -160 -162l-13 35c55 25 85 58 85 96c0 37 -28 63 -70 71c-5 1 -14 13 -14 36c0 27 28 47 57 47z" />
    <glyph glyph-name="parenleft" unicode="(" horiz-adv-x="352" 
d="M314 -144l-26 -28c-146 105 -212 260 -212 443v1c0 182 66 336 212 442l26 -27c-90 -91 -143 -244 -143 -416s58 -336 143 -415z" />
    <glyph glyph-name="parenright" unicode=")" horiz-adv-x="352" 
d="M275 270c0 -182 -66 -336 -211 -442l-26 26c89 87 142 245 142 417s-60 338 -142 418l26 25c145 -106 211 -260 211 -444z" />
    <glyph glyph-name="asterisk" unicode="*" horiz-adv-x="405" 
d="M372 483l-131 -28l34 -138l-27 -11l-72 128l-123 -74l-17 26l100 96l-104 105l18 25l123 -78l60 131l29 -7l-24 -140l133 -6z" />
    <glyph glyph-name="plus" unicode="+" horiz-adv-x="577" 
d="M530 221h-204v-221h-74v221h-205v65h205v199h74v-199h204v-65z" />
    <glyph glyph-name="comma" unicode="," horiz-adv-x="254" 
d="M101 161c50 0 116 -50 116 -127c0 -93 -87 -147 -170 -167l-12 35c61 25 90 55 90 97c0 34 -26 64 -73 74c-5 1 -14 14 -14 36c0 31 30 52 63 52z" />
    <glyph glyph-name="hyphen" unicode="-" horiz-adv-x="342" 
d="M302 265l-15 -71h-246l15 71h246z" />
    <glyph glyph-name="period" unicode="." horiz-adv-x="254" 
d="M126 -12c-41 0 -73 31 -73 76c0 44 32 76 74 76c43 0 74 -32 74 -76c0 -45 -31 -76 -75 -76z" />
    <glyph glyph-name="slash" unicode="/" horiz-adv-x="327" 
d="M304 665l-217 -710h-70l217 710h70z" />
    <glyph glyph-name="zero" unicode="0" horiz-adv-x="500" 
d="M252 635c167 0 220 -178 220 -323c0 -146 -53 -324 -222 -324c-168 0 -222 179 -222 323c0 149 57 324 224 324zM248 594c-67 0 -83 -144 -83 -279s21 -286 87 -286s83 145 83 285c0 141 -21 280 -87 280z" />
    <glyph glyph-name="one" unicode="1" horiz-adv-x="500" 
d="M409 0h-307v34c79 5 88 20 88 91v363c0 53 -4 59 -45 63l-51 3v29c66 10 140 28 228 52v-510c0 -69 7 -86 87 -91v-34z" />
    <glyph glyph-name="two" unicode="2" horiz-adv-x="500" 
d="M440 175l33 -11c-16 -59 -28 -122 -39 -164h-401v26c53 52 112 107 161 165c70 83 109 158 109 234c0 70 -35 119 -104 119c-61 0 -102 -42 -134 -88l-29 23l64 94c37 37 87 62 150 62c99 0 182 -67 182 -178c0 -78 -41 -141 -139 -235l-120 -114h162c60 0 68 2 105 67z
" />
    <glyph glyph-name="three" unicode="3" horiz-adv-x="500" 
d="M306 382v-2c97 -18 148 -83 148 -158c0 -164 -218 -234 -280 -234c-51 0 -91 17 -111 33c-17 13 -24 26 -24 40c0 18 17 36 30 45c11 10 23 12 37 2c22 -20 69 -64 129 -64c50 0 89 41 89 135c0 96 -66 130 -120 130c-18 0 -39 -3 -54 -7l-7 34c85 28 144 68 144 130
c0 65 -41 91 -86 91c-50 0 -84 -28 -119 -75l-26 24l50 67c28 31 75 62 141 62h1c104 0 163 -57 163 -135c0 -27 -13 -50 -32 -67c-17 -16 -40 -30 -73 -51z" />
    <glyph glyph-name="four" unicode="4" horiz-adv-x="500" 
d="M486 174h-90v-62c0 -61 7 -71 81 -78v-34h-298v34c85 7 90 21 90 82v58h-254v41c108 153 214 297 309 414h72v-398h90v-57zM269 231v262h-2c-48 -66 -112 -158 -177 -262h179z" />
    <glyph glyph-name="five" unicode="5" horiz-adv-x="500" 
d="M152 515l-27 -153c50 18 103 32 129 32c128 0 201 -82 201 -168c0 -62 -31 -121 -101 -170c-57 -41 -128 -67 -188 -68c-40 0 -82 14 -103 32c-20 16 -25 26 -25 41s15 38 32 51c12 8 23 5 36 -6c24 -22 72 -61 129 -61c62 0 92 55 92 129c0 90 -57 148 -148 148
c-45 0 -88 -12 -109 -19l45 320h318l6 -10l-32 -98h-255z" />
    <glyph glyph-name="six" unicode="6" horiz-adv-x="500" 
d="M179 359l50 23c25 12 43 20 59 20c115 0 192 -74 192 -187c0 -126 -95 -227 -227 -227c-126 0 -225 96 -225 255c0 213 150 327 266 366c45 15 111 27 149 32l7 -38c-29 -6 -72 -19 -107 -36c-49 -25 -134 -82 -164 -208zM234 331c-23 0 -42 -4 -62 -11
c-4 -17 -6 -57 -6 -81c0 -133 54 -210 107 -210c62 0 76 77 76 142c0 94 -47 160 -115 160z" />
    <glyph glyph-name="seven" unicode="7" horiz-adv-x="500" 
d="M476 623l9 -12c-95 -201 -196 -406 -287 -611l-103 -12l-8 13c118 175 218 351 304 514h-213c-68 0 -76 -7 -104 -66h-35c14 78 20 131 27 174h410z" />
    <glyph glyph-name="eight" unicode="8" horiz-adv-x="500" 
d="M262 635c109 0 183 -66 183 -155c0 -27 -10 -52 -33 -74c-16 -14 -34 -30 -73 -55c70 -38 133 -85 133 -173c0 -127 -126 -190 -223 -190c-131 0 -217 67 -217 169c0 47 24 71 42 88c18 16 63 44 92 61c-58 32 -109 81 -109 155c0 95 84 174 205 174zM246 595
c-47 0 -74 -46 -74 -88c0 -68 52 -101 129 -137c17 16 37 47 37 105c0 86 -52 120 -92 120zM260 28c55 0 92 43 91 109c-1 72 -50 98 -147 150c-29 -22 -52 -66 -52 -118c0 -97 58 -141 108 -141z" />
    <glyph glyph-name="nine" unicode="9" horiz-adv-x="500" 
d="M253 635c145 0 218 -116 218 -253c0 -181 -106 -308 -248 -364c-39 -16 -125 -32 -170 -33l-6 36c148 26 251 133 277 253l-49 -26c-24 -12 -41 -17 -58 -17c-120 0 -193 83 -193 189c0 89 76 215 229 215zM232 595c-54 0 -76 -70 -76 -135c0 -86 46 -160 119 -160
c25 0 41 7 55 13c4 27 5 52 5 74c0 98 -25 208 -103 208z" />
    <glyph glyph-name="colon" unicode=":" horiz-adv-x="254" 
d="M129 419c41 0 72 -31 72 -76c0 -43 -31 -75 -73 -75s-73 32 -73 75c0 45 31 76 74 76zM127 -12c-41 0 -72 31 -72 76c0 43 31 75 73 75c43 0 74 -32 74 -75c0 -45 -31 -76 -75 -76z" />
    <glyph glyph-name="semicolon" unicode=";" horiz-adv-x="254" 
d="M129 419c41 0 72 -31 72 -76c0 -43 -31 -75 -73 -75s-73 32 -73 75c0 45 31 76 74 76zM102 162c50 0 116 -51 116 -127c0 -94 -87 -147 -170 -168l-10 35c59 25 88 55 88 97c0 35 -26 64 -73 74c-5 1 -14 14 -14 36c0 32 30 53 63 53z" />
    <glyph glyph-name="less" unicode="&#x3c;" horiz-adv-x="548" 
d="M497 0l-444 219v68l444 219v-70l-371 -182v-2l371 -182v-70z" />
    <glyph glyph-name="equal" unicode="=" horiz-adv-x="577" 
d="M531 313h-484v65h484v-65zM531 130h-484v65h484v-65z" />
    <glyph glyph-name="greater" unicode="&#x3e;" horiz-adv-x="548" 
d="M497 219l-443 -219v70l370 182v2l-370 182v70l443 -219v-68z" />
    <glyph glyph-name="question" unicode="?" horiz-adv-x="399" 
d="M229 226l-23 -24c-52 20 -127 70 -127 134c0 38 23 76 97 122c58 37 110 66 110 88c0 23 -15 37 -45 37c-67 0 -118 -71 -136 -71c-23 0 -59 33 -59 69c0 19 8 29 23 42c33 29 87 42 112 42h1c86 0 180 -82 180 -176c0 -40 -9 -70 -59 -106c-35 -24 -102 -63 -102 -97
c0 -16 7 -34 28 -60zM188 -12c-42 0 -75 32 -75 79c0 44 33 78 76 78c44 0 77 -34 77 -78c0 -47 -33 -79 -78 -79z" />
    <glyph glyph-name="at" unicode="@" horiz-adv-x="766" 
d="M552 -16l13 -31c-65 -39 -131 -53 -194 -53c-168 0 -317 103 -316 309c1 231 186 368 380 368c184 0 290 -121 290 -253c0 -139 -104 -252 -249 -252c-54 0 -59 23 -50 72l8 46l-2 1c-32 -46 -111 -118 -163 -118c-28 0 -52 29 -51 89c1 58 22 124 79 183
c39 39 109 75 174 75c15 0 40 -5 54 -9c11 -3 21 -4 37 -4c-9 -33 -29 -119 -48 -220c-9 -47 -5 -67 13 -66c60 1 142 64 142 202c0 136 -106 210 -233 210c-177 0 -304 -136 -303 -320c0 -125 73 -263 266 -263c62 0 118 15 153 34zM421 375c-23 0 -40 -10 -56 -27
c-26 -28 -46 -91 -48 -151c-2 -37 7 -49 19 -49c14 0 63 32 105 106c13 37 24 79 30 109c-15 8 -31 12 -50 12z" />
    <glyph glyph-name="A" unicode="A" horiz-adv-x="706" 
d="M687 0h-286v35c59 9 64 21 48 65c-10 30 -25 73 -40 113h-192c-11 -31 -24 -67 -36 -107c-15 -48 -12 -62 61 -71v-35h-224v35c66 8 79 19 112 103l205 514l51 13c64 -175 126 -349 191 -521c34 -88 46 -101 110 -109v-35zM390 266l-74 217h-3c-28 -73 -53 -146 -79 -217
h156z" />
    <glyph glyph-name="B" unicode="B" horiz-adv-x="637" 
d="M401 353v-4c116 -14 192 -61 192 -156c0 -67 -37 -119 -93 -150c-51 -29 -128 -43 -211 -43h-254v35c77 7 86 14 86 99v382c0 86 -9 92 -80 99v35h292c77 0 127 -10 165 -34c37 -24 59 -65 59 -114c0 -96 -84 -135 -156 -149zM253 363h23c96 0 139 38 139 121
c0 91 -54 125 -108 125c-23 0 -39 -7 -45 -13c-7 -7 -9 -22 -9 -43v-190zM253 323v-187c0 -74 20 -95 73 -94c56 1 119 42 119 140c0 94 -59 141 -172 141h-20z" />
    <glyph glyph-name="C" unicode="C" horiz-adv-x="676" 
d="M625 186l35 -15c-13 -49 -39 -125 -56 -160c-26 -6 -118 -26 -186 -26c-266 0 -376 173 -376 332c0 206 157 348 396 348c81 0 155 -21 182 -27c9 -55 16 -101 23 -163l-37 -7c-33 118 -110 153 -187 153c-145 0 -225 -136 -225 -284c0 -184 99 -305 235 -305
c83 0 145 53 196 154z" />
    <glyph glyph-name="D" unicode="D" horiz-adv-x="761" 
d="M41 650h300c126 0 223 -25 287 -86c50 -47 89 -118 89 -213c0 -122 -49 -210 -125 -268c-74 -56 -179 -83 -303 -83h-257v35c79 7 89 13 89 99v382c0 86 -10 92 -80 99v35zM255 540v-400c0 -72 15 -97 85 -97c134 0 226 109 226 288c0 95 -29 171 -75 216
c-41 42 -94 62 -163 62c-36 0 -56 -7 -63 -14c-8 -9 -10 -26 -10 -55z" />
    <glyph glyph-name="E" unicode="E" horiz-adv-x="581" 
d="M535 173l36 -7c-7 -45 -27 -136 -35 -166h-510v35c85 7 95 13 95 98v384c0 87 -10 92 -81 98v35h471c1 -18 6 -88 10 -150l-37 -5c-9 35 -22 68 -40 86c-17 18 -44 25 -100 25h-48c-37 0 -41 -2 -41 -35v-212h67c84 0 98 5 111 75h36v-201h-36c-13 72 -26 76 -111 76h-67
v-174c0 -48 4 -72 24 -82c18 -8 52 -10 90 -10c52 0 87 7 110 32c20 22 38 54 56 98z" />
    <glyph glyph-name="F" unicode="F" horiz-adv-x="554" 
d="M524 497l-35 -6c-10 38 -23 68 -40 86c-21 22 -48 29 -104 29h-50c-35 0 -39 -2 -39 -35v-221h82c89 0 99 9 110 73h36v-199h-36c-11 68 -21 76 -110 76h-82v-158c0 -94 8 -100 95 -107v-35h-311v35c73 7 82 13 82 107v369c0 90 -9 97 -82 104v35h473
c1 -17 6 -94 11 -153z" />
    <glyph glyph-name="G" unicode="G" horiz-adv-x="727" 
d="M703 311v-35c-50 -10 -56 -14 -56 -81v-80c0 -36 1 -68 6 -94c-60 -14 -147 -36 -228 -36c-232 0 -381 132 -381 333c0 228 185 347 396 347c82 0 159 -20 195 -28c3 -34 8 -87 16 -165l-38 -8c-24 112 -99 159 -193 159c-120 0 -224 -108 -224 -288
c0 -151 74 -309 238 -309c20 0 43 3 56 12c15 9 23 25 23 56v95c0 70 -5 78 -110 87v35h300z" />
    <glyph glyph-name="H" unicode="H" horiz-adv-x="783" 
d="M746 650v-35c-78 -7 -84 -13 -84 -98v-385c0 -84 8 -90 84 -97v-35h-305v35c79 7 87 13 87 98v186h-273v-186c0 -85 8 -91 82 -98v-35h-298v35c73 7 82 13 82 98v384c0 85 -9 91 -86 98v35h300v-35c-72 -7 -80 -13 -80 -98v-147h273v147c0 85 -8 91 -83 98v35h301z" />
    <glyph glyph-name="I" unicode="I" horiz-adv-x="378" 
d="M338 0h-301v35c75 7 84 14 84 98v383c0 86 -9 92 -84 99v35h301v-35c-75 -7 -83 -13 -83 -99v-383c0 -84 8 -91 83 -98v-35z" />
    <glyph glyph-name="J" unicode="J" horiz-adv-x="366" 
d="M337 650v-35c-70 -7 -78 -13 -78 -98v-331c0 -116 -10 -211 -102 -286c-40 -34 -82 -53 -122 -62l-15 36c54 23 84 58 94 122c9 55 11 120 11 194v327c0 85 -10 91 -86 98v35h298z" />
    <glyph glyph-name="K" unicode="K" horiz-adv-x="703" 
d="M699 0h-201c-43 59 -126 176 -197 280c-21 30 -34 36 -49 34v-180c0 -86 9 -92 86 -99v-35h-299v35c72 7 82 13 82 99v382c0 86 -9 92 -84 99v35h294v-35c-71 -7 -79 -13 -79 -99v-170c21 6 46 22 76 53c67 68 107 117 140 162c24 31 22 46 -25 52l-18 2v35h260v-35
c-62 -6 -103 -18 -158 -70c-59 -54 -101 -102 -146 -148c64 -96 138 -197 210 -288c41 -52 68 -68 108 -74v-35z" />
    <glyph glyph-name="L" unicode="L" horiz-adv-x="551" 
d="M512 180l36 -11c-8 -43 -29 -142 -37 -169h-487v35c87 7 97 13 97 98v383c0 86 -10 92 -86 99v35h305v-35c-76 -7 -85 -13 -85 -99v-391c0 -47 4 -64 24 -73c18 -7 44 -9 75 -9c43 0 79 7 103 34c18 20 37 52 55 103z" />
    <glyph glyph-name="M" unicode="M" horiz-adv-x="888" 
d="M860 0h-296v35c75 8 80 15 80 107l-2 385h-5l-221 -520h-28l-204 510h-4l-12 -261c-5 -83 -4 -130 0 -161c4 -45 23 -54 90 -60v-35h-241v35c57 5 75 22 82 58c6 31 13 84 21 189l16 198c8 113 1 127 -85 135v35h207l192 -438l196 438h202v-35c-80 -8 -84 -16 -82 -99
l9 -374c2 -92 7 -99 85 -107v-35z" />
    <glyph glyph-name="N" unicode="N" horiz-adv-x="740" 
d="M724 650v-34c-54 -3 -75 -17 -80 -62c-3 -31 -9 -78 -9 -167v-397h-48l-416 498h-3v-224c0 -88 5 -133 8 -163c5 -44 22 -63 96 -66v-35h-245v35c56 4 79 20 83 63c4 33 10 78 10 166v208c0 66 -1 84 -20 108s-41 32 -84 36v34h185l383 -439h3v176c0 89 -5 136 -8 165
c-5 43 -25 60 -99 64v34h244z" />
    <glyph glyph-name="O" unicode="O" horiz-adv-x="766" 
d="M394 664c182 0 331 -135 331 -332c0 -216 -155 -347 -344 -347c-200 0 -339 147 -339 338c0 172 123 341 352 341zM374 622c-100 0 -178 -106 -178 -279c0 -172 75 -316 203 -316c95 0 172 93 172 277c0 199 -80 318 -197 318z" />
    <glyph glyph-name="P" unicode="P" horiz-adv-x="599" 
d="M42 650h276c79 0 135 -11 175 -39c47 -32 74 -82 74 -147c0 -134 -99 -195 -205 -208c-15 -2 -30 -2 -41 -2l-68 17v-138c0 -85 9 -92 94 -99v-34h-310v34c75 7 84 14 84 99v383c0 85 -9 92 -79 99v35zM253 570v-260c12 -5 33 -10 54 -10c36 0 116 26 116 161
c0 113 -63 150 -124 150c-19 0 -31 -5 -37 -10c-7 -6 -9 -16 -9 -31z" />
    <glyph glyph-name="Q" unicode="Q" horiz-adv-x="758" 
d="M734 -137l-8 -27c-50 -8 -109 -2 -147 8c-32 8 -109 42 -236 143c-62 4 -156 39 -212 100c-57 62 -89 145 -89 232c0 177 120 346 351 346c182 0 331 -135 331 -332c0 -167 -101 -288 -221 -325c64 -45 159 -108 231 -145zM358 30l82 26c9 -6 18 -13 26 -19
c46 19 105 102 105 266c0 199 -80 320 -199 320c-109 0 -177 -123 -177 -280s59 -283 163 -313z" />
    <glyph glyph-name="R" unicode="R" horiz-adv-x="659" 
d="M660 23l-6 -32c-6 0 -17 1 -30 1c-126 6 -164 34 -205 97c-26 41 -53 95 -82 148c-16 30 -34 43 -66 43h-19v-146c0 -83 9 -92 85 -99v-35h-302v35c75 7 86 16 86 99v384c0 80 -9 90 -82 97v35h281c88 0 138 -10 179 -37c40 -27 67 -71 67 -133c0 -88 -58 -136 -125 -163
c15 -30 52 -96 82 -142c35 -56 57 -88 76 -109c22 -23 39 -35 61 -43zM252 320h26c42 0 76 7 98 26c34 28 48 68 48 119c0 107 -62 145 -118 145c-25 0 -39 -4 -45 -10c-7 -6 -9 -16 -9 -37v-243z" />
    <glyph glyph-name="S" unicode="S" horiz-adv-x="505" 
d="M442 495l-35 -8c-20 63 -58 137 -139 137c-56 0 -97 -41 -97 -99c0 -55 36 -86 124 -131c105 -51 177 -107 177 -206c0 -114 -97 -203 -243 -203c-36 0 -71 5 -101 14c-28 8 -47 16 -60 22c-10 25 -23 109 -30 169l35 12c20 -64 79 -177 175 -177c61 0 100 42 100 106
c0 59 -44 96 -119 136c-102 52 -174 106 -174 202c0 110 87 196 229 196c64 0 121 -20 139 -26c4 -37 11 -82 19 -144z" />
    <glyph glyph-name="T" unicode="T" horiz-adv-x="641" 
d="M616 481l-36 -2c-12 52 -26 86 -44 104s-43 23 -102 23h-45v-473c0 -85 10 -91 98 -98v-35h-326v35c84 7 94 13 94 98v473h-34c-83 0 -101 -10 -115 -27c-17 -17 -29 -51 -42 -101h-37c4 73 10 146 12 197h25c15 -22 28 -25 57 -25h402c26 0 40 6 57 25h25
c1 -42 6 -130 11 -194z" />
    <glyph glyph-name="U" unicode="U" horiz-adv-x="729" 
d="M723 650v-35c-54 -3 -79 -24 -84 -59c-5 -31 -9 -68 -9 -139v-109c0 -106 -16 -190 -72 -250c-46 -48 -114 -73 -185 -73c-66 0 -129 14 -177 51c-56 45 -83 119 -83 236v236c0 94 -10 100 -84 107v35h301v-35c-73 -7 -83 -13 -83 -107v-218c0 -150 54 -237 162 -237
c119 0 171 90 171 257v107c0 71 -5 109 -10 139c-6 35 -29 55 -97 59v35h250z" />
    <glyph glyph-name="V" unicode="V" horiz-adv-x="711" 
d="M702 650v-36c-65 -7 -83 -19 -123 -114c-33 -78 -124 -305 -202 -511h-50c-68 183 -162 424 -203 528c-31 77 -47 91 -109 97v36h298v-36c-73 -11 -73 -22 -58 -65c29 -80 108 -283 144 -377h3c55 146 98 262 125 349c23 69 23 83 -59 93v36h234z" />
    <glyph glyph-name="W" unicode="W" horiz-adv-x="979" 
d="M969 650v-35c-67 -10 -83 -24 -111 -107c-22 -65 -81 -239 -165 -519h-52c-55 149 -108 292 -164 444h-2c-51 -151 -102 -300 -150 -444h-52c-55 180 -104 348 -160 526c-24 78 -41 92 -100 100v35h295v-35c-75 -9 -76 -23 -62 -74c33 -117 67 -234 101 -344h2
c48 142 98 293 144 447h48c56 -152 113 -305 168 -451h3c38 123 79 279 93 338c14 60 10 77 -71 84v35h235z" />
    <glyph glyph-name="X" unicode="X" horiz-adv-x="693" 
d="M700 0h-321v35c66 12 61 26 44 58c-10 18 -33 56 -107 180c-47 -71 -88 -136 -109 -176c-24 -43 -15 -51 52 -62v-35h-251v35c55 6 90 22 119 55c36 45 106 136 163 222c-48 79 -89 149 -142 232c-28 47 -55 64 -123 71v35h301v-35c-55 -12 -53 -24 -41 -47
c17 -32 48 -85 90 -151c31 40 66 95 90 140c19 36 16 46 -48 58v35h241v-35c-64 -8 -91 -20 -132 -69c-34 -40 -77 -99 -125 -165c59 -93 108 -173 166 -263c42 -65 64 -76 133 -83v-35z" />
    <glyph glyph-name="Y" unicode="Y" horiz-adv-x="655" 
d="M646 650v-35c-63 -7 -83 -25 -120 -84s-64 -102 -112 -196c-15 -27 -18 -38 -18 -69v-128c0 -91 7 -97 97 -104v-34h-325v34c85 7 94 13 94 104v111c0 25 -4 35 -13 55c-27 54 -64 121 -124 227c-37 66 -54 76 -109 84v35h285v-35c-65 -9 -64 -21 -47 -57
c35 -70 76 -144 115 -218c29 57 80 151 104 212c16 40 15 54 -59 63v35h232z" />
    <glyph glyph-name="Z" unicode="Z" horiz-adv-x="619" 
d="M574 193l33 -8c-8 -49 -26 -150 -36 -185h-531l-11 17c128 194 257 395 381 588h-126c-102 0 -121 -11 -137 -35c-12 -18 -28 -48 -39 -95l-33 1c3 77 9 147 11 199h26c15 -23 26 -25 58 -25h406l8 -15c-125 -195 -249 -385 -374 -584c33 -4 61 -6 124 -6
c78 0 148 6 177 33c24 23 41 53 63 115z" />
    <glyph glyph-name="bracketleft" unicode="[" horiz-adv-x="351" 
d="M302 -162h-185v866h185v-36c-101 -9 -105 -16 -105 -94v-608c0 -77 2 -83 105 -92v-36z" />
    <glyph glyph-name="backslash" unicode="\" horiz-adv-x="332" 
d="M304 -45h-70l-206 710h70z" />
    <glyph glyph-name="bracketright" unicode="]" horiz-adv-x="351" 
d="M234 -162h-185v36c100 9 105 15 105 93v608c0 78 -5 84 -105 93v36h185v-866z" />
    <glyph glyph-name="asciicircum" unicode="^" horiz-adv-x="559" 
d="M506 213h-77l-151 335l-152 -335h-73l194 410h65z" />
    <glyph glyph-name="underscore" unicode="_" horiz-adv-x="500" 
d="M500 -125h-500v50h500v-50z" />
    <glyph glyph-name="quoteleft" unicode="&#x2018;" horiz-adv-x="242" 
d="M190 717l13 -34c-56 -26 -86 -59 -86 -97c0 -37 29 -63 71 -71c4 -1 14 -12 14 -36c0 -28 -29 -47 -56 -47h-1c-51 0 -116 46 -116 123c0 90 82 141 161 162z" />
    <glyph glyph-name="a" unicode="a" horiz-adv-x="466" 
d="M465 45l-109 -57c-27 0 -48 9 -61 21c-14 12 -21 25 -25 37c-38 -25 -85 -58 -105 -58c-84 0 -135 66 -135 128c0 52 24 76 76 96c59 22 136 46 159 66v30c0 63 -24 98 -60 98c-14 0 -25 -6 -34 -18c-11 -14 -20 -38 -28 -69c-7 -26 -22 -34 -42 -34c-27 0 -63 24 -63 50
c0 18 13 31 35 48c38 26 109 60 166 71c41 0 71 -9 98 -29c43 -33 52 -76 52 -132v-165c0 -47 15 -59 32 -59c12 0 23 3 34 8zM265 79v160c-18 -10 -34 -20 -55 -31c-31 -16 -47 -34 -47 -69c0 -55 37 -76 60 -76c15 0 26 4 42 16z" />
    <glyph glyph-name="b" unicode="b" horiz-adv-x="534" 
d="M196 417l37 17c28 13 44 20 64 20c121 0 207 -99 207 -211c0 -146 -114 -255 -260 -255c-56 0 -107 10 -176 36v542c0 57 -5 66 -61 70v31c51 6 132 20 189 36v-286zM196 382v-274c0 -14 2 -25 5 -33c6 -16 29 -46 61 -47c54 -1 103 59 103 184c0 127 -64 177 -127 177
c-17 0 -27 -2 -42 -7z" />
    <glyph glyph-name="c" unicode="c" horiz-adv-x="422" 
d="M399 120l19 -24c-46 -65 -111 -108 -172 -108c-137 0 -217 104 -217 213c0 73 38 144 101 191c66 48 131 62 169 62h1c36 0 69 -11 86 -25c15 -10 19 -22 18 -36c0 -29 -26 -55 -43 -55c-7 0 -13 3 -22 11c-41 36 -73 52 -101 52c-39 0 -84 -38 -84 -145
c0 -133 96 -177 138 -177s71 10 107 41z" />
    <glyph glyph-name="d" unicode="d" horiz-adv-x="547" 
d="M541 58v-32c-24 -4 -118 -16 -197 -39v58l-61 -39c-24 -15 -39 -18 -50 -18c-86 0 -204 70 -204 219c0 136 118 247 274 247c8 0 19 -2 41 -5v121c0 54 -6 58 -67 66v31c64 7 144 21 195 36v-577c0 -57 5 -61 47 -66zM344 80v280c-16 35 -43 52 -73 52
c-23 0 -100 -26 -100 -178c0 -123 72 -170 118 -170c18 0 33 2 55 16z" />
    <glyph glyph-name="e" unicode="e" horiz-adv-x="437" 
d="M400 123l17 -24c-60 -91 -138 -111 -180 -111c-134 0 -207 99 -207 214c0 76 32 139 74 181c44 44 99 71 153 71h1c93 0 163 -79 163 -161c-1 -20 -7 -33 -29 -36c-18 -3 -141 -12 -239 -16c4 -107 63 -161 135 -161c39 0 77 13 112 43zM237 414c-39 0 -73 -47 -80 -126
c42 1 79 2 120 3c15 0 21 3 21 20c1 51 -22 103 -61 103z" />
    <glyph glyph-name="f" unicode="f" horiz-adv-x="331" 
d="M52 442h40v22c0 22 5 43 13 67c7 22 28 70 85 118c36 30 71 48 119 54c40 -2 65 -14 82 -30c14 -14 15 -29 8 -44c-4 -11 -15 -24 -30 -36c-14 -10 -24 -10 -34 0c-24 24 -56 49 -84 49c-18 0 -27 -11 -31 -26c-6 -19 -6 -54 -2 -139l2 -35h115c4 -11 0 -41 -14 -48h-101
v-286c0 -63 7 -69 82 -76v-32h-272v32c58 7 62 13 62 76v286h-65l-5 12z" />
    <glyph glyph-name="g" unicode="g" horiz-adv-x="492" 
d="M494 439l4 -7c-6 -18 -24 -50 -43 -61l-57 5c15 -20 26 -43 26 -77c0 -104 -92 -156 -190 -156c-18 0 -35 3 -50 5c-7 -8 -14 -17 -14 -28c0 -17 17 -39 65 -38c32 0 60 2 92 2c63 0 154 -18 154 -123c0 -114 -134 -205 -267 -205c-129 0 -187 66 -187 121
c0 23 11 39 31 55c24 20 50 34 75 50c-41 15 -60 34 -75 55c-10 16 -15 40 -14 54c51 21 83 48 102 66c-61 20 -98 71 -98 133c0 112 104 164 193 164h1c41 0 70 -8 107 -26c52 1 105 7 145 11zM235 417c-30 0 -59 -38 -59 -111c0 -70 22 -126 69 -126c39 0 60 40 60 114
c0 65 -21 123 -70 123zM242 -21c-48 0 -70 -5 -84 -21c-14 -15 -23 -30 -23 -50c0 -49 50 -97 129 -97c76 0 121 41 121 94c0 36 -24 57 -56 66c-27 6 -49 8 -87 8z" />
    <glyph glyph-name="h" unicode="h" horiz-adv-x="550" 
d="M531 0h-235v32c48 7 51 14 51 69v176c0 77 -33 103 -72 103c-24 0 -50 -7 -72 -28v-251c0 -55 4 -63 46 -69v-32h-237v32c57 6 63 9 63 73v466c0 61 -4 60 -56 66v30c53 7 124 21 184 36v-313c34 34 83 64 133 64c87 0 138 -56 138 -166v-183c0 -64 6 -65 57 -73v-32z
" />
    <glyph glyph-name="i" unicode="i" horiz-adv-x="295" 
d="M148 517c-37 0 -70 32 -70 70c0 40 33 70 71 70c40 0 71 -30 71 -70c0 -38 -31 -70 -72 -70zM285 0h-257v32c58 7 64 11 64 82v198c0 66 -7 69 -55 77v29c61 7 127 20 183 36v-340c0 -69 5 -75 65 -82v-32z" />
    <glyph glyph-name="j" unicode="j" horiz-adv-x="288" 
d="M148 517c-37 0 -70 32 -70 70c0 40 33 70 71 70c39 0 71 -30 71 -70c0 -38 -32 -70 -72 -70zM32 388v30c60 7 125 21 189 36v-325c0 -77 -9 -116 -28 -162c-40 -95 -116 -179 -140 -196c-15 -11 -23 -15 -35 -15c-14 0 -40 23 -40 55c0 16 10 27 24 27c44 2 68 9 75 20
c6 12 10 37 12 71c3 59 4 123 4 188v188c0 72 -7 74 -61 83z" />
    <glyph glyph-name="k" unicode="k" horiz-adv-x="513" 
d="M535 0l-176 -1c-29 35 -85 125 -129 196c-9 12 -15 18 -20 18c-3 1 -7 2 -10 2v-108c0 -65 8 -67 66 -75v-32h-257v32c60 8 66 10 66 75v463c0 56 -7 62 -60 68v29c46 5 117 17 185 36v-459c24 5 43 22 58 38c22 25 47 66 59 87c11 22 7 34 -31 40v30l216 9v-30
c-62 -11 -97 -24 -125 -52c-27 -27 -41 -44 -71 -82c27 -44 114 -163 145 -201c32 -37 49 -45 84 -51v-32z" />
    <glyph glyph-name="l" unicode="l" horiz-adv-x="278" 
d="M270 0h-260v32c60 9 65 13 65 78v457c0 61 -5 63 -60 70v30c57 7 131 21 188 36v-593c0 -67 5 -72 67 -78v-32z" />
    <glyph glyph-name="m" unicode="m" horiz-adv-x="843" 
d="M823 0h-235v32c44 6 51 10 51 73v172c0 82 -38 99 -70 99c-20 0 -45 -7 -77 -34c1 -11 2 -25 2 -40v-202c0 -57 7 -62 52 -68v-32h-231v32c47 6 51 9 51 68v182c0 72 -32 94 -69 94c-24 0 -49 -10 -77 -32v-244c0 -57 7 -62 45 -68v-32h-235v32c58 7 63 10 63 73v210
c0 58 -4 67 -51 74v29c47 7 115 21 176 38v-77c22 16 41 30 63 43c31 20 58 32 87 32c56 0 96 -33 114 -78c25 18 48 33 72 50c22 15 49 28 78 28c87 0 135 -59 135 -161v-193c0 -57 4 -60 56 -68v-32z" />
    <glyph glyph-name="n" unicode="n" horiz-adv-x="566" 
d="M549 0h-233v32c42 6 47 10 47 81v170c0 72 -33 94 -69 94c-26 0 -48 -11 -74 -31v-242c0 -62 5 -66 47 -72v-32h-241v32c62 9 66 10 66 77v208c0 60 -5 63 -53 73v28c56 7 122 21 181 38v-73c20 13 40 29 62 43c30 19 49 28 78 28c81 0 131 -60 131 -160v-189
c0 -63 6 -65 58 -73v-32z" />
    <glyph glyph-name="o" unicode="o" horiz-adv-x="525" 
d="M269 454c139 0 227 -105 227 -225c0 -161 -115 -241 -232 -241c-157 0 -234 114 -234 223c0 161 127 243 239 243zM254 415c-41 0 -81 -54 -81 -168c0 -123 39 -220 102 -220c38 0 78 24 78 172c0 139 -35 216 -99 216z" />
    <glyph glyph-name="p" unicode="p" horiz-adv-x="547" 
d="M212 391l69 44c20 12 38 19 55 19c118 0 181 -97 181 -193c0 -147 -115 -244 -243 -273c-25 0 -47 6 -62 12v-127c0 -57 4 -64 82 -71v-32h-278v32c64 6 68 14 68 70v449c0 55 -9 60 -58 67v30c54 9 120 27 186 46v-73zM212 354v-277c19 -18 56 -39 81 -39
c54 0 92 68 92 172c0 123 -61 168 -110 168c-25 0 -46 -9 -63 -24z" />
    <glyph glyph-name="q" unicode="q" horiz-adv-x="536" 
d="M534 -230h-274v32c70 8 79 11 79 72v148l-80 -34c-160 0 -230 115 -230 213c0 142 129 254 280 253c41 -3 61 -10 72 -14c15 -5 22 -6 33 -6c9 0 27 3 51 12l5 -4c-1 -20 -3 -38 -3 -106v-463c0 -59 5 -64 67 -71v-32zM339 58v314c-20 26 -46 41 -68 41
c-45 0 -101 -55 -101 -178c0 -120 77 -185 133 -185c14 0 24 2 36 8z" />
    <glyph glyph-name="r" unicode="r" horiz-adv-x="404" 
d="M220 349h2c37 62 75 105 113 105c39 0 67 -28 67 -62c0 -36 -23 -64 -49 -74c-14 -5 -24 -2 -31 4c-17 14 -30 21 -46 21c-19 0 -39 -13 -56 -52v-187c0 -61 5 -66 82 -72v-32h-274v32c55 6 64 11 64 72v219c0 51 -7 55 -54 66v28c60 8 120 19 182 38v-106z" />
    <glyph glyph-name="s" unicode="s" horiz-adv-x="383" 
d="M338 322l-30 -9c-27 61 -59 102 -106 102c-26 0 -51 -22 -51 -54c0 -31 23 -54 74 -77c81 -35 135 -70 135 -148c0 -99 -95 -148 -179 -148c-53 0 -105 19 -126 34c-6 16 -15 86 -15 134l29 3c22 -63 69 -132 130 -132c32 0 54 24 54 54c0 29 -14 54 -75 83
c-47 23 -128 62 -128 148c0 78 63 141 168 142c46 0 73 -8 96 -18c10 -23 22 -94 24 -114z" />
    <glyph glyph-name="t" unicode="t" horiz-adv-x="339" 
d="M329 37l-82 -38c-17 -7 -33 -11 -40 -11c-77 0 -123 36 -123 126v280h-63l-5 12l28 36h40v73l114 78l14 -7v-144h98c11 -11 10 -40 -6 -48h-92v-247c0 -78 36 -87 56 -87c17 0 33 4 51 12z" />
    <glyph glyph-name="u" unicode="u" horiz-adv-x="555" 
d="M542 56v-32c-29 -4 -57 -9 -90 -16c-32 -6 -63 -13 -93 -20l-9 7v60c-17 -14 -28 -24 -50 -37c-28 -19 -55 -30 -86 -30c-83 0 -131 54 -131 142v207c0 46 -6 51 -32 58l-23 7v29c25 1 56 4 90 7c33 3 69 7 96 11c-3 -42 -3 -93 -3 -151v-145c0 -65 34 -88 68 -88
c27 0 49 6 71 28v243c0 47 -5 53 -32 59l-31 7v29c29 1 64 4 100 7c35 3 68 7 91 11v-325c0 -52 5 -62 42 -66z" />
    <glyph glyph-name="v" unicode="v" horiz-adv-x="465" 
d="M483 442v-32c-50 -10 -62 -21 -83 -68c-36 -81 -85 -201 -146 -353h-39c-50 124 -95 240 -144 355c-18 44 -31 56 -79 66v32h247v-32c-46 -10 -51 -17 -39 -52c26 -70 62 -168 78 -209c18 46 51 137 73 206c11 33 7 46 -48 55v32h180z" />
    <glyph glyph-name="w" unicode="w" horiz-adv-x="683" 
d="M699 442v-32c-48 -8 -55 -16 -76 -68c-36 -93 -78 -213 -128 -353h-38c-39 94 -80 188 -117 279c-38 -93 -73 -184 -111 -279h-38c-40 123 -83 246 -120 358c-16 48 -26 58 -68 63v32h247v-32c-58 -9 -64 -18 -53 -52c20 -64 40 -133 59 -195h2c35 87 68 179 104 274h39
c36 -92 75 -183 114 -276h2c15 47 46 147 56 190c9 38 4 50 -58 59v32h184z" />
    <glyph glyph-name="x" unicode="x" horiz-adv-x="482" 
d="M494 0h-249v32c38 6 42 17 24 47l-50 87c-20 -28 -37 -61 -52 -85c-17 -28 -11 -40 29 -49v-32h-189v32c54 11 74 22 108 63c25 28 51 64 81 104l-88 145c-28 47 -38 58 -92 66v32h236v-32c-34 -8 -39 -17 -25 -39l47 -78c21 31 37 58 49 78c14 23 9 31 -30 39v32h183
v-32c-55 -9 -65 -14 -101 -49c-21 -23 -45 -56 -79 -101l97 -155c33 -52 57 -67 101 -73v-32z" />
    <glyph glyph-name="y" unicode="y" horiz-adv-x="465" 
d="M483 442v-32c-48 -8 -58 -18 -83 -72c-25 -53 -58 -136 -116 -275c-68 -162 -88 -225 -105 -281c-7 -22 -21 -27 -37 -27c-28 0 -71 28 -71 64c0 16 7 25 28 38c39 21 62 40 81 72c10 18 16 30 19 41c5 16 3 31 -3 48c-52 144 -107 286 -126 330c-18 43 -30 55 -77 62v32
h247v-32c-43 -9 -50 -14 -39 -47l75 -221c23 56 57 156 75 213c11 33 1 46 -48 55v32h180z" />
    <glyph glyph-name="z" unicode="z" horiz-adv-x="445" 
d="M410 152l29 -14c-19 -56 -35 -107 -47 -138h-355l-13 16c82 131 149 249 225 383h-52c-67 0 -91 -15 -120 -71l-17 -33l-30 13c14 49 30 111 40 155h22c8 -16 22 -22 61 -21h245l9 -14c-77 -131 -143 -249 -220 -384h64c70 0 104 14 142 80z" />
    <glyph glyph-name="braceleft" unicode="{" horiz-adv-x="357" 
d="M311 -129v-39c-79 0 -170 19 -170 140c0 62 6 129 5 196c0 31 -3 79 -89 85l-1 36c88 7 90 52 90 85c0 67 -6 135 -5 193c0 122 91 143 170 143v-39c-75 -7 -88 -54 -88 -96c0 -59 12 -133 12 -186c0 -55 -23 -103 -91 -116v-4c66 -13 91 -61 91 -116
c0 -54 -13 -129 -12 -183c0 -51 12 -92 88 -99z" />
    <glyph glyph-name="bar" unicode="|" horiz-adv-x="270" 
d="M177 -250h-84v1000h84v-1000z" />
    <glyph glyph-name="braceright" unicode="}" horiz-adv-x="357" 
d="M302 289v-36c-88 -7 -91 -52 -91 -94c0 -58 6 -127 6 -190c0 -117 -91 -137 -170 -137v37c75 9 90 52 90 100c0 52 -13 112 -13 180c0 59 24 107 91 120v4c-67 13 -91 61 -91 116c0 68 13 130 13 189c0 43 -14 86 -90 95v37c79 0 170 -17 170 -139c0 -63 -6 -130 -6 -187
c0 -42 1 -89 91 -95z" />
    <glyph glyph-name="asciitilde" unicode="~" horiz-adv-x="577" 
d="M483 322l46 -29c-26 -67 -69 -107 -133 -107c-50 0 -91 24 -125 42c-29 17 -54 28 -83 28c-40 0 -67 -27 -92 -74l-44 35c44 87 101 102 140 102c40 0 70 -12 107 -33c35 -20 70 -36 103 -36c35 0 61 27 81 72z" />
    <glyph glyph-name="exclamdown" unicode="&#xa1;" horiz-adv-x="285" 
d="M143 458c42 0 75 -32 75 -78s-33 -79 -76 -79c-44 0 -76 33 -76 79s32 78 77 78zM142 -220c-62 0 -81 19 -81 44c0 16 3 34 10 71c20 108 35 216 50 331c2 12 43 12 45 0c15 -115 30 -223 49 -331c7 -37 10 -55 10 -71c0 -25 -17 -44 -83 -44z" />
    <glyph glyph-name="cent" unicode="&#xa2;" horiz-adv-x="500" 
d="M436 230l18 -26c-36 -52 -87 -93 -145 -103v-96h-40v93c-142 5 -223 102 -223 201c0 74 36 140 100 185c39 27 83 43 123 49v82h40v-78c7 1 12 1 17 1c29 0 73 -8 96 -23c12 -9 15 -21 15 -30c0 -28 -27 -51 -39 -51c-4 0 -8 1 -18 11c-24 27 -47 44 -71 48v-313
c54 1 93 19 127 50zM269 187v309c-44 -4 -106 -45 -106 -149c0 -99 53 -146 106 -160z" />
    <glyph glyph-name="sterling" unicode="&#xa3;" horiz-adv-x="500" 
d="M404 289h-153c1 -5 1 -9 1 -15c0 -64 -58 -120 -112 -149c41 1 77 -4 112 -18c47 -20 102 -44 138 -44c29 0 38 9 38 24s-3 30 -7 39c-3 8 -2 16 3 24c14 18 27 28 40 28c17 0 26 -20 26 -41c0 -51 -48 -100 -86 -128c-34 -24 -68 -36 -102 -36c-48 0 -99 35 -145 58
c-31 17 -49 22 -67 22c-15 0 -28 -16 -33 -39c-3 -11 -8 -17 -16 -17c-17 0 -32 14 -23 44c8 28 44 64 64 92c28 36 39 75 39 112c0 16 -1 31 -3 44h-94v46h87c-5 36 -8 58 -8 83c0 52 25 121 95 171c35 25 76 44 116 46c50 0 83 -22 98 -38c11 -13 14 -28 4 -46
c-8 -12 -18 -21 -26 -27c-10 -5 -20 -6 -33 3c-31 23 -65 51 -100 51c-29 0 -42 -20 -42 -64c0 -48 18 -110 32 -179h157v-46z" />
    <glyph glyph-name="fraction" unicode="&#x2044;" horiz-adv-x="180" 
d="M312 621l-406 -661l-38 28l404 660z" />
    <glyph glyph-name="yen" unicode="&#xa5;" horiz-adv-x="500" 
d="M489 623v-34c-47 -6 -57 -16 -88 -68c-25 -42 -48 -88 -93 -182h125v-42h-132v-28v-37h133v-42h-133v-54c0 -90 8 -97 90 -102v-34h-303v34c79 5 86 12 86 103v53h-134v42h134v25v40h-134v42h122c-20 53 -41 104 -72 175c-28 63 -44 69 -84 75v34h247v-34l-24 -5
c-24 -4 -27 -12 -20 -32c24 -68 44 -127 67 -188c28 59 60 128 75 169c11 32 12 47 -19 52l-26 4v34h183z" />
    <glyph glyph-name="florin" unicode="&#x192;" horiz-adv-x="500" 
d="M163 376l7 37c15 79 46 132 104 179c66 53 116 60 139 60c29 0 71 -20 70 -51c-1 -24 -27 -56 -44 -57c-17 0 -51 54 -81 54c-12 0 -20 -9 -26 -26c-7 -17 -15 -53 -33 -196h106v-46h-113l-22 -142c-31 -200 -97 -251 -161 -294c-35 -22 -70 -32 -95 -32
c-30 0 -61 20 -61 46c0 29 33 58 50 58c13 0 45 -44 72 -44c12 0 20 8 24 22c7 24 13 64 23 140l33 246h-87v46h95z" />
    <glyph glyph-name="section" unicode="&#xa7;" horiz-adv-x="482" 
d="M429 204c-1 -77 -55 -156 -101 -210c-46 -52 -94 -83 -149 -98c-20 0 -53 7 -72 22c-12 10 -19 21 -19 30c0 12 21 39 30 45c7 5 15 8 24 2c11 -9 40 -27 84 -27c30 0 56 18 56 42s-15 42 -61 83c-36 37 -80 76 -111 108c-36 35 -67 92 -67 153c0 80 41 148 84 193
c46 48 89 81 151 96c27 0 56 -13 72 -27c9 -9 12 -16 12 -26c-1 -19 -19 -36 -27 -43c-5 -3 -12 -4 -21 3c-11 9 -44 27 -83 27c-32 0 -54 -18 -54 -38c0 -19 10 -38 38 -60c32 -27 76 -61 111 -90c56 -45 105 -98 103 -185zM100 415c0 -49 21 -94 89 -157
c51 -47 101 -93 122 -123c14 -22 22 -47 24 -77h2c21 35 29 66 29 95c1 45 -17 93 -89 150c-25 20 -74 61 -105 92c-20 21 -46 55 -44 98l-2 2c-14 -21 -26 -46 -26 -80z" />
    <glyph glyph-name="currency" unicode="&#xa4;" horiz-adv-x="500" 
d="M471 136l-50 -49l-68 74c-30 -25 -69 -36 -109 -36c-39 0 -79 11 -110 37l-67 -75l-49 49l71 67c-29 31 -43 78 -43 122c0 45 14 90 43 122l-71 67l49 49l68 -75c30 26 70 37 109 37h1c39 0 78 -11 109 -37l67 75l50 -49l-71 -67c29 -32 43 -77 43 -122
c0 -44 -14 -91 -43 -122zM244 459c-65 0 -112 -58 -112 -134c0 -80 47 -134 113 -134s112 54 112 134c0 76 -46 134 -113 134z" />
    <glyph glyph-name="quotesingle" unicode="'" horiz-adv-x="199" 
d="M147 708l10 -7c-3 -32 -24 -177 -37 -260l-37 -18c-19 100 -43 236 -49 251z" />
    <glyph glyph-name="quotedblleft" unicode="&#x201c;" horiz-adv-x="445" 
d="M191 717l13 -34c-55 -26 -87 -57 -87 -95s28 -65 71 -73c4 -1 14 -12 14 -36c0 -28 -30 -47 -57 -47h-1c-50 0 -115 46 -115 123c0 90 84 141 162 162zM394 717l13 -34c-56 -26 -88 -57 -88 -95s28 -65 72 -73c4 -1 13 -12 13 -36c0 -28 -29 -47 -57 -47h-1
c-50 0 -114 46 -114 123c0 90 83 141 162 162z" />
    <glyph glyph-name="guillemotleft" unicode="&#xab;" horiz-adv-x="456" 
d="M237 51l-32 -19c-49 68 -102 132 -158 193c56 59 109 124 158 191l32 -19l-83 -172zM412 51l-31 -19c-52 68 -105 132 -159 193c56 59 109 124 159 191l31 -19l-83 -172z" />
    <glyph glyph-name="guilsinglleft" unicode="&#x2039;" horiz-adv-x="279" 
d="M235 51l-32 -19c-49 68 -102 132 -158 193c56 59 109 124 158 191l32 -19l-83 -172z" />
    <glyph glyph-name="guilsinglright" unicode="&#x203a;" horiz-adv-x="279" 
d="M44 396l32 20c50 -67 104 -132 158 -192c-56 -60 -109 -124 -158 -192l-32 18l83 174z" />
    <glyph glyph-name="fi" unicode="&#xfb01;" horiz-adv-x="581" 
d="M566 0h-236v33c43 5 48 13 48 72v218c0 61 -3 70 -52 70h-105v-290c0 -56 11 -64 58 -70v-33h-247v33c53 5 61 14 61 70v290h-67l-5 13l30 36h42v22c0 35 9 64 24 95c16 32 42 59 78 86c47 37 102 56 148 58c59 -2 96 -24 116 -47c15 -19 17 -39 9 -55
c-5 -12 -17 -25 -31 -33c-18 -11 -33 -9 -42 3c-16 21 -51 80 -110 80c-28 0 -47 -22 -55 -59c-6 -27 -9 -75 -9 -119v-31h99c45 0 130 1 186 12v-349c0 -59 5 -66 60 -72v-33z" />
    <glyph glyph-name="fl" unicode="&#xfb02;" horiz-adv-x="581" 
d="M568 0h-234v33c38 5 44 12 44 72v503c-16 25 -48 50 -81 50c-25 0 -42 -11 -55 -34c-14 -23 -22 -58 -22 -115v-67h104c4 -11 0 -42 -14 -49h-90v-290c0 -57 5 -63 55 -70v-33h-246v33c57 8 63 12 63 70v290h-68l-4 14l30 35h42v17c0 38 8 67 23 99c17 33 40 65 81 93
c39 28 82 49 136 52c47 0 74 -9 104 -24c18 5 36 12 61 20l9 -5v-589c0 -60 6 -64 62 -72v-33z" />
    <glyph glyph-name="endash" unicode="&#x2013;" horiz-adv-x="511" 
d="M461 196h-411v68h411v-68z" />
    <glyph glyph-name="dagger" unicode="&#x2020;" horiz-adv-x="506" 
d="M274 -98h-53c2 35 2 65 2 111c0 122 -21 219 -38 258c24 47 41 82 40 128c-57 -3 -96 -22 -123 -42c-20 6 -50 32 -62 59c12 25 42 51 62 58c27 -20 67 -38 123 -41c-1 65 -19 89 -49 134c14 27 40 55 71 70c37 -15 58 -43 70 -70c-28 -45 -47 -69 -48 -134
c57 2 96 20 124 41c19 -6 49 -32 62 -58c-13 -26 -43 -52 -63 -59c-27 20 -66 39 -123 41c-2 -45 20 -80 45 -127c-17 -39 -42 -136 -42 -258c0 -46 0 -76 2 -111z" />
    <glyph glyph-name="daggerdbl" unicode="&#x2021;" horiz-adv-x="492" 
d="M452 128c-14 -26 -40 -52 -61 -58c-28 20 -64 39 -123 41c1 -68 20 -94 49 -139c-14 -29 -42 -57 -72 -68c-28 11 -56 38 -70 68c29 45 47 71 49 139c-59 -2 -96 -21 -123 -41c-23 6 -48 32 -61 58c13 27 38 51 61 58c27 -20 64 -37 123 -40c-1 68 -18 110 -49 135
c31 29 48 70 49 129c-59 -1 -96 -18 -123 -39c-23 7 -48 32 -61 56c13 25 38 52 61 58c27 -20 64 -35 123 -39c-2 53 -19 77 -50 125c15 27 42 56 71 66c31 -10 58 -39 72 -66c-29 -48 -47 -72 -49 -125c59 4 95 19 123 39c21 -6 49 -33 61 -58c-12 -24 -40 -49 -61 -56
c-28 21 -64 38 -123 39c1 -59 18 -100 48 -129c-29 -25 -47 -66 -48 -130l3 -5c56 1 92 20 120 40c21 -7 47 -31 61 -58z" />
    <glyph glyph-name="periodcentered" unicode="&#xb7;" horiz-adv-x="254" 
d="M126 157c-41 0 -74 31 -74 78c0 44 33 76 75 76c43 0 76 -32 76 -76c0 -47 -33 -78 -77 -78z" />
    <glyph glyph-name="paragraph" unicode="&#xb6;" horiz-adv-x="519" 
d="M479 536l-31 -32l-86 -10v-470c0 -83 -23 -139 -74 -189c-39 -39 -88 -53 -97 -53c-33 0 -59 11 -74 24c-11 11 -13 21 -12 31c3 13 16 29 23 34c8 6 16 7 24 3c21 -15 47 -24 71 -24c38 0 78 21 78 157v135l-70 -31c-4 -1 -7 -2 -17 -2c-64 0 -175 78 -175 208
c0 69 30 129 74 169c43 38 104 63 161 63h200z" />
    <glyph glyph-name="bullet" unicode="&#x2022;" horiz-adv-x="399" 
d="M199 361h2c72 0 133 -60 133 -139c0 -80 -61 -139 -135 -139c-73 0 -134 59 -134 139c0 79 61 139 134 139z" />
    <glyph glyph-name="quotesinglbase" unicode="&#x201a;" horiz-adv-x="253" 
d="M99 156c53 0 122 -48 122 -132c0 -98 -88 -149 -171 -171l-13 35c59 28 91 65 91 105c0 39 -29 66 -75 75c-5 1 -15 13 -15 38c0 29 31 50 61 50z" />
    <glyph glyph-name="quotedblbase" unicode="&#x201e;" horiz-adv-x="471" 
d="M316 156c54 0 122 -48 122 -132c0 -97 -87 -149 -170 -171l-14 34c60 29 92 66 92 106c0 39 -31 66 -77 75c-4 1 -14 13 -14 38c0 29 31 50 61 50zM99 156c53 0 122 -48 122 -132c0 -97 -87 -149 -169 -171l-15 34c59 29 91 66 91 106c0 39 -29 66 -75 75
c-5 1 -15 13 -15 38c0 29 31 50 61 50z" />
    <glyph glyph-name="quotedblright" unicode="&#x201d;" horiz-adv-x="445" 
d="M95 708c50 0 115 -46 115 -123c0 -89 -84 -140 -163 -162l-12 35c56 25 87 58 87 96c0 37 -28 63 -70 71c-5 1 -14 13 -14 36c0 27 28 47 57 47zM299 708c50 0 115 -46 115 -123c0 -89 -85 -140 -163 -162l-12 35c55 25 87 58 87 96c0 37 -28 63 -71 71
c-4 1 -13 13 -13 36c0 27 28 47 57 47z" />
    <glyph glyph-name="guillemotright" unicode="&#xbb;" horiz-adv-x="456" 
d="M48 396l31 20c52 -67 105 -132 159 -192c-56 -60 -109 -124 -159 -192l-31 18l83 174zM219 396l32 20c49 -67 102 -132 158 -192c-56 -60 -109 -124 -158 -192l-32 18l83 174z" />
    <glyph glyph-name="ellipsis" unicode="&#x2026;" horiz-adv-x="983" 
d="M163 -12c-41 0 -72 31 -72 76c0 44 31 76 73 76c43 0 74 -32 74 -76c0 -45 -31 -76 -75 -76zM495 -12c-40 0 -72 31 -72 76c0 44 32 76 73 76c43 0 74 -32 74 -76c0 -45 -31 -76 -75 -76zM820 -12c-41 0 -72 31 -72 76c0 44 31 76 73 76c43 0 74 -32 74 -76
c0 -45 -31 -76 -75 -76z" />
    <glyph glyph-name="perthousand" unicode="&#x2030;" horiz-adv-x="1088" 
d="M593 624l-408 -661l-37 26l408 662zM197 635c108 0 154 -96 154 -170c0 -75 -44 -172 -155 -172c-108 0 -155 97 -155 171c0 75 47 171 156 171zM197 599c-46 0 -58 -88 -58 -132c0 -49 11 -138 59 -138c45 0 55 91 55 137c0 47 -8 133 -56 133zM558 330
c107 0 153 -97 153 -171c0 -75 -44 -171 -154 -171c-109 0 -155 96 -155 170c0 75 46 172 156 172zM900 330c108 0 154 -97 154 -171c0 -75 -44 -171 -155 -171c-109 0 -155 96 -155 170c0 75 46 172 156 172zM556 294c-46 0 -56 -84 -56 -134c0 -47 10 -136 57 -136
s56 91 56 136c0 48 -8 134 -57 134zM898 294c-45 0 -56 -84 -56 -134c0 -52 10 -136 57 -136c48 0 57 91 57 136c0 48 -7 134 -58 134z" />
    <glyph glyph-name="questiondown" unicode="&#xbf;" horiz-adv-x="399" 
d="M208 458c42 0 75 -32 75 -78s-33 -79 -76 -79c-44 0 -77 33 -77 79s33 78 78 78zM171 219l22 24c52 -20 127 -70 127 -134c0 -38 -23 -75 -97 -122c-57 -36 -108 -64 -108 -85c0 -23 15 -37 45 -37c67 0 117 68 135 68c22 0 58 -32 58 -69c0 -19 -8 -28 -23 -42
c-33 -29 -87 -42 -112 -42h-1c-86 0 -180 83 -180 176c0 40 8 71 59 106c35 25 102 63 102 97c0 16 -6 34 -27 60z" />
    <glyph glyph-name="grave" unicode="`" 
d="M240 502l-31 -13c-49 61 -101 122 -129 156l4 14c15 10 82 23 102 20c19 -59 37 -117 54 -177z" />
    <glyph glyph-name="acute" unicode="&#xb4;" 
d="M204 489l-31 14c13 44 42 143 49 164c10 7 92 16 109 12l6 -11z" />
    <glyph glyph-name="circumflex" unicode="&#x2c6;" 
d="M326 506l-28 -22c-38 31 -68 63 -99 92c-30 -29 -60 -62 -98 -92l-27 22c41 61 71 110 106 173h38c35 -63 66 -112 108 -173z" />
    <glyph glyph-name="tilde" unicode="&#x2dc;" 
d="M81 512l-29 19c23 71 56 105 93 105c17 0 32 -5 62 -21c24 -12 40 -21 58 -21c21 0 38 23 50 48l28 -15c-26 -88 -63 -106 -87 -106c-23 0 -44 10 -67 22c-24 14 -38 20 -56 20s-36 -14 -52 -51z" />
    <glyph glyph-name="macron" unicode="&#xaf;" 
d="M325 542h-250v72h250v-72z" />
    <glyph glyph-name="breve" unicode="&#x2d8;" 
d="M290 659h32c0 -119 -55 -152 -123 -152c-66 0 -121 33 -121 152h32c10 -49 43 -77 90 -77c48 0 80 28 90 77z" />
    <glyph glyph-name="dotaccent" unicode="&#x2d9;" 
d="M199 517c-37 0 -70 32 -70 70c0 40 33 70 71 70c40 0 71 -30 71 -70c0 -38 -31 -70 -72 -70z" />
    <glyph glyph-name="dieresis" unicode="&#xa8;" 
d="M97 519c-36 0 -67 30 -67 66c0 38 31 67 68 67s67 -29 67 -67c0 -36 -30 -66 -68 -66zM302 519c-36 0 -67 30 -67 66c0 38 31 67 68 67s67 -29 67 -67c0 -36 -30 -66 -68 -66z" />
    <glyph glyph-name="ring" unicode="&#x2da;" 
d="M200 498c-49 0 -96 36 -96 93c0 56 47 90 97 90c46 0 95 -34 95 -90c0 -57 -49 -93 -96 -93zM201 538c27 0 44 21 44 53c0 29 -17 50 -45 50c-25 0 -45 -20 -45 -50c0 -32 20 -53 46 -53z" />
    <glyph glyph-name="cedilla" unicode="&#xb8;" 
d="M253 0l-24 -25c-11 -13 -11 -22 7 -39c27 -27 39 -47 39 -69c0 -45 -46 -80 -124 -102l-13 25c39 18 60 43 60 60c0 13 -10 24 -22 34c-26 25 -32 44 -6 73l37 43h46z" />
    <glyph glyph-name="hungarumlaut" unicode="&#x2dd;" 
d="M129 488l-30 11c12 51 32 151 36 169c10 6 79 15 96 12l5 -12zM281 488l-30 11c14 60 32 153 36 169c10 6 79 15 96 12l5 -12z" />
    <glyph glyph-name="ogonek" unicode="&#x2db;" 
d="M286 -186l-50 -30c-13 -7 -29 -11 -39 -11c-53 0 -83 39 -83 77c0 55 54 119 79 150h38c-17 -27 -40 -80 -40 -118c0 -35 23 -49 46 -49c14 0 27 4 41 10z" />
    <glyph glyph-name="caron" unicode="&#x2c7;" 
d="M299 688l27 -22c-41 -60 -71 -110 -106 -172h-38c-35 63 -66 112 -107 172l27 22c38 -30 68 -61 99 -92c31 29 60 62 98 92z" />
    <glyph glyph-name="emdash" unicode="&#x2014;" horiz-adv-x="921" 
d="M871 196h-821v67h821v-67z" />
    <glyph glyph-name="AE" unicode="&#xc6;" horiz-adv-x="882" 
d="M839 175l33 -9c-6 -37 -28 -134 -37 -166h-501v35c81 7 90 18 90 110v146h-168c-45 -91 -60 -127 -81 -175c-25 -58 -17 -71 56 -81v-35h-245v35c64 8 87 26 124 93c72 131 139 261 226 435c16 32 14 42 -17 46l-59 8l-1 33h553c1 -18 6 -90 11 -147l-36 -5
c-11 41 -21 67 -38 84c-16 17 -46 24 -102 24h-52c-36 0 -40 -1 -40 -35v-232h65c88 0 102 6 113 74h37v-202h-37c-11 74 -25 79 -113 80h-65v-152c0 -56 4 -77 25 -87c17 -7 52 -8 90 -8c50 0 88 8 109 32c18 19 41 49 60 99zM424 340v258c-7 0 -14 -1 -22 -3
c-43 -89 -76 -152 -124 -255h146z" />
    <glyph glyph-name="ordfeminine" unicode="&#xaa;" horiz-adv-x="335" 
d="M318 307l-74 -36c-35 0 -50 22 -57 37c-23 -17 -56 -37 -74 -37c-49 0 -85 40 -85 80c0 32 18 53 55 66c27 11 81 25 102 39v16c0 29 -17 46 -39 46s-35 -23 -44 -53c-4 -14 -13 -20 -26 -20c-19 0 -43 14 -43 35c0 11 7 20 23 31c18 12 63 36 113 45c53 0 99 -26 99 -90
v-106c0 -26 10 -35 21 -35c8 0 15 3 23 6zM185 335v91c-10 -5 -27 -12 -38 -19c-19 -9 -28 -20 -28 -39c0 -31 23 -43 38 -43c11 0 19 4 28 10z" />
    <glyph glyph-name="Lslash" unicode="&#x141;" horiz-adv-x="563" 
d="M522 179l38 -10c-8 -37 -28 -140 -37 -169h-487v35c87 7 97 17 97 103v126l-100 -67v52l100 67v196c0 85 -9 96 -85 103v35h306l-1 -35c-77 -7 -86 -18 -86 -103v-112l132 89v-54l-132 -88v-217c0 -47 4 -69 25 -78c16 -7 45 -8 77 -8c43 0 77 7 99 33
c19 21 36 53 54 102z" />
    <glyph glyph-name="Oslash" unicode="&#xd8;" horiz-adv-x="771" 
d="M652 674l-49 -77c72 -59 126 -151 126 -262c0 -212 -152 -350 -350 -350c-61 0 -123 15 -172 44l-57 -81l-31 26l53 77c-79 60 -130 159 -130 272c0 159 115 342 352 342c64 0 125 -15 174 -44l52 76zM237 141l279 405c-36 54 -87 77 -138 77c-102 0 -188 -106 -188 -286
c0 -70 18 -145 47 -196zM539 509l-278 -407c31 -48 83 -75 136 -75c101 0 183 93 183 284c0 80 -17 151 -41 198z" />
    <glyph glyph-name="OE" unicode="&#x152;" horiz-adv-x="992" 
d="M947 179l35 -7c-6 -38 -26 -132 -35 -172h-325c-41 0 -69 -1 -105 -5c-40 -4 -74 -6 -102 -6c-258 0 -374 155 -374 328c0 199 153 344 392 344c39 0 72 -4 104 -6c29 -2 59 -5 89 -5h296c1 -20 6 -88 11 -148l-38 -5c-10 36 -25 67 -42 85s-42 24 -105 24h-46
c-35 0 -39 -2 -39 -35v-212h71c82 0 97 6 111 75h36v-201h-36c-14 72 -28 76 -111 76h-71v-163c0 -64 4 -86 24 -94c18 -8 48 -9 88 -9c54 0 90 8 113 33c20 21 40 53 59 103zM531 100v458c0 28 -8 40 -28 48c-21 9 -44 12 -76 12c-138 0 -234 -107 -234 -288
c0 -159 80 -299 235 -299c23 0 48 2 67 10c27 11 36 24 36 59z" />
    <glyph glyph-name="ordmasculine" unicode="&#xba;" horiz-adv-x="369" 
d="M189 556c95 0 153 -67 152 -142c-2 -94 -73 -144 -157 -144c-106 0 -160 68 -158 140c2 93 86 146 163 146zM178 522c-23 0 -46 -27 -48 -99c-1 -68 24 -119 59 -119c23 0 48 19 50 94c2 78 -21 124 -61 124z" />
    <glyph glyph-name="ae" unicode="&#xe6;" horiz-adv-x="671" 
d="M271 280v25c0 63 -34 100 -65 100c-16 0 -26 -7 -34 -17c-11 -13 -19 -37 -26 -67c-8 -26 -24 -34 -43 -34c-24 0 -62 23 -62 48c0 17 11 32 36 49c42 28 105 57 164 70c27 0 57 -8 80 -25c16 -10 31 -26 36 -38c38 39 91 63 133 63c96 0 166 -81 166 -162
c0 -24 -6 -33 -28 -38c-15 -4 -144 -12 -245 -16c-1 -109 62 -161 138 -161c34 0 73 14 109 42l19 -25c-60 -87 -141 -106 -176 -106c-75 0 -131 33 -163 84l-30 -25c-36 -31 -85 -59 -116 -59c-83 0 -133 66 -133 125c0 52 24 80 76 100c54 20 135 46 164 67zM467 412
c-37 0 -72 -46 -79 -128c43 0 82 1 122 3c16 0 23 5 23 24c0 49 -25 101 -66 101zM226 67c21 0 49 12 67 35c-19 44 -23 98 -23 139c-18 -9 -40 -20 -61 -32c-29 -17 -46 -36 -46 -69c0 -50 34 -73 63 -73z" />
    <glyph glyph-name="dotlessi" unicode="&#x131;" horiz-adv-x="295" 
d="M283 0h-254v33c57 6 63 17 63 89v190c0 59 -1 68 -55 76v30c60 7 127 20 183 36v-332c0 -75 3 -81 63 -89v-33z" />
    <glyph glyph-name="lslash" unicode="&#x142;" horiz-adv-x="302" 
d="M299 464l-84 -69v-275c0 -73 6 -79 68 -87v-33h-265v33c64 6 69 14 69 87v177l-71 -58v54l71 59v231c0 41 -5 49 -65 62v28c43 5 123 18 193 36v-259l84 69v-55z" />
    <glyph glyph-name="oslash" unicode="&#xf8;" horiz-adv-x="531" 
d="M443 457l-33 -49c61 -43 91 -108 91 -177c0 -162 -116 -243 -236 -243c-41 0 -81 9 -118 27l-35 -51l-29 23l34 50c-58 43 -87 110 -87 174c0 158 128 243 241 243c42 0 75 -8 109 -26l35 50zM180 127l153 234c-20 36 -47 52 -76 52c-37 0 -94 -44 -94 -177
c0 -35 6 -78 17 -109zM352 323l-154 -236c19 -39 45 -59 77 -59c41 0 94 29 94 182c0 39 -4 77 -17 113z" />
    <glyph glyph-name="oe" unicode="&#x153;" horiz-adv-x="770" 
d="M266 454c64 0 121 -29 160 -84c37 43 93 84 158 84c95 0 168 -78 168 -162c0 -22 -8 -32 -27 -37c-15 -3 -144 -12 -249 -16c1 -96 53 -162 141 -162c36 0 73 14 109 42l18 -24c-58 -89 -138 -107 -173 -107c-68 0 -122 28 -159 75c-46 -54 -105 -75 -155 -75
c-150 0 -230 115 -230 225c0 158 127 241 239 241zM562 412c-35 0 -75 -45 -81 -129c45 1 85 1 126 3c16 0 22 3 22 22c0 51 -26 104 -67 104zM254 414c-38 0 -82 -52 -83 -171c-1 -113 38 -213 104 -214c34 0 79 29 80 174c1 140 -40 211 -101 211z" />
    <glyph glyph-name="germandbls" unicode="&#xdf;" horiz-adv-x="572" 
d="M93 442v11c0 37 6 62 18 90c12 29 35 72 94 114c40 28 83 45 129 47c116 -1 177 -71 177 -156c0 -15 -3 -23 -10 -31c-59 -43 -89 -76 -88 -114c0 -39 27 -64 65 -101c34 -32 70 -75 70 -137c0 -89 -103 -177 -196 -177c-23 0 -42 5 -59 15c-15 9 -23 23 -16 40
c4 9 11 21 21 28c9 7 14 7 21 1c25 -22 54 -35 77 -35c18 0 43 14 43 55c0 36 -19 67 -52 101c-52 54 -87 93 -87 142c0 48 31 74 67 112c16 16 30 27 35 35c4 6 5 20 5 33c1 71 -46 141 -107 141c-77 0 -79 -126 -79 -237v-314c0 -59 6 -66 40 -72v-33h-230v33
c57 6 62 15 62 71v287h-62l-5 13l27 38h40z" />
    <glyph glyph-name="onesuperior" unicode="&#xb9;" horiz-adv-x="348" 
d="M289 398h-219v29c50 4 61 13 61 65v154c0 38 -2 46 -35 49l-25 2v29c46 4 102 14 158 29v-263c0 -52 10 -61 60 -65v-29z" />
    <glyph glyph-name="logicalnot" unicode="&#xac;" horiz-adv-x="577" 
d="M531 101h-74v209h-410v65h484v-274z" />
    <glyph glyph-name="mu" unicode="&#xb5;" horiz-adv-x="538" 
d="M526 69l12 -28c-19 -26 -60 -53 -114 -53c-42 0 -79 19 -90 69h-2c-30 -35 -68 -69 -112 -69c-36 0 -62 17 -78 43h-3v-15c0 -73 23 -202 36 -246l-15 -14c-27 3 -71 20 -92 42c-3 22 0 155 0 271v261c0 46 -1 79 -3 101l128 24c3 -29 3 -70 3 -114v-172
c0 -74 38 -101 72 -101c29 0 46 13 63 32v331l127 24v-329c0 -51 20 -65 37 -65c11 0 22 3 31 8z" />
    <glyph glyph-name="trademark" unicode="&#x2122;" horiz-adv-x="482" 
d="M197 585h-18c-4 13 -7 22 -12 26c-3 4 -12 6 -24 6h-11v-92c0 -27 1 -29 27 -30v-18h-98v18c25 1 26 3 26 30v92h-9c-13 0 -21 -3 -25 -7c-4 -3 -9 -13 -11 -25h-18c1 24 3 46 3 58h16c1 -2 3 -4 5 -5s5 -1 8 -1h111c6 0 9 2 13 6h15c1 -14 1 -35 2 -58zM458 477h-90v18
c23 1 23 3 23 25l1 87h-2l-59 -128h-18l-49 124h-2l-3 -58c-1 -19 -2 -29 -1 -37c0 -9 6 -12 25 -13v-18h-76v18c15 0 21 4 22 13c2 8 4 14 6 40l3 40c2 25 0 27 -25 29v20h83l40 -85l43 85h76v-20c-20 -2 -21 -5 -21 -27l1 -66c0 -26 2 -28 23 -29v-18z" />
    <glyph glyph-name="Eth" unicode="&#xd0;" horiz-adv-x="760" 
d="M52 650h300c117 0 214 -25 279 -88c51 -47 87 -119 87 -210c0 -122 -47 -210 -124 -268c-76 -57 -176 -84 -297 -84h-253v34c79 8 88 18 88 103v178h-94v50h94v148c0 86 -9 96 -80 103v34zM266 315v-178c0 -67 9 -92 80 -92c127 0 222 111 222 287c0 102 -27 173 -72 219
c-38 39 -96 56 -157 56c-33 0 -56 -5 -64 -14c-8 -7 -9 -21 -9 -49v-179h141v-50h-141z" />
    <glyph glyph-name="onehalf" unicode="&#xbd;" horiz-adv-x="789" 
d="M286 278h-219v29c50 5 61 14 61 65v154c0 38 -2 46 -35 49l-25 2v29c46 4 102 14 158 29v-263c0 -52 10 -61 60 -65v-29zM598 621l-406 -661l-38 29l405 659zM699 108l26 -7c-11 -34 -19 -67 -27 -101h-258v26c65 49 159 131 159 200c0 42 -22 66 -58 66
c-35 0 -63 -25 -81 -50l-21 20l34 49c23 29 66 47 103 47c70 0 123 -41 122 -110c0 -49 -34 -83 -109 -143l-43 -34v-2h90c35 0 44 5 63 39z" />
    <glyph glyph-name="plusminus" unicode="&#xb1;" horiz-adv-x="577" 
d="M530 304h-204v-193h-74v193h-205v65h205v181h74v-181h204v-65zM530 0h-483v65h483v-65z" />
    <glyph glyph-name="Thorn" unicode="&#xde;" horiz-adv-x="593" 
d="M330 650v-35c-68 -8 -78 -14 -78 -106c28 1 55 1 82 1c141 0 225 -54 225 -174c0 -111 -89 -187 -231 -188l-76 16v-45c0 -67 14 -76 92 -84v-35h-305v35c72 6 82 19 82 92v398c0 74 -9 83 -76 90v35h285zM252 432v-227c10 -5 25 -8 46 -8c31 0 117 23 117 140
c0 99 -60 132 -120 132c-19 0 -30 -4 -36 -10c-6 -5 -7 -14 -7 -27z" />
    <glyph glyph-name="onequarter" unicode="&#xbc;" horiz-adv-x="784" 
d="M295 278h-219v29c50 5 61 14 61 65v154c0 38 -2 46 -35 49l-25 2v29c46 4 102 14 158 29v-263c0 -52 10 -61 60 -65v-29zM618 621l-406 -661l-38 29l405 659zM708 97h-55v-19c0 -34 9 -47 50 -51v-27h-201v27c53 4 60 16 60 51v19h-155v28c64 86 123 162 185 233h61v-216
h55v-45zM562 142v129h-1c-31 -40 -58 -78 -93 -129h94z" />
    <glyph glyph-name="divide" unicode="&#xf7;" horiz-adv-x="577" 
d="M289 349c-28 0 -58 27 -58 60c0 32 30 61 59 61c34 0 61 -29 61 -61c0 -33 -27 -60 -62 -60zM531 221h-484v65h484v-65zM290 159c30 0 59 -27 59 -60c0 -32 -29 -61 -60 -61c-34 0 -60 29 -60 61c0 33 26 60 61 60z" />
    <glyph glyph-name="brokenbar" unicode="&#xa6;" horiz-adv-x="270" 
d="M177 325h-84v350h84v-350zM177 -175h-84v350h84v-350z" />
    <glyph glyph-name="degree" unicode="&#xb0;" horiz-adv-x="331" 
d="M166 665c72 0 135 -50 135 -130c0 -84 -62 -132 -136 -132s-136 48 -136 132c0 80 62 130 137 130zM165 622c-42 0 -73 -37 -73 -87s31 -88 74 -88s72 38 72 84c0 55 -29 91 -73 91z" />
    <glyph glyph-name="thorn" unicode="&#xfe;" horiz-adv-x="538" 
d="M200 703v-303c30 16 58 31 87 45c11 5 23 9 41 9c121 0 181 -102 181 -195c0 -146 -116 -243 -245 -271c-32 0 -48 6 -64 12v-112c0 -70 8 -81 87 -86v-32h-280v32c57 5 65 10 65 82v679c0 57 -4 68 -64 75v29c50 5 125 17 192 36zM200 363v-289c21 -19 48 -37 74 -37
c50 0 105 56 105 174c0 122 -65 169 -117 169c-27 0 -42 -8 -62 -17z" />
    <glyph glyph-name="threequarters" unicode="&#xbe;" horiz-adv-x="789" 
d="M619 621l-406 -661l-38 29l404 659zM707 97h-55v-20c0 -33 9 -46 50 -50v-27h-202v27c54 4 61 16 61 50v20h-155v28c64 86 123 162 185 233h61v-216h55v-45zM561 142v129h-2c-30 -40 -58 -78 -92 -129h94zM241 486v-2c63 -9 97 -38 97 -82c0 -90 -130 -132 -183 -132
c-30 0 -63 13 -73 22c-8 8 -12 20 -7 33c5 15 16 25 25 31c6 3 15 3 23 -3c22 -19 50 -42 75 -42c21 0 44 18 44 65c0 50 -31 70 -67 70c-15 0 -29 -3 -39 -6l-7 29c55 18 86 42 86 69c0 23 -19 39 -44 39c-30 0 -54 -21 -70 -39l-18 18l33 44c18 18 52 35 91 35h1
c68 0 105 -39 105 -78c0 -16 -9 -32 -20 -41c-9 -7 -29 -19 -52 -30z" />
    <glyph glyph-name="twosuperior" unicode="&#xb2;" horiz-adv-x="348" 
d="M295 506l25 -7c-11 -34 -19 -67 -27 -101h-258v26c65 49 159 130 159 199c0 42 -22 66 -58 66c-34 0 -62 -25 -81 -49l-21 19l35 49c23 29 65 47 102 47c70 0 123 -41 123 -110c0 -49 -34 -82 -109 -142l-43 -34v-2h90c35 0 43 5 63 39z" />
    <glyph glyph-name="registered" unicode="&#xae;" horiz-adv-x="319" 
d="M161 659c76 0 133 -62 133 -134c0 -69 -57 -131 -134 -131c-75 0 -132 58 -132 131c0 72 57 134 133 134zM160 635c-60 0 -103 -48 -103 -110c0 -60 45 -107 104 -107c60 0 104 47 104 107c0 62 -44 110 -105 110zM238 469l-4 -12c-23 0 -38 4 -50 21
c-9 12 -16 23 -20 30c-4 6 -8 7 -13 7h-4v-22c0 -19 2 -19 19 -20v-15h-70v15c19 1 20 1 20 20v70c0 19 -1 19 -19 20v15h71c24 0 50 -6 50 -37c0 -17 -12 -29 -28 -35c11 -20 19 -30 32 -45c6 -6 12 -10 16 -12zM147 533h9c5 0 13 2 18 5c7 5 11 11 11 20
c0 21 -16 25 -25 25c-10 0 -13 -2 -13 -13v-37z" />
    <glyph glyph-name="minus" unicode="&#x2212;" horiz-adv-x="577" 
d="M531 221h-484v65h484v-65z" />
    <glyph glyph-name="eth" unicode="&#xf0;" horiz-adv-x="522" 
d="M466 656l-124 -63c92 -85 144 -198 144 -324c0 -201 -110 -281 -231 -281c-149 0 -227 113 -225 228c2 154 119 238 240 238h1c14 0 32 -3 49 -9c-10 35 -25 66 -56 106l-145 -73l-19 37l137 67c-52 52 -117 79 -166 87c-8 8 -2 29 9 34c84 -5 164 -36 227 -80l139 71z
M264 415c-50 0 -92 -59 -92 -170c-1 -132 36 -216 96 -216c39 0 80 29 82 201c1 73 -7 128 -23 150c-15 20 -33 35 -63 35z" />
    <glyph glyph-name="multiply" unicode="&#xd7;" horiz-adv-x="577" 
d="M519 61l-50 -51l-181 186l-182 -186l-48 51l180 185l-180 184l48 51l182 -185l181 187l50 -50l-182 -187z" />
    <glyph glyph-name="threesuperior" unicode="&#xb3;" horiz-adv-x="348" 
d="M208 605v-2c64 -9 97 -38 97 -81c0 -90 -130 -132 -182 -132c-31 0 -63 13 -74 22c-8 8 -12 20 -7 33c6 15 17 25 26 31c5 3 14 3 22 -3c22 -19 51 -42 75 -42c21 0 44 18 44 65c0 50 -31 69 -66 69c-16 0 -29 -2 -40 -6l-7 29c56 18 86 42 86 70c0 23 -18 39 -44 39
c-29 0 -54 -21 -70 -39l-18 18l34 45c18 18 51 35 90 35h1c68 0 105 -39 105 -79c0 -16 -9 -33 -19 -41s-29 -20 -53 -31z" />
    <glyph glyph-name="copyright" unicode="&#xa9;" horiz-adv-x="699" 
d="M350 631c177 0 308 -138 308 -307c0 -167 -131 -305 -309 -305c-179 0 -308 138 -308 305c0 169 130 307 309 307zM349 592c-148 0 -255 -117 -255 -267c0 -149 107 -267 256 -267s256 118 256 267c0 150 -107 267 -257 267zM475 261l27 -6c-9 -28 -17 -68 -25 -86
c-24 -8 -72 -20 -110 -20c-129 0 -191 89 -191 172c0 114 94 179 198 179c50 0 89 -11 106 -18c2 -26 4 -54 11 -89l-26 -6c-18 47 -41 81 -94 81c-65 0 -105 -60 -105 -139c0 -87 50 -146 109 -146c50 0 78 29 100 78z" />
    <glyph glyph-name="Aacute" unicode="&#xc1;" horiz-adv-x="706" 
d="M687 0h-286v35c59 9 64 21 48 65c-10 30 -25 73 -40 113h-192c-11 -31 -24 -67 -36 -107c-15 -48 -12 -62 61 -71v-35h-224v35c66 8 79 19 112 103l205 514l51 13c64 -175 126 -349 191 -521c34 -88 46 -101 110 -109v-35zM390 266l-74 217h-3c-28 -73 -53 -146 -79 -217
h156zM525 755l-4 -12l-206 -60l-14 28c58 41 117 83 173 122c18 -7 48 -52 51 -78z" />
    <glyph glyph-name="Acircumflex" unicode="&#xc2;" horiz-adv-x="706" 
d="M687 0h-286v35c59 9 64 21 48 65c-10 30 -25 73 -40 113h-192c-11 -31 -24 -67 -36 -107c-15 -48 -12 -62 61 -71v-35h-224v35c66 8 79 19 112 103l205 514l51 13c64 -175 126 -349 191 -521c34 -88 46 -101 110 -109v-35zM390 266l-74 217h-3c-28 -73 -53 -146 -79 -217
h156zM513 710l-16 -26c-47 18 -89 40 -132 61c-42 -21 -85 -43 -131 -61l-16 26c45 36 94 83 132 123h31c39 -42 88 -86 132 -123z" />
    <glyph glyph-name="Adieresis" unicode="&#xc4;" horiz-adv-x="706" 
d="M687 0h-286v35c59 9 64 21 48 65c-10 30 -25 73 -40 113h-192c-11 -31 -24 -67 -36 -107c-14 -48 -12 -62 61 -71v-35h-224l1 35c66 8 78 19 112 103l204 514l51 13c64 -175 125 -349 191 -521c33 -88 46 -101 110 -109v-35zM390 266l-74 217h-3
c-28 -73 -53 -146 -79 -217h156zM465 828c37 0 67 -29 67 -67c0 -36 -30 -66 -68 -66c-36 0 -67 30 -67 66c0 38 31 67 68 67zM255 828c37 0 67 -29 67 -67c0 -36 -30 -66 -68 -66c-36 0 -67 30 -67 66c0 38 31 67 68 67z" />
    <glyph glyph-name="Agrave" unicode="&#xc0;" horiz-adv-x="706" 
d="M687 0h-286v35c59 9 64 21 48 65c-10 30 -25 73 -40 113h-192c-11 -31 -24 -67 -36 -107c-15 -48 -12 -62 61 -71v-35h-224v35c66 8 79 19 112 103l205 514l51 13c64 -175 126 -349 191 -521c34 -88 46 -101 110 -109v-35zM390 266l-74 217h-3c-28 -73 -53 -146 -79 -217
h156zM420 714l-14 -30l-207 58l-3 12c4 22 33 71 51 83c58 -41 115 -82 173 -123z" />
    <glyph glyph-name="Aring" unicode="&#xc5;" horiz-adv-x="706" 
d="M687 0h-286v35c59 9 64 21 49 65c-11 30 -25 73 -41 113h-192c-11 -31 -24 -67 -36 -107c-15 -48 -12 -62 61 -71v-35h-224v35c66 8 79 19 112 103l205 514l51 13c65 -175 126 -349 192 -521c33 -88 46 -101 109 -109v-35zM391 266l-75 217h-3c-28 -73 -53 -146 -79 -217
h157zM360 863h2c46 0 94 -34 94 -89c0 -56 -48 -91 -96 -91s-95 35 -95 91c0 55 47 89 95 89zM361 825c-26 0 -46 -22 -46 -51c0 -31 20 -53 47 -53s44 22 44 53c0 29 -17 51 -45 51z" />
    <glyph glyph-name="Atilde" unicode="&#xc3;" horiz-adv-x="706" 
d="M687 0h-286v35c59 9 64 21 48 65c-10 30 -25 73 -40 113h-192c-11 -31 -24 -67 -36 -107c-15 -48 -12 -62 61 -71v-35h-224v35c66 8 79 19 112 103l205 514l51 13c64 -175 126 -349 191 -521c34 -88 46 -101 110 -109v-35zM390 266l-74 217h-3c-28 -73 -53 -146 -79 -217
h156zM311 798c19 0 33 -5 63 -18c23 -10 41 -17 61 -17c22 0 37 20 49 43l30 -16c-25 -77 -59 -98 -93 -98c-21 0 -46 11 -70 21c-20 10 -33 15 -53 15c-19 0 -35 -15 -50 -44l-30 20c26 72 60 94 93 94z" />
    <glyph glyph-name="Ccedilla" unicode="&#xc7;" horiz-adv-x="676" 
d="M623 185l37 -14c-15 -55 -38 -126 -55 -158c-23 -6 -98 -24 -166 -26l-11 -12c-11 -12 -9 -21 9 -41c24 -28 38 -49 38 -71c0 -40 -40 -78 -125 -106l-17 31c40 20 61 44 61 60c0 14 -13 27 -21 36c-25 27 -30 42 -12 66l29 36c-246 10 -347 177 -348 331
c-1 206 156 348 400 348c83 0 148 -20 178 -26c8 -55 15 -103 22 -163l-37 -9c-36 117 -98 154 -185 154c-141 0 -224 -130 -224 -283c0 -184 92 -307 224 -307c88 0 153 53 203 154z" />
    <glyph glyph-name="Eacute" unicode="&#xc9;" horiz-adv-x="581" 
d="M535 173l36 -7c-7 -45 -27 -136 -35 -166h-510v35c85 7 95 13 95 98v384c0 87 -10 92 -81 98v35h471c1 -18 6 -88 10 -150l-37 -5c-9 35 -22 68 -40 86c-17 18 -44 25 -100 25h-48c-37 0 -41 -2 -41 -35v-212h67c84 0 98 5 111 75h36v-201h-36c-13 72 -26 76 -111 76h-67
v-173c0 -48 4 -73 24 -83c18 -8 52 -10 90 -10c52 0 87 7 110 32c20 22 38 54 56 98zM455 755l-4 -11l-206 -61l-14 28c57 41 117 83 173 122c18 -7 48 -51 51 -78z" />
    <glyph glyph-name="Ecircumflex" unicode="&#xca;" horiz-adv-x="581" 
d="M535 173l36 -7c-7 -45 -27 -136 -35 -166h-510v35c85 7 95 13 95 98v384c0 87 -10 92 -81 98v35h471c1 -18 6 -88 10 -150l-37 -5c-9 35 -22 68 -40 86c-17 18 -44 25 -100 25h-48c-37 0 -41 -2 -41 -35v-212h67c84 0 98 5 111 75h36v-201h-36c-13 72 -26 76 -111 76h-67
v-173c0 -48 4 -73 24 -83c18 -8 52 -10 90 -10c52 0 87 7 110 32c20 22 38 54 56 98zM442 710l-17 -26c-46 18 -88 41 -131 61c-42 -20 -86 -43 -132 -61l-15 26c44 36 93 84 132 123h30c39 -41 88 -86 133 -123z" />
    <glyph glyph-name="Edieresis" unicode="&#xcb;" horiz-adv-x="581" 
d="M535 173l36 -7c-7 -45 -27 -136 -35 -166h-510v35c85 7 95 13 95 98v384c0 87 -10 92 -81 98v35h471c1 -18 6 -88 10 -150l-37 -5c-9 35 -22 68 -40 86c-17 18 -44 25 -100 25h-48c-37 0 -41 -2 -41 -35v-212h67c84 0 98 5 111 75h36v-201h-36c-13 72 -26 76 -111 76h-67
v-173c0 -48 4 -73 24 -83c18 -8 52 -10 90 -10c52 0 87 7 110 32c20 22 38 54 56 98zM399 828c38 0 67 -29 67 -67c0 -36 -29 -66 -68 -66c-36 0 -67 30 -67 66c0 38 31 67 68 67zM189 828c38 0 67 -29 67 -67c0 -36 -29 -66 -68 -66c-36 0 -67 30 -67 66c0 38 31 67 68 67z
" />
    <glyph glyph-name="Egrave" unicode="&#xc8;" horiz-adv-x="581" 
d="M535 173l36 -7c-7 -45 -27 -136 -35 -166h-510v35c85 7 95 13 95 98v384c0 87 -10 92 -81 98v35h471c1 -18 6 -88 10 -150l-37 -5c-9 35 -22 68 -40 86c-17 18 -44 25 -100 25h-48c-37 0 -41 -2 -41 -35v-212h67c84 0 98 5 111 75h36v-201h-36c-13 72 -26 76 -111 76h-67
v-173c0 -48 4 -73 24 -83c18 -8 52 -10 90 -10c52 0 87 7 110 32c20 22 38 54 56 98zM359 714l-14 -30l-207 58l-2 12c3 22 32 71 51 83c57 -41 115 -82 172 -123z" />
    <glyph glyph-name="Iacute" unicode="&#xcd;" horiz-adv-x="378" 
d="M338 0h-301v35c75 7 84 14 84 98v383c0 86 -9 92 -84 99v35h301v-35c-75 -7 -83 -13 -83 -99v-383c0 -84 8 -91 83 -98v-35zM347 755l-4 -12l-206 -60l-14 28c58 41 117 83 173 122c18 -7 48 -52 51 -78z" />
    <glyph glyph-name="Icircumflex" unicode="&#xce;" horiz-adv-x="378" 
d="M338 0h-301v35c75 7 84 14 84 98v383c0 86 -9 92 -84 99v35h301v-35c-75 -7 -83 -13 -83 -99v-383c0 -84 8 -91 83 -98v-35zM336 710l-16 -26c-47 18 -89 40 -132 61c-42 -21 -85 -43 -131 -61l-16 26c45 36 94 83 132 123h31c39 -42 88 -86 132 -123z" />
    <glyph glyph-name="Idieresis" unicode="&#xcf;" horiz-adv-x="378" 
d="M338 0h-301v35c74 7 84 14 84 98v383c0 86 -10 92 -84 99v35h301v-35c-74 -7 -82 -13 -82 -99v-383c0 -84 8 -91 82 -98v-35zM292 828h2c37 0 67 -29 67 -67c0 -36 -30 -66 -68 -66c-36 0 -67 30 -67 66c0 38 31 67 66 67zM84 828c37 0 67 -29 67 -67
c0 -36 -30 -66 -68 -66c-36 0 -67 30 -67 66c0 38 31 67 68 67z" />
    <glyph glyph-name="Igrave" unicode="&#xcc;" horiz-adv-x="378" 
d="M338 0h-301v35c75 7 84 14 84 98v383c0 86 -9 92 -84 99v35h301v-35c-75 -7 -83 -13 -83 -99v-383c0 -84 8 -91 83 -98v-35zM258 714l-14 -30l-207 58l-3 12c4 22 33 71 51 83c58 -41 115 -82 173 -123z" />
    <glyph glyph-name="Ntilde" unicode="&#xd1;" horiz-adv-x="740" 
d="M724 650v-34c-54 -3 -75 -17 -80 -63c-3 -30 -9 -77 -9 -166v-397h-48l-416 498h-3v-224c0 -88 5 -132 8 -162c5 -45 22 -63 96 -67v-35h-245v35c56 4 79 21 83 63c4 34 10 78 10 166v209c0 65 -1 83 -20 107s-41 32 -84 36v34h185l383 -438h3v175c0 89 -5 136 -8 165
c-5 43 -25 60 -99 64v34h244zM326 798c19 0 32 -5 63 -18c23 -10 41 -17 60 -17c23 0 38 20 50 42l30 -15c-25 -78 -59 -98 -93 -98c-21 0 -46 11 -70 21c-20 10 -33 15 -53 15c-19 0 -35 -15 -50 -44l-30 20c27 72 60 94 93 94z" />
    <glyph glyph-name="Oacute" unicode="&#xd3;" horiz-adv-x="766" 
d="M394 664c182 0 331 -135 331 -332c0 -216 -155 -347 -344 -347c-200 0 -339 147 -339 338c0 172 123 341 352 341zM374 622c-100 0 -178 -106 -178 -279c0 -172 75 -316 203 -316c95 0 172 93 172 277c0 199 -80 318 -197 318zM536 763l-4 -12l-206 -60l-14 28
c58 41 117 83 173 122c18 -7 48 -52 51 -78z" />
    <glyph glyph-name="Ocircumflex" unicode="&#xd4;" horiz-adv-x="766" 
d="M394 664c182 0 331 -135 331 -332c0 -216 -155 -347 -344 -347c-200 0 -339 147 -339 338c0 172 123 341 352 341zM374 622c-100 0 -178 -106 -178 -279c0 -172 75 -316 203 -316c95 0 172 93 172 277c0 199 -80 318 -197 318zM530 718l-16 -26c-47 18 -89 40 -132 61
c-42 -21 -85 -43 -131 -61l-16 26c45 36 94 83 132 123h31c39 -42 88 -86 132 -123z" />
    <glyph glyph-name="Odieresis" unicode="&#xd6;" horiz-adv-x="766" 
d="M394 664c182 0 330 -135 330 -332c0 -216 -155 -347 -343 -347c-200 0 -339 147 -339 338c0 172 123 341 352 341zM374 622c-100 0 -178 -106 -178 -279c0 -172 75 -316 203 -316c95 0 172 93 172 277c0 199 -80 318 -197 318zM488 832c37 0 67 -29 67 -67
c0 -36 -30 -66 -68 -66c-36 0 -67 30 -67 66c0 38 31 67 68 67zM278 832c37 0 67 -29 67 -67c0 -36 -30 -66 -68 -66c-36 0 -67 30 -67 66c0 38 31 67 68 67z" />
    <glyph glyph-name="Ograve" unicode="&#xd2;" horiz-adv-x="766" 
d="M394 664c182 0 331 -135 331 -332c0 -216 -155 -347 -344 -347c-200 0 -339 147 -339 338c0 172 123 341 352 341zM374 622c-100 0 -178 -106 -178 -279c0 -172 75 -316 203 -316c95 0 172 93 172 277c0 199 -80 318 -197 318zM456 722l-14 -30l-207 58l-3 12
c4 22 33 71 51 83c58 -41 115 -82 173 -123z" />
    <glyph glyph-name="Otilde" unicode="&#xd5;" horiz-adv-x="766" 
d="M394 664c182 0 331 -135 331 -332c0 -216 -155 -347 -344 -347c-200 0 -339 147 -339 338c0 172 123 341 352 341zM374 622c-100 0 -178 -106 -178 -279c0 -172 75 -316 203 -316c95 0 172 93 172 277c0 199 -80 318 -197 318zM334 806c19 0 33 -5 64 -18
c23 -10 41 -17 60 -17c23 0 38 20 49 42l30 -15c-24 -78 -58 -98 -92 -98c-21 0 -46 11 -70 21c-20 10 -33 15 -53 15c-19 0 -35 -15 -50 -44l-30 20c27 72 60 94 92 94z" />
    <glyph glyph-name="Scaron" unicode="&#x160;" horiz-adv-x="505" 
d="M442 495l-35 -8c-20 63 -58 137 -139 137c-56 0 -97 -41 -97 -99c0 -55 36 -86 124 -131c105 -51 177 -107 177 -206c0 -114 -97 -203 -243 -203c-36 0 -71 5 -101 14c-28 8 -47 16 -60 22c-10 25 -23 109 -30 169l35 12c20 -64 79 -177 175 -177c61 0 100 42 100 106
c0 59 -44 96 -119 136c-102 52 -174 106 -174 202c0 110 87 196 229 196c64 0 121 -20 139 -26c4 -37 11 -82 19 -144zM393 843l15 -26c-44 -34 -93 -83 -132 -123h-30c-39 42 -88 88 -133 123l17 26c46 -19 88 -38 131 -59c43 21 85 40 132 59z" />
    <glyph glyph-name="Uacute" unicode="&#xda;" horiz-adv-x="729" 
d="M723 650v-35c-54 -3 -79 -24 -84 -59c-5 -31 -9 -68 -9 -139v-109c0 -106 -16 -190 -72 -250c-46 -48 -114 -73 -185 -73c-66 0 -129 14 -177 51c-56 45 -83 119 -83 236v236c0 94 -10 100 -84 107v35h301v-35c-73 -7 -83 -13 -83 -107v-218c0 -150 54 -237 162 -237
c119 0 171 90 171 257v107c0 71 -5 109 -10 139c-6 35 -29 55 -97 59v35h250zM543 755l-4 -12l-206 -60l-14 28c58 41 117 83 173 122c18 -7 48 -52 51 -78z" />
    <glyph glyph-name="Ucircumflex" unicode="&#xdb;" horiz-adv-x="729" 
d="M723 650v-35c-54 -3 -79 -24 -84 -59c-5 -31 -9 -68 -9 -139v-109c0 -106 -16 -190 -72 -250c-46 -48 -114 -73 -185 -73c-66 0 -129 14 -177 51c-56 45 -83 119 -83 236v236c0 94 -10 100 -84 107v35h301v-35c-73 -7 -83 -13 -83 -107v-218c0 -150 54 -237 162 -237
c119 0 171 90 171 257v107c0 71 -5 109 -10 139c-6 35 -29 55 -97 59v35h250zM532 710l-16 -26c-47 18 -89 40 -132 61c-42 -21 -85 -43 -131 -61l-16 26c45 36 94 83 132 123h31c39 -42 88 -86 132 -123z" />
    <glyph glyph-name="Udieresis" unicode="&#xdc;" horiz-adv-x="729" 
d="M723 650v-35c-54 -3 -79 -24 -84 -59c-5 -31 -9 -68 -9 -139v-109c0 -106 -16 -190 -72 -250c-46 -48 -114 -73 -185 -73c-66 0 -129 14 -177 51c-56 45 -83 119 -83 236v236c0 94 -10 100 -84 107v35h301v-35c-73 -7 -83 -13 -83 -107v-218c0 -150 54 -237 162 -237
c119 0 171 90 171 257v107c0 71 -5 109 -10 139c-6 35 -29 55 -97 59v35h250zM489 828c37 0 67 -29 67 -67c0 -36 -30 -66 -68 -66c-36 0 -67 30 -67 66c0 38 31 67 68 67zM279 828c37 0 67 -29 67 -67c0 -36 -30 -66 -68 -66c-36 0 -67 30 -67 66c0 38 31 67 68 67z" />
    <glyph glyph-name="Ugrave" unicode="&#xd9;" horiz-adv-x="729" 
d="M723 650v-35c-54 -3 -79 -24 -84 -59c-5 -31 -9 -68 -9 -139v-109c0 -106 -16 -190 -72 -250c-46 -48 -114 -73 -185 -73c-66 0 -129 14 -177 51c-56 45 -83 119 -83 236v236c0 94 -10 100 -84 107v35h301v-35c-73 -7 -83 -13 -83 -107v-218c0 -150 54 -237 162 -237
c119 0 171 90 171 257v107c0 71 -5 109 -10 139c-6 35 -29 55 -97 59v35h250zM452 714l-14 -30l-207 58l-3 12c4 22 33 71 51 83c58 -41 115 -82 173 -123z" />
    <glyph glyph-name="Yacute" unicode="&#xdd;" horiz-adv-x="655" 
d="M646 650v-35c-63 -7 -83 -25 -120 -84s-63 -102 -112 -196c-14 -27 -18 -38 -18 -69v-128c0 -91 8 -97 97 -104v-34h-325v34c85 7 94 13 94 104v111c0 25 -4 35 -13 55c-27 54 -64 121 -124 227c-37 66 -54 76 -109 84v35h285v-35c-65 -9 -64 -21 -47 -57
c35 -70 76 -144 115 -218c29 57 80 151 104 212c16 40 15 54 -59 63v35h232zM510 755l-4 -12l-207 -60l-14 28c57 41 117 83 173 122c19 -7 48 -52 52 -78z" />
    <glyph glyph-name="Ydieresis" unicode="&#x178;" horiz-adv-x="655" 
d="M646 650v-35c-63 -7 -83 -25 -120 -84s-63 -102 -111 -196c-15 -27 -18 -38 -18 -69v-128c0 -91 7 -97 96 -104v-34h-324v34c84 7 94 13 94 104v111c0 25 -4 35 -14 55c-27 54 -64 121 -124 227c-37 66 -54 76 -109 84v35h285v-35c-65 -9 -64 -21 -47 -57
c35 -70 76 -144 115 -218c29 57 80 151 104 212c16 40 15 54 -59 63v35h232zM449 828c38 0 67 -29 67 -67c0 -36 -29 -66 -68 -66c-36 0 -67 30 -67 66c0 38 31 67 68 67zM238 828c38 0 68 -29 68 -67c0 -36 -30 -66 -69 -66c-35 0 -66 30 -66 66c0 38 31 67 67 67z" />
    <glyph glyph-name="Zcaron" unicode="&#x17d;" horiz-adv-x="619" 
d="M574 193l33 -8c-8 -49 -26 -150 -36 -185h-531l-11 17c128 194 257 395 381 588h-126c-102 0 -121 -11 -137 -35c-12 -18 -28 -48 -39 -95l-33 1c3 77 9 147 11 199h26c15 -23 26 -25 58 -25h406l8 -15c-125 -195 -249 -385 -374 -584c33 -4 61 -6 124 -6
c78 0 148 6 177 33c24 23 41 53 63 115zM459 830l15 -26c-44 -34 -93 -83 -132 -123h-30c-39 42 -89 88 -133 123l16 26c46 -19 89 -38 132 -59c43 21 85 40 132 59z" />
    <glyph glyph-name="aacute" unicode="&#xe1;" horiz-adv-x="466" 
d="M465 45l-109 -57c-27 0 -48 9 -61 21c-14 12 -21 25 -25 37c-38 -25 -85 -58 -105 -58c-84 0 -135 66 -135 128c0 52 24 76 76 96c59 22 136 46 159 66v30c0 63 -24 98 -60 98c-14 0 -25 -6 -34 -18c-11 -14 -20 -38 -28 -69c-7 -26 -22 -34 -42 -34c-27 0 -63 24 -63 50
c0 18 13 31 35 48c38 26 109 60 166 71c41 0 71 -9 98 -29c43 -33 52 -76 52 -132v-165c0 -47 15 -59 32 -59c12 0 23 3 34 8zM265 79v160c-18 -10 -34 -20 -55 -31c-31 -16 -47 -34 -47 -69c0 -55 37 -76 60 -76c15 0 26 4 42 16zM218 489l-31 14c13 44 42 143 49 164
c10 7 92 16 109 12l6 -11z" />
    <glyph glyph-name="acircumflex" unicode="&#xe2;" horiz-adv-x="466" 
d="M465 45l-109 -57c-27 0 -48 9 -61 21c-14 12 -21 25 -25 37c-38 -25 -85 -58 -105 -58c-84 0 -135 66 -135 128c0 52 24 76 76 96c59 22 136 46 159 66v30c0 63 -24 98 -60 98c-14 0 -25 -6 -34 -18c-11 -14 -20 -38 -28 -69c-7 -26 -22 -34 -42 -34c-27 0 -63 24 -63 50
c0 18 13 31 35 48c38 26 109 60 166 71c41 0 71 -9 98 -29c43 -33 52 -76 52 -132v-165c0 -47 15 -59 32 -59c12 0 23 3 34 8zM265 79v160c-18 -10 -34 -20 -55 -31c-31 -16 -47 -34 -47 -69c0 -55 37 -76 60 -76c15 0 26 4 42 16zM352 506l-28 -22c-38 31 -68 63 -99 92
c-30 -29 -60 -62 -98 -92l-27 22c41 61 71 110 106 173h38c35 -63 66 -112 108 -173z" />
    <glyph glyph-name="adieresis" unicode="&#xe4;" horiz-adv-x="466" 
d="M465 45l-109 -57c-28 0 -48 9 -61 21c-14 12 -21 25 -26 37c-38 -25 -84 -58 -103 -58c-85 0 -136 66 -136 128c0 52 24 76 77 96c58 22 135 46 158 66v30c0 63 -24 98 -60 98c-14 0 -25 -6 -34 -18c-11 -14 -20 -38 -28 -69c-7 -26 -22 -34 -42 -34c-26 0 -62 24 -62 50
c0 18 12 31 34 48c39 26 109 60 166 71c41 0 70 -9 98 -29c43 -33 52 -76 52 -132v-165c0 -47 15 -59 32 -59c12 0 23 3 34 8zM265 79v160c-18 -10 -35 -20 -55 -31c-30 -16 -47 -34 -47 -69c0 -55 37 -76 60 -76c14 0 25 4 42 16zM121 519c-35 0 -67 30 -67 66
c0 38 32 67 68 67c38 0 67 -29 67 -67c0 -36 -29 -66 -68 -66zM326 519c-35 0 -66 30 -66 66c0 38 31 67 67 67c38 0 68 -29 68 -67c0 -36 -30 -66 -69 -66z" />
    <glyph glyph-name="agrave" unicode="&#xe0;" horiz-adv-x="466" 
d="M465 45l-109 -57c-27 0 -48 9 -61 21c-14 12 -21 25 -25 37c-38 -25 -85 -58 -105 -58c-84 0 -135 66 -135 128c0 52 24 76 76 96c59 22 136 46 159 66v30c0 63 -24 98 -60 98c-14 0 -25 -6 -34 -18c-11 -14 -20 -38 -28 -69c-7 -26 -22 -34 -42 -34c-27 0 -63 24 -63 50
c0 18 13 31 35 48c38 26 109 60 166 71c41 0 71 -9 98 -29c43 -33 52 -76 52 -132v-165c0 -47 15 -59 32 -59c12 0 23 3 34 8zM265 79v160c-18 -10 -34 -20 -55 -31c-31 -16 -47 -34 -47 -69c0 -55 37 -76 60 -76c15 0 26 4 42 16zM270 502l-31 -13
c-49 61 -101 122 -129 156l4 14c15 10 82 23 102 20c19 -59 37 -117 54 -177z" />
    <glyph glyph-name="aring" unicode="&#xe5;" horiz-adv-x="466" 
d="M465 45l-108 -57c-28 0 -48 9 -62 21s-21 25 -25 37c-38 -25 -85 -58 -105 -58c-84 0 -135 66 -135 128c0 52 24 76 76 96c59 22 136 46 159 66v30c0 63 -24 98 -60 98c-14 0 -25 -6 -34 -18c-11 -14 -20 -38 -28 -69c-7 -26 -22 -34 -42 -34c-27 0 -63 24 -63 50
c0 18 13 31 35 48c38 26 109 60 166 71c41 0 71 -9 98 -29c43 -33 52 -76 52 -132v-165c0 -47 15 -59 32 -59c12 0 23 3 34 8zM265 79v160c-17 -10 -34 -20 -55 -31c-30 -16 -47 -34 -47 -69c0 -55 37 -76 61 -76c14 0 25 4 41 16zM226 499c-48 0 -95 35 -95 92
c0 55 47 90 96 90c47 0 95 -35 95 -90c0 -57 -48 -92 -96 -92zM228 538c26 0 43 21 43 53c0 29 -17 50 -44 50c-25 0 -46 -21 -46 -50c0 -32 21 -53 47 -53z" />
    <glyph glyph-name="atilde" unicode="&#xe3;" horiz-adv-x="466" 
d="M465 45l-109 -57c-27 0 -48 9 -61 21c-14 12 -21 25 -25 37c-38 -25 -85 -58 -105 -58c-84 0 -135 66 -135 128c0 52 24 76 76 96c59 22 136 46 159 66v30c0 63 -24 98 -60 98c-14 0 -25 -6 -34 -18c-11 -14 -20 -38 -28 -69c-7 -26 -22 -34 -42 -34c-27 0 -63 24 -63 50
c0 18 13 31 35 48c38 26 109 60 166 71c41 0 71 -9 98 -29c43 -33 52 -76 52 -132v-165c0 -47 15 -59 32 -59c12 0 23 3 34 8zM265 79v160c-18 -10 -34 -20 -55 -31c-31 -16 -47 -34 -47 -69c0 -55 37 -76 60 -76c15 0 26 4 42 16zM110 512l-29 19c23 71 56 105 93 105
c17 0 32 -5 62 -21c24 -12 40 -20 58 -20c21 0 38 23 50 47l28 -15c-26 -88 -63 -106 -87 -106c-23 0 -44 10 -67 22c-24 14 -37 20 -56 20c-18 0 -36 -14 -52 -51z" />
    <glyph glyph-name="ccedilla" unicode="&#xe7;" horiz-adv-x="422" 
d="M401 121l19 -24c-39 -55 -90 -93 -149 -104l-14 -19c-10 -11 -4 -21 14 -40c23 -28 35 -49 35 -71c0 -41 -44 -79 -123 -103l-15 28c38 20 62 42 62 60c0 14 -11 27 -20 36c-25 27 -30 42 -10 65l31 39c-124 9 -201 97 -201 212c0 73 38 144 102 191c66 49 128 63 169 63
c28 0 69 -10 89 -25c13 -10 16 -21 16 -32c-1 -31 -29 -59 -43 -59c-7 0 -14 3 -23 11c-39 37 -73 51 -102 51c-38 0 -82 -39 -82 -147c0 -133 94 -176 137 -176c41 0 69 13 108 44z" />
    <glyph glyph-name="eacute" unicode="&#xe9;" horiz-adv-x="437" 
d="M400 123l17 -24c-60 -91 -138 -111 -180 -111c-134 0 -207 99 -207 214c0 76 32 139 74 181c44 44 99 71 153 71h1c93 0 163 -79 163 -161c-1 -20 -7 -33 -29 -36c-18 -3 -141 -12 -239 -16c4 -107 63 -161 135 -161c39 0 77 13 112 43zM237 414c-39 0 -73 -47 -80 -126
c42 1 79 2 120 3c15 0 21 3 21 20c1 51 -22 103 -61 103zM233 489l-31 14c13 44 42 143 49 164c10 7 92 16 109 12l6 -11z" />
    <glyph glyph-name="ecircumflex" unicode="&#xea;" horiz-adv-x="437" 
d="M400 123l17 -24c-60 -91 -138 -111 -180 -111c-134 0 -207 99 -207 214c0 76 32 139 74 181c44 44 99 71 153 71h1c93 0 163 -79 163 -161c-1 -20 -7 -33 -29 -36c-18 -3 -141 -12 -239 -16c4 -107 63 -161 135 -161c39 0 77 13 112 43zM237 414c-39 0 -73 -47 -80 -126
c42 1 79 2 120 3c15 0 21 3 21 20c1 51 -22 103 -61 103zM359 506l-28 -22c-38 31 -68 63 -99 92c-30 -29 -60 -62 -98 -92l-27 22c41 61 71 110 106 173h38c35 -63 66 -112 108 -173z" />
    <glyph glyph-name="edieresis" unicode="&#xeb;" horiz-adv-x="437" 
d="M399 123l18 -24c-60 -91 -138 -111 -180 -111c-134 0 -207 99 -207 214c0 76 31 139 74 181c44 44 99 71 153 71h1c93 0 163 -79 163 -161c-1 -20 -7 -33 -30 -36c-18 -3 -140 -12 -238 -16c4 -107 63 -161 135 -161c39 0 76 13 111 43zM237 414c-39 0 -73 -47 -79 -126
c41 1 78 2 119 3c15 0 21 3 21 20c0 51 -22 103 -61 103zM126 519c-35 0 -66 30 -66 66c0 38 31 67 67 67c38 0 68 -29 68 -67c0 -36 -30 -66 -69 -66zM333 519c-36 0 -67 30 -67 66c0 38 31 67 68 67c38 0 67 -29 67 -67c0 -36 -29 -66 -68 -66z" />
    <glyph glyph-name="egrave" unicode="&#xe8;" horiz-adv-x="437" 
d="M400 123l17 -24c-60 -91 -138 -111 -180 -111c-134 0 -207 99 -207 214c0 76 32 139 74 181c44 44 99 71 153 71h1c93 0 163 -79 163 -161c-1 -20 -7 -33 -29 -36c-18 -3 -141 -12 -239 -16c4 -107 63 -161 135 -161c39 0 77 13 112 43zM237 414c-39 0 -73 -47 -80 -126
c42 1 79 2 120 3c15 0 21 3 21 20c1 51 -22 103 -61 103zM273 502l-31 -13c-49 61 -101 122 -129 156l4 14c15 10 82 23 102 20c19 -59 37 -117 54 -177z" />
    <glyph glyph-name="iacute" unicode="&#xed;" horiz-adv-x="295" 
d="M283 0h-254v33c57 6 63 17 63 89v190c0 59 -1 68 -55 76v30c60 7 127 20 183 36v-332c0 -75 3 -81 63 -89v-33zM147 489l-31 14c13 44 42 143 49 164c10 7 92 16 109 12l6 -11z" />
    <glyph glyph-name="icircumflex" unicode="&#xee;" horiz-adv-x="295" 
d="M283 0h-254v33c57 6 63 17 63 89v190c0 59 -1 68 -55 76v30c60 7 127 20 183 36v-332c0 -75 3 -81 63 -89v-33zM273 506l-28 -22c-38 31 -68 63 -99 92c-30 -29 -60 -62 -98 -92l-27 22c41 61 71 110 106 173h38c35 -63 66 -112 108 -173z" />
    <glyph glyph-name="idieresis" unicode="&#xef;" horiz-adv-x="295" 
d="M284 0h-254v33c57 6 63 17 63 89v190c0 59 -2 68 -56 76v30c61 7 128 20 184 36v-332c0 -75 3 -81 63 -89v-33zM40 519c-35 0 -66 30 -66 66c0 38 31 67 67 67c38 0 68 -29 68 -67c0 -36 -30 -66 -69 -66zM246 519c-35 0 -66 30 -66 66c0 38 31 67 67 67
c38 0 68 -29 68 -67c0 -36 -30 -66 -69 -66z" />
    <glyph glyph-name="igrave" unicode="&#xec;" horiz-adv-x="295" 
d="M283 0h-254v33c57 6 63 17 63 89v190c0 59 -1 68 -55 76v30c60 7 127 20 183 36v-332c0 -75 3 -81 63 -89v-33zM184 502l-31 -13c-49 61 -101 122 -129 156l4 14c15 10 82 23 102 20c19 -59 37 -117 54 -177z" />
    <glyph glyph-name="ntilde" unicode="&#xf1;" horiz-adv-x="566" 
d="M549 0h-233v32c42 6 47 10 47 81v170c0 72 -33 94 -69 94c-26 0 -48 -11 -74 -31v-242c0 -62 5 -66 47 -72v-32h-241v32c62 9 66 10 66 77v208c0 60 -5 63 -53 73v28c56 7 122 21 181 38v-73c20 13 40 29 62 43c30 19 49 28 78 28c81 0 131 -60 131 -160v-189
c0 -63 6 -65 58 -73v-32zM167 512l-28 19c23 71 56 105 93 105c17 0 32 -5 62 -21c24 -12 40 -20 58 -20c21 0 38 23 50 47l28 -15c-26 -88 -63 -106 -87 -106c-23 0 -45 10 -68 22c-24 14 -37 20 -56 20c-18 0 -36 -14 -52 -51z" />
    <glyph glyph-name="oacute" unicode="&#xf3;" horiz-adv-x="525" 
d="M269 454c139 0 227 -105 227 -225c0 -161 -115 -241 -232 -241c-157 0 -234 114 -234 223c0 161 127 243 239 243zM254 415c-41 0 -81 -54 -81 -168c0 -123 39 -220 102 -220c38 0 78 24 78 172c0 139 -35 216 -99 216zM260 489l-31 14c13 44 42 143 49 164
c10 7 92 16 109 12l6 -11z" />
    <glyph glyph-name="ocircumflex" unicode="&#xf4;" horiz-adv-x="525" 
d="M269 454c139 0 227 -105 227 -225c0 -161 -115 -241 -232 -241c-157 0 -234 114 -234 223c0 161 127 243 239 243zM254 415c-41 0 -81 -54 -81 -168c0 -123 39 -220 102 -220c38 0 78 24 78 172c0 139 -35 216 -99 216zM388 506l-28 -22c-38 31 -68 63 -99 92
c-30 -29 -60 -62 -98 -92l-27 22c41 61 71 110 106 173h38c35 -63 66 -112 108 -173z" />
    <glyph glyph-name="odieresis" unicode="&#xf6;" horiz-adv-x="525" 
d="M269 454c139 0 227 -105 227 -225c0 -161 -115 -241 -232 -241c-157 0 -235 114 -235 223c0 161 127 243 240 243zM254 415c-42 0 -82 -54 -82 -168c0 -123 40 -220 103 -220c38 0 78 24 78 172c0 139 -35 216 -99 216zM159 519c-35 0 -67 30 -67 66c0 38 32 67 68 67
c38 0 67 -29 67 -67c0 -36 -29 -66 -68 -66zM364 519c-35 0 -66 30 -66 66c0 38 31 67 67 67c38 0 68 -29 68 -67c0 -36 -30 -66 -69 -66z" />
    <glyph glyph-name="ograve" unicode="&#xf2;" horiz-adv-x="525" 
d="M269 454c139 0 227 -105 227 -225c0 -161 -115 -241 -232 -241c-157 0 -234 114 -234 223c0 161 127 243 239 243zM254 415c-41 0 -81 -54 -81 -168c0 -123 39 -220 102 -220c38 0 78 24 78 172c0 139 -35 216 -99 216zM298 502l-31 -13c-49 61 -101 122 -129 156l4 14
c15 10 82 23 102 20c19 -59 37 -117 54 -177z" />
    <glyph glyph-name="otilde" unicode="&#xf5;" horiz-adv-x="525" 
d="M269 454c139 0 227 -105 227 -225c0 -161 -115 -241 -232 -241c-157 0 -234 114 -234 223c0 161 127 243 239 243zM254 415c-41 0 -81 -54 -81 -168c0 -123 39 -220 102 -220c38 0 78 24 78 172c0 139 -35 216 -99 216zM144 512l-29 19c23 71 56 105 93 105
c17 0 32 -5 62 -21c24 -12 40 -20 58 -20c21 0 38 23 50 47l28 -15c-26 -88 -63 -106 -87 -106c-23 0 -44 10 -67 22c-24 14 -38 20 -56 20s-36 -14 -52 -51z" />
    <glyph glyph-name="scaron" unicode="&#x161;" horiz-adv-x="383" 
d="M338 322l-30 -9c-27 61 -59 102 -106 102c-26 0 -51 -22 -51 -54c0 -31 23 -54 74 -77c81 -35 135 -70 135 -148c0 -99 -95 -148 -179 -148c-53 0 -105 19 -126 34c-6 16 -15 86 -15 134l29 3c22 -63 69 -132 130 -132c32 0 54 24 54 54c0 29 -14 54 -75 83
c-47 23 -128 62 -128 148c0 78 63 141 168 142c46 0 73 -8 96 -18c10 -23 22 -94 24 -114zM299 688l27 -22c-41 -60 -71 -110 -106 -172h-38c-35 63 -66 112 -107 172l27 22c38 -30 68 -61 99 -92c31 29 60 62 98 92z" />
    <glyph glyph-name="uacute" unicode="&#xfa;" horiz-adv-x="555" 
d="M542 56v-32c-29 -4 -57 -9 -90 -16c-32 -6 -63 -13 -93 -20l-9 7v60c-17 -14 -28 -24 -50 -37c-28 -19 -55 -30 -86 -30c-83 0 -131 54 -131 142v207c0 46 -6 51 -32 58l-23 7v29c25 1 56 4 90 7c33 3 69 7 96 11c-3 -42 -3 -93 -3 -151v-145c0 -65 34 -88 68 -88
c27 0 49 6 71 28v243c0 47 -5 53 -32 59l-31 7v29c29 1 64 4 100 7c35 3 68 7 91 11v-325c0 -52 5 -62 42 -66zM270 489l-31 13c13 44 42 144 49 165c10 7 91 15 108 11l6 -10z" />
    <glyph glyph-name="ucircumflex" unicode="&#xfb;" horiz-adv-x="555" 
d="M542 56v-32c-29 -4 -57 -9 -90 -16c-32 -6 -63 -13 -93 -20l-9 7v60c-17 -14 -28 -24 -50 -37c-28 -19 -55 -30 -86 -30c-83 0 -131 54 -131 142v207c0 46 -6 51 -32 58l-23 7v29c25 1 56 4 90 7c33 3 69 7 96 11c-3 -42 -3 -93 -3 -151v-145c0 -65 34 -88 68 -88
c27 0 49 6 71 28v243c0 47 -5 53 -32 59l-31 7v29c29 1 64 4 100 7c35 3 68 7 91 11v-325c0 -52 5 -62 42 -66zM399 506l-28 -22c-38 31 -67 62 -98 92c-31 -30 -60 -62 -98 -92l-27 22c41 60 71 110 106 173h37c36 -64 66 -113 108 -173z" />
    <glyph glyph-name="udieresis" unicode="&#xfc;" horiz-adv-x="555" 
d="M542 56v-32c-29 -4 -57 -9 -90 -16c-32 -6 -63 -13 -93 -20l-9 7v60c-17 -14 -28 -24 -50 -37c-28 -19 -55 -30 -86 -30c-83 0 -131 54 -131 142v207c0 46 -6 51 -32 58l-23 7v29c25 1 56 4 90 7c33 3 69 7 96 11c-3 -42 -3 -93 -3 -151v-145c0 -65 34 -88 68 -88
c27 0 49 6 71 28v243c0 47 -5 53 -32 59l-31 7v29c29 1 64 4 100 7c35 3 68 7 91 11v-325c0 -52 5 -62 42 -66zM166 519c-35 0 -67 30 -67 66c0 38 32 67 68 67c38 0 67 -29 67 -67c0 -36 -29 -66 -68 -66zM371 519c-36 0 -67 30 -67 66c0 38 31 67 68 67s67 -29 67 -67
c0 -36 -30 -66 -68 -66z" />
    <glyph glyph-name="ugrave" unicode="&#xf9;" horiz-adv-x="555" 
d="M542 56v-32c-29 -4 -57 -9 -90 -16c-32 -6 -63 -13 -93 -20l-9 7v60c-17 -14 -28 -24 -50 -37c-28 -19 -55 -30 -86 -30c-83 0 -131 54 -131 142v207c0 46 -6 51 -32 58l-23 7v29c25 1 56 4 90 7c33 3 69 7 96 11c-3 -42 -3 -93 -3 -151v-145c0 -65 34 -88 68 -88
c27 0 49 6 71 28v243c0 47 -5 53 -32 59l-31 7v29c29 1 64 4 100 7c35 3 68 7 91 11v-325c0 -52 5 -62 42 -66zM313 502l-31 -13c-49 60 -101 122 -129 156l5 13c14 11 81 23 101 20c19 -59 37 -117 54 -176z" />
    <glyph glyph-name="yacute" unicode="&#xfd;" horiz-adv-x="465" 
d="M483 442v-32c-48 -8 -58 -18 -83 -72c-25 -53 -58 -136 -116 -275c-68 -162 -88 -225 -105 -281c-7 -22 -21 -27 -37 -27c-28 0 -71 28 -71 64c0 16 7 25 28 38c39 21 62 40 81 72c10 18 16 30 19 41c5 16 3 31 -3 48c-52 144 -107 286 -126 330c-18 43 -30 55 -77 62v32
h247v-32c-43 -9 -50 -14 -39 -47l75 -221c23 56 57 156 75 213c11 33 1 46 -48 55v32h180zM250 489l-31 14c13 44 42 143 49 164c10 7 92 16 109 12l6 -11z" />
    <glyph glyph-name="ydieresis" unicode="&#xff;" horiz-adv-x="465" 
d="M483 442v-32c-48 -8 -58 -18 -83 -72c-25 -53 -58 -136 -116 -275c-68 -162 -88 -225 -105 -281c-7 -22 -21 -27 -37 -27c-28 0 -71 28 -71 64c0 16 7 25 28 38c39 21 62 40 81 72c10 18 16 30 19 41c5 16 3 31 -3 48c-52 144 -107 286 -126 330c-18 43 -30 55 -77 62v32
h247v-32c-43 -9 -50 -14 -39 -47l75 -221c23 56 57 156 75 213c11 33 1 46 -48 55v32h180zM141 519c-36 0 -67 30 -67 66c0 38 31 67 68 67s67 -29 67 -67c0 -36 -30 -66 -68 -66zM346 519c-36 0 -67 30 -67 66c0 38 31 67 68 67s67 -29 67 -67c0 -36 -30 -66 -68 -66z" />
    <glyph glyph-name="zcaron" unicode="&#x17e;" horiz-adv-x="445" 
d="M410 152l29 -14c-19 -56 -35 -107 -47 -138h-355l-13 16c82 131 149 249 225 383h-52c-67 0 -91 -15 -120 -71l-17 -33l-30 13c14 49 30 111 40 156h22c8 -16 22 -22 61 -23h245l9 -13c-77 -131 -143 -249 -220 -384h64c70 0 104 13 142 80zM325 689l27 -22
c-41 -60 -70 -111 -106 -173h-38c-34 63 -66 113 -107 173l27 22c38 -31 68 -62 100 -92c30 29 60 61 97 92z" />
    <glyph glyph-name="twodotenleader" unicode="&#x2025;" horiz-adv-x="517" 
d="M124 -12c-44 0 -77 33 -77 81c0 46 33 79 78 79s78 -33 78 -79c0 -48 -33 -81 -79 -81zM390 -12c-44 0 -77 33 -77 81c0 46 33 79 78 79c46 0 79 -33 79 -79c0 -48 -33 -81 -80 -81z" />
    <glyph glyph-name="onedotenleader" unicode="&#x2024;" horiz-adv-x="500" 
d="M249 -12c-44 0 -77 33 -77 81c0 46 33 79 78 79s78 -33 78 -79c0 -48 -33 -81 -79 -81z" />
    <glyph glyph-name="colonmonetary" unicode="&#x20a1;" horiz-adv-x="500" 
d="M479 473l-33 -5c-10 38 -19 73 -44 91l-72 -520c59 5 85 40 122 122l31 -10c-10 -48 -28 -104 -39 -128c-19 -7 -73 -22 -120 -23l-10 -69h-34l10 71c-20 2 -30 3 -46 8l-12 -78h-35l13 87c-117 39 -176 145 -176 285c0 191 115 306 259 317l9 62h35l-8 -60h6
c13 0 22 -1 41 -3l9 63h35l-10 -71c17 -4 36 -9 53 -13c7 -41 12 -82 16 -126zM295 41l75 535c-17 8 -28 10 -46 9l-73 -524c15 -11 29 -16 44 -20zM219 85l69 497c-62 -18 -118 -119 -118 -275c0 -104 21 -190 49 -222z" />
    <glyph glyph-name="figuredash" unicode="&#x2012;" horiz-adv-x="459" 
d="M423 285h-387v66h387v-66z" />
    <glyph glyph-name="oneeighth" unicode="&#x215b;" horiz-adv-x="789" 
d="M287 278h-218v29c50 5 61 14 61 65v154c0 38 -2 46 -35 49l-25 2v29c46 4 102 14 158 29v-263c0 -52 10 -61 59 -65v-29zM599 621l-406 -661l-38 29l404 659zM586 358c70 0 117 -37 117 -84c0 -14 -5 -32 -17 -44c-9 -8 -21 -17 -46 -31c37 -16 81 -44 81 -97
c0 -73 -77 -109 -144 -109c-71 0 -135 34 -135 97c0 23 12 39 28 52c13 12 33 22 47 29c-33 19 -63 44 -63 86c0 55 52 101 132 101zM577 326c-29 0 -43 -21 -42 -41c0 -30 31 -51 77 -71c8 7 20 28 20 49c0 45 -33 63 -55 63zM585 25c33 0 53 26 53 49c-2 38 -36 57 -93 82
c-12 -10 -27 -32 -27 -61c0 -44 33 -70 67 -70z" />
    <glyph glyph-name="threeeighths" unicode="&#x215c;" horiz-adv-x="789" 
d="M231 486v-2c63 -9 96 -38 96 -82c0 -90 -129 -132 -182 -132c-31 0 -63 13 -73 22c-8 8 -12 20 -7 33c5 15 16 25 25 31c6 3 15 3 23 -3c22 -19 50 -42 75 -42c21 0 44 18 43 65c0 50 -31 70 -67 70c-15 0 -29 -3 -39 -6l-7 29c55 18 86 42 86 69c0 23 -19 39 -43 38
c-30 0 -55 -20 -70 -38l-18 18l33 44c18 18 52 35 91 35h1c67 0 105 -39 104 -78c0 -16 -9 -32 -19 -41c-9 -7 -29 -19 -52 -30zM598 621l-406 -661l-38 29l404 659zM585 357h2c70 0 117 -36 117 -84c0 -14 -5 -31 -18 -43c-9 -8 -21 -17 -45 -31c37 -16 80 -44 80 -97
c0 -72 -77 -109 -144 -109c-71 0 -135 34 -135 97c0 23 12 39 28 52c13 12 33 22 47 29c-33 19 -63 44 -63 85c0 55 52 101 131 101zM577 326c-28 0 -42 -22 -42 -41c0 -30 31 -51 78 -71c8 7 20 28 20 49c0 45 -34 63 -56 63zM586 25c33 0 52 26 52 49c-1 38 -35 57 -92 82
c-12 -10 -27 -32 -27 -61c0 -43 33 -70 67 -70z" />
    <glyph glyph-name="fiveeighths" unicode="&#x215d;" horiz-adv-x="789" 
d="M139 559l-14 -73c23 8 58 17 78 17c82 0 122 -45 122 -96c0 -36 -19 -69 -60 -96c-37 -23 -83 -40 -127 -41c-22 0 -52 11 -63 20s-15 19 -11 32c5 11 14 24 23 30c8 6 18 6 27 -2c12 -11 42 -39 70 -38c30 0 46 26 46 60c0 49 -37 76 -87 76c-23 0 -45 -6 -63 -11
l27 192h203l-15 -70h-156zM599 621l-406 -661l-38 29l404 659zM587 358c70 0 117 -37 117 -84c0 -14 -5 -32 -17 -44c-10 -8 -22 -17 -46 -31c37 -16 80 -44 80 -97c0 -73 -76 -109 -144 -109c-71 0 -135 34 -135 97c0 23 12 39 29 52c13 12 33 22 46 29
c-32 19 -62 44 -62 86c0 55 52 101 132 101zM577 326c-28 0 -42 -21 -42 -41c0 -30 31 -51 78 -71c8 7 20 28 20 49c0 46 -34 63 -56 63zM586 25c33 0 53 26 52 49c-1 38 -35 57 -92 82c-12 -10 -27 -32 -27 -61c0 -44 33 -70 67 -70z" />
    <glyph glyph-name="seveneighths" unicode="&#x215e;" horiz-adv-x="789" 
d="M352 629l5 -10c-58 -113 -118 -228 -174 -341l-65 -7l-7 10c63 93 123 187 175 279h-115c-42 0 -47 -3 -63 -37h-27c8 55 12 82 16 106h255zM570 621l-406 -661l-38 29l404 659zM569 357c70 0 117 -36 117 -84c0 -14 -5 -31 -17 -43c-10 -8 -22 -17 -46 -31
c37 -16 80 -44 80 -97c0 -72 -76 -109 -144 -109c-71 0 -135 34 -135 97c0 23 12 39 28 53c13 11 33 21 47 28c-33 19 -63 44 -63 85c0 55 52 101 133 101zM559 326c-28 0 -42 -22 -42 -41c0 -30 31 -51 78 -71c8 7 20 28 20 49c0 45 -33 63 -56 63zM568 25
c33 0 53 26 53 49c-2 38 -36 57 -93 82c-12 -10 -27 -32 -27 -61c0 -43 33 -70 67 -70z" />
    <glyph glyph-name="onethird" unicode="&#x2153;" horiz-adv-x="789" 
d="M288 278h-219v29c50 5 61 14 61 65v154c0 38 -2 46 -35 49l-25 2v29c46 4 102 14 158 29v-263c0 -52 10 -61 60 -65v-29zM603 621l-406 -661l-38 28l404 660zM620 208l-1 -2c64 -9 97 -38 97 -82c0 -91 -130 -132 -182 -132c-31 0 -63 12 -74 22c-8 8 -12 19 -7 32
c6 16 16 26 26 31c5 3 14 4 22 -3c22 -19 51 -42 75 -42c21 0 44 18 44 66c0 50 -31 70 -66 70c-15 0 -29 -3 -39 -6l-7 29c55 18 86 42 86 69c0 23 -19 39 -44 39c-30 0 -54 -20 -70 -39l-18 19l33 44c18 18 52 35 91 35h1c68 0 105 -39 105 -79c0 -16 -9 -32 -19 -41
c-10 -7 -29 -19 -53 -30z" />
    <glyph glyph-name="twothirds" unicode="&#x2154;" horiz-adv-x="789" 
d="M316 387l25 -8c-12 -34 -19 -67 -27 -101h-258v27c65 49 159 130 159 199c0 42 -22 65 -58 65c-34 0 -62 -25 -81 -49l-21 20l35 48c23 29 65 47 102 47c70 0 123 -41 123 -109c0 -49 -34 -83 -109 -143l-43 -34v-2h90c35 0 43 5 63 40zM626 621l-406 -661l-38 28
l404 660zM634 208v-2c64 -9 97 -39 97 -82c0 -91 -130 -132 -182 -132c-31 0 -63 12 -74 22c-8 7 -12 19 -7 32c6 16 16 26 26 31c5 3 14 4 22 -3c22 -19 51 -42 75 -42c21 0 44 18 44 66c0 50 -31 70 -66 70c-16 0 -30 -3 -40 -6l-7 29c56 18 86 42 86 69
c0 24 -19 39 -44 39c-29 0 -54 -20 -70 -39l-18 19l34 44c18 18 51 35 90 35h1c68 0 105 -39 105 -79c0 -16 -9 -32 -20 -40c-9 -8 -29 -20 -52 -31z" />
    <glyph glyph-name="Aringacute" unicode="&#x1fa;" horiz-adv-x="706" 
d="M687 0h-286v35c59 9 64 21 48 65c-10 30 -25 73 -40 113h-192c-11 -31 -24 -67 -36 -107c-15 -48 -12 -62 61 -71v-35h-224v35c66 8 79 19 112 103l205 514l51 13c64 -175 126 -349 191 -521c34 -88 46 -101 110 -109v-35zM390 266l-74 217h-3c-28 -73 -53 -146 -79 -217
h156zM354 863c46 0 94 -34 94 -89c0 -56 -48 -91 -95 -91c-49 0 -95 35 -95 91c0 55 46 89 96 89zM353 825c-26 0 -46 -22 -46 -51c0 -31 20 -53 47 -53s44 22 44 53c0 29 -17 51 -45 51zM505 946l-4 -12l-206 -60l-14 28c58 41 117 83 173 122c18 -7 48 -52 51 -78z" />
    <glyph glyph-name="R_p" unicode="&#xf6dd;" horiz-adv-x="986" 
d="M686 379l75 48c9 5 20 7 35 7c99 0 150 -96 150 -188c0 -138 -103 -231 -209 -258c-23 0 -37 5 -51 11v-118c0 -50 1 -63 66 -68v-34h-244v34c52 5 55 18 55 66v112l-18 1c-107 6 -141 33 -175 88c-27 45 -51 99 -74 150c-14 31 -23 39 -45 39h-13v-132
c0 -84 4 -97 69 -103v-34h-261v34c65 6 68 19 68 103v348c0 87 -3 99 -64 105v33h239c76 0 119 -9 153 -32c35 -24 58 -69 58 -124c0 -80 -44 -133 -105 -161c12 -27 42 -90 67 -134c29 -50 52 -86 70 -111c15 -19 23 -26 31 -31v277c0 47 0 53 -47 61v32
c53 8 113 23 170 44v-65zM238 310h20c33 0 53 7 72 24c30 27 40 61 40 117c0 103 -51 131 -93 131c-36 0 -39 -7 -39 -42v-230zM686 343v-276c18 -17 42 -30 69 -30c31 0 70 42 70 162c0 121 -52 161 -92 161c-21 0 -31 -7 -47 -17z" />
    <glyph glyph-name="K.alt" unicode="&#xe03a;" horiz-adv-x="694" 
d="M710 -16l-11 -32c-17 0 -48 3 -82 11c-73 16 -112 41 -150 88c-38 49 -96 127 -163 224c-22 34 -36 40 -52 38v-180c0 -86 9 -91 85 -98v-35h-298v35c72 7 82 12 82 98v384c0 84 -10 91 -84 98v35h294v-35c-71 -7 -79 -14 -79 -98v-172c23 6 46 19 76 50
c68 70 113 123 149 170c22 29 19 42 -26 48l-19 2v35h254v-35c-68 -6 -101 -16 -156 -70c-58 -56 -106 -108 -146 -150c60 -95 139 -201 204 -285c69 -90 101 -117 122 -126z" />
    <glyph glyph-name="R.alt" unicode="&#xe057;" horiz-adv-x="653" 
d="M676 -16l-10 -33c-14 0 -33 2 -57 6c-103 13 -150 65 -181 118c-36 60 -66 115 -91 161c-16 31 -30 43 -64 43h-21v-146c0 -86 10 -91 85 -98v-35h-301v35c76 7 85 12 85 98v385c0 86 -9 91 -81 97v35h285c86 0 132 -11 171 -36c41 -26 67 -71 67 -128
c0 -92 -57 -143 -123 -171c39 -74 102 -177 148 -245c36 -53 62 -75 88 -86zM252 319h26c43 0 73 7 95 26c35 29 48 67 48 121c0 109 -66 144 -117 144c-24 0 -37 -4 -43 -10c-7 -7 -9 -17 -9 -37v-244z" />
    <glyph glyph-name="Dcroat" unicode="&#x110;" horiz-adv-x="760" 
d="M52 650h300c117 0 214 -25 279 -88c51 -47 87 -119 87 -210c0 -122 -47 -210 -124 -268c-76 -57 -176 -84 -297 -84h-253v34c79 8 88 18 88 103v178h-94v50h94v148c0 86 -9 96 -80 103v34zM266 315v-178c0 -67 9 -92 80 -92c127 0 222 111 222 287c0 102 -27 173 -72 219
c-38 39 -96 56 -157 56c-33 0 -56 -5 -64 -14c-8 -7 -9 -21 -9 -49v-179h141v-50h-141z" />
    <glyph glyph-name="Eng" unicode="&#x14a;" horiz-adv-x="740" 
d="M724 650v-34c-54 -3 -76 -17 -80 -62c-4 -31 -9 -80 -9 -168v-356c0 -82 -12 -134 -35 -173c-25 -41 -57 -65 -94 -65c-32 0 -60 26 -60 59c0 13 4 26 15 26c15 0 23 -8 47 -8c55 0 77 58 77 123l-413 494h-4v-219c0 -88 4 -136 7 -166c5 -45 24 -63 98 -67v-34h-246v34
c56 4 79 21 84 63c3 34 9 82 9 170v204c0 65 -1 85 -20 109s-41 32 -84 36v34h183l385 -438h3v175c0 88 -5 137 -7 166c-5 43 -27 59 -100 63v34h244z" />
    <glyph glyph-name="Hbar" unicode="&#x126;" horiz-adv-x="783" 
d="M740 465h-78v-333c0 -85 8 -91 84 -98v-34h-305v34c79 7 87 14 87 98v169h-273v-169c0 -85 8 -91 82 -98v-34h-298v34c73 7 82 13 82 98v333h-80v43h80v15c0 84 -9 86 -86 93v34h300v-34c-72 -7 -80 -9 -80 -93v-15h273v14c0 85 -8 87 -83 94v34h301v-34
c-78 -7 -84 -9 -84 -93v-15h78v-43zM528 351v114h-273v-114h273z" />
    <glyph glyph-name="Tbar" unicode="&#x166;" horiz-adv-x="637" 
d="M612 486l-36 -2c-11 52 -23 83 -41 101c-17 18 -51 22 -110 22h-39v-253h141v-45h-141v-176c0 -85 10 -91 98 -98v-35h-326v35c84 7 94 13 94 98v176h-141v45h141v253h-28c-83 0 -104 -10 -118 -27c-17 -17 -30 -48 -43 -97h-35c3 72 9 141 11 192h24
c15 -22 28 -25 57 -25h400c26 0 40 6 57 25h23c1 -42 7 -126 12 -189z" />
    <glyph glyph-name="uni021C" unicode="&#x21c;" horiz-adv-x="542" 
d="M124 259l-14 40c140 53 204 103 204 198c0 77 -44 121 -96 121c-62 0 -104 -55 -137 -149l-38 7c11 59 19 107 24 148c64 17 117 40 196 40c110 0 193 -53 194 -139c0 -70 -60 -124 -130 -162v-2c99 -18 177 -82 177 -186c0 -152 -161 -274 -398 -301l-72 53l11 25
c27 -7 61 -17 108 -17c113 0 203 68 203 192c0 112 -78 155 -134 155c-28 0 -56 -8 -98 -23z" />
    <glyph glyph-name="a.end" unicode="&#xe084;" horiz-adv-x="640" 
d="M265 275v32c0 62 -23 100 -59 100c-13 0 -25 -7 -34 -19c-11 -14 -20 -39 -28 -69c-7 -26 -23 -34 -42 -34c-24 0 -62 24 -62 50c0 17 11 31 36 48c42 29 101 60 161 71c40 0 73 -9 99 -28c44 -32 53 -75 53 -131v-158c0 -66 20 -93 85 -93c82 0 97 21 97 53
c0 17 -5 31 -9 40c-2 6 -1 11 1 14c9 12 37 28 49 28c15 0 29 -18 29 -45c0 -21 -13 -55 -40 -82c-45 -43 -114 -62 -189 -63c-74 0 -124 10 -143 57c-38 -26 -85 -58 -104 -58c-84 0 -135 66 -135 126c0 54 24 78 76 97c59 22 136 43 159 64zM265 80v158
c-18 -10 -34 -20 -55 -31c-30 -16 -47 -33 -47 -68c0 -55 37 -76 60 -76c14 0 25 5 42 17z" />
    <glyph glyph-name="e.end" unicode="&#xe08f;" horiz-adv-x="620" 
d="M398 121l18 -24c-61 -91 -139 -109 -180 -109c-132 0 -207 99 -207 215c0 71 28 136 73 180c45 45 102 71 152 71h1c97 0 153 -79 153 -165h71c75 0 93 24 93 50c0 16 -7 32 -11 43c-1 15 41 42 55 42c15 0 26 -22 26 -43s-10 -49 -35 -78c-30 -33 -85 -62 -168 -62
c-82 0 -203 1 -287 0c5 -108 62 -162 133 -162c39 0 74 10 113 42zM235 414c-41 0 -72 -52 -79 -124h116c15 0 21 3 21 18c0 55 -23 106 -58 106z" />
    <glyph glyph-name="k.alt" unicode="&#xe0a5;" horiz-adv-x="534" 
d="M547 -23l-10 -26c-23 0 -57 3 -88 11c-48 12 -78 30 -112 71c-31 41 -69 99 -109 163c-7 11 -11 16 -17 16c-3 2 -7 2 -10 2v-104c0 -65 5 -72 62 -78v-32h-252v32c58 8 65 13 65 78v458c0 64 -6 65 -59 71v29c46 5 116 17 184 36v-460c23 5 45 22 60 38
c18 21 41 52 61 84c12 21 16 37 -33 43v30l218 9v-30c-62 -11 -92 -24 -125 -55c-25 -23 -43 -44 -70 -80c28 -48 90 -143 139 -204c48 -60 76 -89 96 -102z" />
    <glyph glyph-name="m.end" unicode="&#xe0b1;" horiz-adv-x="1053" 
d="M768 294v-185c0 -44 7 -53 35 -58c18 -3 47 -5 74 -5c89 0 101 25 101 57c0 20 -8 37 -12 46c-2 7 3 15 9 22c13 12 32 25 48 25c15 0 29 -22 29 -51c0 -25 -10 -55 -41 -86c-33 -34 -82 -61 -163 -61c-84 1 -184 1 -259 2v32c46 6 51 11 51 79v166c0 79 -36 98 -71 98
c-22 0 -44 -7 -77 -34c1 -12 2 -24 2 -39v-199c0 -59 7 -65 52 -71v-32h-230v32c46 6 50 12 50 71v179c0 72 -31 93 -68 93c-25 0 -50 -12 -78 -34v-238c0 -59 7 -65 45 -71v-32h-237v32c58 6 65 12 65 75v208c0 58 -8 66 -51 74v29c47 7 115 21 176 38v-75
c22 15 42 29 64 42c31 19 55 31 86 31c55 0 97 -30 116 -76c24 18 46 32 71 49c24 16 45 27 75 27c87 0 138 -59 138 -160z" />
    <glyph glyph-name="n.end" unicode="&#xe0b2;" horiz-adv-x="776" 
d="M492 297v-187c0 -45 7 -53 35 -57c18 -3 48 -5 75 -5c89 0 101 24 101 55c0 20 -8 38 -12 47c-2 6 3 15 9 21c13 12 32 25 48 25c15 0 29 -22 29 -51c0 -24 -10 -55 -41 -86c-39 -40 -87 -61 -164 -61c-83 0 -181 1 -255 2v32c42 6 47 11 47 76v174c0 72 -32 94 -67 94
c-26 0 -51 -13 -77 -33v-237c0 -62 5 -68 47 -74v-32h-241v32c59 7 66 12 66 77v208c0 57 -2 62 -53 73v28c57 7 122 21 181 38v-72c19 13 39 26 61 40c30 19 51 30 80 30c81 0 131 -56 131 -157z" />
    <glyph glyph-name="r.end" unicode="&#xe0da;" horiz-adv-x="493" 
d="M501 455l24 -19c-18 -46 -56 -112 -110 -111c-18 0 -37 8 -57 18s-35 15 -51 15c-21 0 -48 -17 -86 -92v-157c0 -64 5 -68 74 -75v-34h-267v34c56 7 65 10 65 75v210c0 58 -4 59 -53 70v29c59 8 119 20 181 37v-127h2c37 69 94 126 140 126c20 0 38 -7 58 -22
c28 -20 48 -16 80 23z" />
    <glyph glyph-name="longs" unicode="&#x17f;" horiz-adv-x="296" 
d="M52 442h40v17c0 24 5 45 13 69c7 23 28 75 87 122c35 30 73 47 114 53c45 -2 71 -12 89 -30c15 -14 15 -32 9 -46c-4 -11 -15 -24 -31 -36c-13 -10 -24 -10 -33 0c-24 24 -60 54 -87 54c-19 0 -30 -12 -34 -40c-5 -28 1 -99 1 -193v-302c0 -65 7 -70 61 -78v-32h-248v32
c54 7 59 13 59 74v288h-64l-5 12z" />
    <glyph glyph-name="dcroat" unicode="&#x111;" horiz-adv-x="548" 
d="M542 58v-32c-24 -4 -118 -16 -197 -39v57l-61 -38c-25 -15 -39 -18 -51 -18c-85 0 -204 70 -204 219c0 136 119 247 277 247c7 0 17 -2 39 -5v76h-139v43h139v20c-1 47 -7 46 -64 56v30c64 7 141 21 192 36v-142h79v-43h-79v-395c0 -62 5 -64 48 -70zM345 81v280
c-17 38 -46 51 -71 51c-24 0 -103 -27 -103 -178c0 -124 74 -171 119 -171c16 0 34 5 55 18z" />
    <glyph glyph-name="eng" unicode="&#x14b;" horiz-adv-x="558" 
d="M220 456v-71c19 13 36 25 58 39c31 19 51 30 80 30c81 0 132 -56 132 -157v-153c0 -83 -6 -137 -36 -200c-23 -47 -50 -79 -74 -102c-27 -28 -56 -49 -84 -49c-21 0 -46 22 -46 60c0 12 6 22 15 22c13 0 44 -17 60 -17c13 0 24 3 30 24c8 30 7 59 7 167v232
c0 72 -32 96 -67 96c-26 0 -49 -12 -75 -32v-238c0 -62 5 -69 61 -75v-32h-255v32c62 7 66 12 66 78v208c0 57 -4 63 -53 73v28c56 7 122 21 181 37z" />
    <glyph glyph-name="hbar" unicode="&#x127;" horiz-adv-x="551" 
d="M533 0h-236v32c48 7 51 14 51 69v180c0 77 -36 100 -74 100c-25 0 -50 -11 -72 -30v-250c0 -59 5 -62 47 -69v-32h-237v32c52 6 62 9 62 75v419h-70v43h70v51c0 25 -2 29 -33 36v27c42 6 109 16 161 27v-141h155v-43h-155v-136c35 35 87 64 138 64c86 0 136 -56 136 -164
v-183c0 -66 9 -67 57 -75v-32z" />
    <glyph glyph-name="kgreenlandic" unicode="&#x138;" horiz-adv-x="553" 
d="M550 0h-184c-12 18 -74 131 -106 186c-15 24 -27 27 -39 26v-98c0 -70 5 -77 60 -82v-32h-249v32c55 4 61 10 61 83v202c0 67 -5 79 -59 83v32c66 4 127 11 187 23v-212c9 1 28 8 45 23c40 36 62 64 82 95c17 24 9 41 -14 45l-19 4v32h216v-32c-53 -4 -82 -16 -117 -47
c-16 -15 -44 -42 -80 -82c53 -83 98 -152 136 -200c29 -37 45 -46 80 -49v-32z" />
    <glyph glyph-name="napostrophe" unicode="&#x149;" horiz-adv-x="566" 
d="M55 717c50 0 108 -37 108 -109c0 -74 -73 -114 -149 -132l-11 28c51 22 76 49 76 81c0 30 -27 50 -66 57c-4 1 -13 11 -13 29c0 27 27 46 55 46zM549 0h-233v32c42 7 47 10 47 81v170c0 72 -33 94 -69 94c-25 0 -47 -11 -73 -31v-242c0 -62 5 -65 46 -72v-32h-240v32
c61 9 66 10 66 77v208c0 60 -5 63 -54 73v28c57 7 122 21 182 38v-73c19 13 39 29 61 43c30 19 49 28 78 28c81 0 131 -60 131 -160v-189c0 -63 6 -65 58 -73v-32z" />
    <glyph glyph-name="tbar" unicode="&#x167;" horiz-adv-x="336" 
d="M327 37l-82 -38c-17 -8 -33 -11 -40 -11c-77 0 -123 36 -123 126v110h-65v43h65v125h-63l-5 12l28 38h40v73l114 78l14 -6v-145h98c12 -11 10 -42 -6 -50h-92v-125h95v-43h-95v-75c0 -78 37 -90 57 -90c17 0 33 3 50 11z" />
    <glyph glyph-name="uni021D" unicode="&#x21d;" horiz-adv-x="406" 
d="M70 105l-12 33c114 46 150 93 150 151s-33 84 -73 84c-32 0 -61 -17 -101 -52l-24 26c52 65 109 107 180 107c78 0 146 -44 146 -130c0 -37 -21 -67 -55 -94c-9 -8 -27 -19 -39 -26v-3c74 -18 137 -73 137 -156c0 -137 -144 -245 -323 -269l-58 42l10 23
c20 -5 42 -10 70 -10c95 0 164 59 164 170c0 89 -55 118 -96 118c-20 0 -41 -3 -76 -14z" />
    <glyph glyph-name="IJ" unicode="&#x132;" horiz-adv-x="744" 
d="M338 0h-301v35c75 7 84 14 84 98v383c0 86 -9 92 -84 99v35h301v-35c-75 -7 -83 -13 -83 -99v-383c0 -84 8 -91 83 -98v-35zM715 650v-35c-70 -7 -78 -13 -78 -98v-331c0 -116 -10 -211 -102 -286c-40 -34 -82 -53 -122 -62l-15 36c54 23 84 58 94 122
c9 55 11 120 11 194v327c0 85 -10 91 -86 98v35h298z" />
    <glyph glyph-name="c_h" unicode="&#xe085;" horiz-adv-x="952" 
d="M399 120l19 -24c-46 -65 -112 -108 -173 -108c-137 0 -216 104 -216 213c0 73 37 144 101 191c65 48 131 62 169 62h1c36 0 68 -11 86 -25c14 -10 18 -22 18 -36c0 -29 -27 -55 -43 -55c-7 0 -13 3 -22 11c-42 36 -74 52 -101 52c-40 0 -85 -38 -85 -145
c0 -133 96 -177 139 -177c42 0 71 10 107 41zM934 0h-236v32c48 7 51 14 51 69v177c0 76 -33 102 -72 102c-24 0 -50 -6 -72 -28v-251c0 -55 4 -62 46 -69v-32h-237v32c57 6 63 10 63 73v466c0 61 -4 60 -56 66v30c53 7 124 21 184 36v-313c34 33 84 64 133 64
c87 0 138 -56 138 -166v-183c0 -64 6 -64 58 -73v-32z" />
    <glyph glyph-name="c_k" unicode="&#xe086;" horiz-adv-x="915" 
d="M399 120l19 -24c-47 -65 -112 -108 -173 -108c-137 0 -216 104 -216 213c0 73 37 144 101 191c65 48 131 62 169 62h1c36 0 68 -11 86 -25c14 -10 18 -22 18 -36c-1 -29 -27 -55 -43 -55c-7 0 -13 3 -22 11c-42 36 -74 52 -102 52c-39 0 -84 -38 -84 -145
c0 -133 96 -177 139 -177c42 0 71 10 107 41zM938 0l-176 -1c-30 35 -86 125 -130 197c-8 11 -15 17 -20 17c-3 1 -7 2 -10 2v-108c0 -65 8 -67 66 -75v-32h-258v32c61 8 67 10 67 75v463c0 56 -7 62 -60 68v29c46 5 117 17 185 36v-459c23 5 43 22 57 38c22 25 48 66 59 87
c12 22 8 34 -31 40v30l216 9v-30c-62 -11 -96 -24 -125 -52c-26 -27 -41 -44 -69 -82c26 -44 114 -162 145 -201c32 -36 49 -45 84 -51v-32z" />
    <glyph glyph-name="c_t" unicode="&#xe087;" horiz-adv-x="752" 
d="M743 37l-82 -37c-17 -8 -33 -12 -40 -12c-77 0 -123 36 -123 126v280h-59l-6 12l29 36h36v38c0 82 -21 129 -80 129c-54 -1 -83 -52 -82 -108c0 -28 4 -42 15 -56c21 -9 38 -22 37 -45c0 -30 -27 -56 -43 -56c-7 0 -15 5 -22 12c-34 32 -58 47 -86 47
c-44 0 -81 -51 -81 -149c0 -134 93 -177 136 -177c41 0 74 15 109 44l19 -25c-47 -65 -113 -108 -174 -108c-137 0 -216 104 -216 213c0 74 38 144 103 192c64 47 126 61 155 61c6 0 11 -1 17 -2c-11 19 -17 38 -17 62c0 87 68 152 173 152c97 0 165 -47 165 -180v-44h98
c10 -11 7 -40 -7 -48h-91v-245c0 -78 36 -92 56 -92c16 0 34 4 52 12z" />
    <glyph glyph-name="ij" unicode="&#x133;" horiz-adv-x="583" 
d="M148 518c-37 0 -70 31 -70 69c0 40 33 70 71 70c40 0 71 -30 71 -70c0 -38 -31 -69 -72 -69zM285 0h-257v32c58 7 64 11 64 82v198c0 66 -7 69 -55 77v29c61 7 127 20 183 36v-340c0 -69 5 -75 65 -82v-32zM437 517c-37 0 -70 32 -70 70c0 40 33 70 71 70
c40 0 71 -30 71 -70c0 -38 -31 -70 -72 -70zM321 388v30c60 7 126 21 189 36v-326c0 -76 -9 -115 -28 -161c-40 -95 -116 -179 -140 -196c-15 -11 -23 -15 -35 -15c-14 0 -40 23 -40 55c0 16 10 27 25 27c43 2 67 9 74 20c6 12 10 37 12 71c3 59 4 123 4 187v189
c0 72 -7 74 -61 83z" />
    <glyph glyph-name="s_p" unicode="&#xe0db;" horiz-adv-x="902" 
d="M565 395l70 41c22 12 40 18 56 18c121 0 181 -99 181 -193c0 -143 -115 -243 -245 -273c-26 0 -47 7 -62 13v-115c0 -70 6 -79 84 -85v-32h-281v32c65 6 69 15 69 77v723c-9 -1 -23 -1 -37 -1c-73 -2 -115 -43 -113 -109c1 -18 2 -33 10 -49c5 -1 11 -3 15 -6
c11 -23 22 -73 24 -93l-32 -11c-30 55 -56 84 -95 84c-25 0 -50 -23 -50 -56c0 -31 18 -54 67 -76c81 -38 137 -72 137 -149c0 -101 -94 -147 -183 -147c-53 0 -107 20 -128 36c-6 15 -16 89 -15 139l30 2c22 -63 74 -138 135 -138c32 0 54 23 54 56s-14 55 -76 86
c-46 23 -123 59 -123 143c0 78 61 140 166 142c13 0 21 -1 32 -3c-11 20 -17 43 -17 63c0 82 72 138 179 138c11 0 18 1 20 5v14c37 10 77 21 119 37l9 -4v-309zM565 356v-281c21 -17 52 -35 80 -35c40 0 97 33 97 172c0 119 -58 167 -112 167c-26 0 -45 -9 -65 -23z" />
    <glyph glyph-name="s_t" unicode="&#xfb06;" horiz-adv-x="717" 
d="M708 37l-82 -38c-17 -7 -33 -11 -40 -11c-77 0 -123 36 -123 126v280h-59l-6 11l29 37h36v37c0 87 -21 132 -90 131c-57 -1 -88 -54 -87 -108c0 -24 5 -44 13 -60c6 -2 11 -4 15 -6c10 -23 22 -73 24 -93l-30 -11c-32 56 -66 83 -100 83c-25 0 -48 -22 -48 -55
c0 -32 18 -54 68 -77c81 -37 137 -71 137 -148c0 -101 -97 -147 -186 -147c-53 0 -105 20 -126 35c-6 16 -15 90 -16 136l29 7c23 -63 74 -139 136 -139c32 0 56 24 56 57c0 30 -17 54 -79 85c-46 24 -121 59 -121 143c0 78 60 140 165 142c13 0 24 -1 33 -3
c-11 21 -17 38 -17 61c0 90 76 156 173 156c103 0 179 -45 179 -186v-40h98c8 -12 5 -41 -7 -48h-91v-244c0 -77 36 -91 56 -91c16 0 34 4 52 11z" />
    <glyph glyph-name="zero.slash" unicode="&#xf638;" horiz-adv-x="500" 
d="M435 648l-39 -80c54 -62 75 -166 75 -256c0 -146 -53 -324 -221 -324c-47 0 -84 14 -115 37l-39 -74l-32 19l43 81c-57 63 -79 168 -79 260c0 148 57 324 223 324c49 0 87 -15 118 -39l34 70zM169 173l152 334c-13 53 -35 87 -72 87c-63 0 -89 -115 -89 -281
c0 -46 4 -102 9 -140zM332 445l-151 -337c12 -46 36 -80 69 -80c67 0 90 122 90 287c0 40 -3 95 -8 130z" />
    <glyph glyph-name="Euro" unicode="&#x20ac;" horiz-adv-x="500" 
d="M445 147l32 -10c-9 -42 -27 -95 -41 -126c-19 -7 -76 -23 -120 -23c-164 0 -231 117 -246 259h-59l12 40h43c-1 15 1 41 2 59h-41l13 40h34c27 163 135 251 263 251c54 0 98 -16 116 -23c7 -48 11 -79 15 -125l-35 -8c-18 70 -46 116 -102 116c-63 0 -106 -73 -121 -211
h243l-13 -40h-234c-2 -19 -1 -41 0 -59h214l-12 -40h-199c13 -139 49 -216 119 -216c46 0 80 38 117 116z" />
    <glyph glyph-name="franc" unicode="&#x20a3;" horiz-adv-x="500" 
d="M462 480l-34 -6c-10 38 -17 60 -34 79c-18 21 -34 28 -81 28h-28c-32 0 -37 -4 -37 -33v-192c133 0 136 4 175 12v-73c-41 8 -47 12 -175 12v-104h132v-42h-132v-36c0 -78 8 -85 91 -91v-34h-295v34c62 6 74 12 74 91v36h-83v42h83v297c0 75 -6 83 -74 89v34h407
c1 -16 6 -85 11 -143z" />
    <glyph glyph-name="lira" unicode="&#x20a4;" horiz-adv-x="500" 
d="M392 237h-144c-14 -44 -55 -85 -104 -111c42 1 70 -5 104 -19c48 -20 97 -43 132 -43c29 0 37 11 37 25c0 15 -3 28 -7 38c-4 7 -2 17 3 24c13 18 31 28 43 28c17 0 27 -18 27 -42c0 -50 -49 -102 -86 -128c-34 -24 -68 -36 -102 -36c-45 0 -90 33 -135 59
c-31 17 -46 21 -63 21c-14 0 -27 -15 -33 -42c-2 -11 -8 -16 -15 -16c-17 0 -36 16 -27 47c8 27 43 64 64 91c26 35 35 69 37 104h-96v42h95c-2 21 -6 32 -9 55h-86v42h81c-1 10 -2 29 -2 42c0 53 25 124 96 173c35 25 72 41 112 44c51 0 83 -22 99 -38c11 -12 13 -29 3 -46
c-7 -12 -18 -20 -25 -26c-9 -6 -22 -6 -34 2c-31 24 -63 50 -97 50c-30 0 -42 -19 -42 -62c0 -39 13 -98 22 -139h152v-42h-144c5 -22 7 -35 8 -55h136v-42z" />
    <glyph glyph-name="peseta" unicode="&#x20a7;" horiz-adv-x="500" 
d="M495 414h-39c-7 -95 -68 -158 -164 -170c-7 -1 -13 -2 -23 -1l-49 15v-129c0 -79 8 -88 82 -94v-35h-276v35c62 5 69 18 69 94v285h-55v44h55v38c0 83 -5 87 -64 93v34h230c58 0 99 -11 131 -35c40 -28 62 -76 65 -130h38v-44zM220 458h115c-4 74 -31 127 -85 127
c-11 0 -17 -5 -22 -9c-6 -6 -8 -16 -8 -30v-88zM334 414h-114v-115c11 -5 23 -8 34 -8c37 0 80 42 80 123z" />
    <glyph glyph-name="peseta.alt" unicode="&#xe0d9;" horiz-adv-x="895" 
d="M843 236l-27 -4c-16 38 -40 73 -76 73c-24 0 -39 -16 -39 -36c0 -25 18 -38 60 -57c64 -31 97 -59 97 -113c0 -68 -56 -111 -139 -111c-41 0 -84 14 -107 27l-3 12l-64 -30c-14 -6 -28 -9 -33 -9c-61 0 -104 31 -104 98v213c-20 -7 -40 -10 -55 -12c-12 -2 -32 -2 -45 -1
l-65 16v-169c0 -82 9 -92 91 -98v-35h-301v35c72 5 81 17 81 98v358c0 77 -6 92 -75 98v34h266c78 0 135 -10 174 -35c41 -26 68 -69 68 -124c0 -43 -15 -76 -30 -97v-37h87c9 -12 7 -36 -7 -42h-80v-171c0 -59 28 -68 44 -68c15 0 30 6 44 12c-3 21 -5 36 -6 61l25 2
c17 -45 50 -101 104 -101c23 0 42 13 42 35c0 23 -16 38 -67 63c-42 22 -92 54 -92 109c0 62 52 109 127 110c42 0 67 -7 86 -13c8 -18 17 -71 19 -91zM243 549v-209c12 -5 32 -9 53 -9c45 0 113 26 113 132c0 89 -55 123 -120 123c-19 0 -33 -5 -38 -9c-6 -6 -8 -15 -8 -28
z" />
    <glyph glyph-name="aringacute" unicode="&#x1fb;" horiz-adv-x="466" 
d="M465 45l-109 -57c-27 0 -48 9 -61 21c-14 12 -21 25 -25 37c-38 -25 -85 -58 -105 -58c-84 0 -135 66 -135 128c0 52 24 76 76 96c59 22 136 46 159 66v30c0 63 -24 98 -60 98c-14 0 -25 -6 -34 -18c-11 -14 -20 -38 -28 -69c-7 -26 -22 -34 -42 -34c-27 0 -63 24 -63 50
c0 18 13 31 35 48c38 26 109 60 166 71c41 0 71 -9 98 -29c43 -33 52 -76 52 -132v-165c0 -47 15 -59 32 -59c12 0 23 3 34 8zM265 79v160c-18 -10 -34 -20 -55 -31c-31 -16 -47 -34 -47 -69c0 -55 37 -76 60 -76c15 0 26 4 42 16zM233 498c-49 0 -96 36 -96 93
c0 56 47 90 97 90c46 0 95 -34 95 -90c0 -57 -49 -93 -96 -93zM234 538c27 0 44 21 44 53c0 29 -17 50 -45 50c-25 0 -45 -20 -45 -50c0 -32 20 -53 46 -53zM237 706l-31 14c13 44 42 143 49 164c10 7 92 16 109 12l6 -11z" />
    <glyph glyph-name="estimated" unicode="&#x212e;" horiz-adv-x="777" 
d="M749 302h-583c-3 0 -5 -1 -5 -4v-176c0 -8 3 -15 8 -20c56 -59 134 -96 221 -96c93 0 175 42 232 107h52c-65 -76 -169 -126 -285 -126c-199 0 -360 145 -360 324s161 324 360 324s360 -145 360 -324v-9zM617 325v178c0 8 -3 15 -9 21c-56 56 -133 92 -218 92
c-86 0 -164 -37 -220 -95c-6 -6 -9 -13 -9 -22v-174c0 -2 2 -5 5 -5h447c3 0 4 3 4 5z" />
    <glyph glyph-name="a.sc" unicode="&#xf761;" horiz-adv-x="611" 
d="M586 0h-259v35l17 2c26 5 34 14 20 48l-21 55h-159c-6 -15 -14 -35 -21 -59c-9 -31 3 -38 28 -43l25 -3v-35h-192v35c45 6 65 13 91 73l160 369l59 11l165 -392c19 -46 39 -57 87 -61v-35zM325 187l-60 164h-3l-62 -164h125z" />
    <glyph glyph-name="b.sc" unicode="&#xf762;" horiz-adv-x="575" 
d="M386 264v-2c83 -9 140 -47 140 -118c0 -114 -134 -144 -260 -144h-226v34c64 4 70 9 70 76v254c0 69 -6 73 -66 77v34h277c113 0 176 -34 176 -109c0 -65 -61 -92 -111 -102zM236 273h33c57 0 95 20 95 81c0 65 -46 84 -87 84c-36 0 -41 -14 -41 -45v-120zM236 235v-128
c0 -59 24 -69 54 -69c47 0 97 31 97 102c0 68 -48 95 -119 95h-32z" />
    <glyph glyph-name="c.sc" unicode="&#xf763;" horiz-adv-x="555" 
d="M486 151l35 -12c-9 -38 -27 -105 -39 -128c-23 -8 -95 -24 -153 -24c-200 0 -287 119 -287 244c0 153 126 257 304 257c70 0 125 -16 147 -22c3 -41 6 -77 14 -130l-36 -8c-29 92 -77 121 -136 121c-86 0 -149 -81 -149 -206c0 -135 78 -216 157 -216c45 0 98 33 143 124
z" />
    <glyph glyph-name="d.sc" unicode="&#xf764;" horiz-adv-x="631" 
d="M44 475h261c89 0 166 -17 220 -66c39 -34 64 -90 64 -154c0 -177 -143 -255 -323 -255h-228v34c61 5 71 10 71 75v256c0 68 -8 71 -65 76v34zM238 384v-271c0 -56 11 -73 53 -73c91 0 154 72 154 203c0 134 -67 194 -155 194c-25 0 -39 -5 -44 -10c-6 -5 -8 -20 -8 -43z
" />
    <glyph glyph-name="e.sc" unicode="&#xf765;" horiz-adv-x="517" 
d="M453 135l36 -2c-6 -39 -21 -113 -27 -133h-426v34c66 5 73 10 73 80v250c0 70 -6 74 -67 77v34h400c1 -20 4 -70 8 -119l-35 -2c-10 28 -17 43 -28 57c-13 17 -33 24 -82 24h-38c-28 0 -29 -4 -29 -31v-135h57c57 0 64 7 72 55h35v-155h-35c-7 45 -16 54 -72 54h-57v-102
c0 -44 5 -63 18 -70c13 -8 34 -10 73 -10c41 0 64 4 83 25c14 14 27 38 41 69z" />
    <glyph glyph-name="f.sc" unicode="&#xf766;" horiz-adv-x="495" 
d="M454 352l-35 -5c-8 26 -16 45 -27 62c-12 16 -31 26 -78 26h-48c-27 -2 -27 -1 -28 -29v-152h64c68 0 74 5 85 56h35v-161h-35c-9 58 -17 60 -86 60h-63v-101c0 -64 8 -70 77 -74v-34h-271v34c59 4 65 9 65 74v257c0 67 -6 72 -65 76v34h401c1 -20 4 -70 9 -123z" />
    <glyph glyph-name="g.sc" unicode="&#xf767;" horiz-adv-x="599" 
d="M562 233v-34c-38 -5 -43 -6 -43 -58v-59c0 -27 2 -49 6 -64c-51 -13 -117 -31 -191 -31c-182 0 -292 99 -292 242c0 174 141 259 312 259c69 0 126 -16 153 -24c2 -25 5 -67 12 -136l-35 -3c-27 97 -88 125 -143 125c-76 0 -155 -59 -155 -205c0 -114 60 -218 161 -218
c25 0 43 10 43 48v65c0 50 -4 54 -80 59v34h252z" />
    <glyph glyph-name="h.sc" unicode="&#xf768;" horiz-adv-x="661" 
d="M621 0h-259v34c56 5 63 11 63 80v114h-187v-114c0 -68 6 -75 57 -80v-34h-255v34c62 3 69 11 69 81v246c0 69 -7 75 -71 80v34h260v-34c-54 -5 -60 -10 -60 -80v-85h187v85c0 70 -8 75 -61 80v34h257v-31c-60 -8 -67 -14 -67 -83v-246c0 -70 7 -76 67 -81v-34z" />
    <glyph glyph-name="i.sc" unicode="&#xf769;" horiz-adv-x="347" 
d="M306 0h-265v34c60 4 68 9 68 76v255c0 67 -8 70 -68 75v35h265v-34c-62 -4 -68 -9 -68 -77v-254c0 -67 6 -72 68 -76v-34z" />
    <glyph glyph-name="j.sc" unicode="&#xf76a;" horiz-adv-x="337" 
d="M307 475v-34c-59 -5 -67 -9 -67 -78v-223c0 -95 -9 -178 -94 -229c-34 -21 -69 -34 -103 -41l-11 32c36 15 60 44 68 88c10 51 11 117 11 182v191c0 68 -7 73 -73 78v34h269z" />
    <glyph glyph-name="k.sc" unicode="&#xf76b;" horiz-adv-x="603" 
d="M584 0h-185c-21 28 -93 148 -125 199c-15 25 -27 28 -39 27v-115c0 -66 6 -73 66 -77v-34h-255v34c56 1 63 11 63 76v254c0 69 -7 73 -65 77v34h253v-34c-56 -4 -62 -9 -62 -77v-108c9 1 27 8 44 23c41 33 89 90 110 121c15 21 17 32 -7 36l-28 5v34h217v-34
c-53 -4 -84 -14 -120 -45c-23 -21 -68 -67 -100 -100c55 -87 107 -165 148 -215c29 -36 50 -44 85 -47v-34z" />
    <glyph glyph-name="l.sc" unicode="&#xf76c;" horiz-adv-x="495" 
d="M443 150l35 -6c-6 -37 -21 -116 -27 -144h-416v34c67 5 73 11 73 78v252c0 68 -7 73 -68 77v34h271v-34c-67 -4 -73 -9 -73 -77v-254c0 -34 4 -51 16 -60c13 -8 38 -10 70 -10c34 0 61 6 78 27c16 19 26 43 41 83z" />
    <glyph glyph-name="m.sc" unicode="&#xf76d;" horiz-adv-x="734" 
d="M695 475v-35c-70 -4 -74 -12 -73 -77l6 -256c1 -63 4 -69 69 -73v-34h-262v34c64 4 68 10 69 74l4 288h-3l-163 -388h-34l-143 380h-2l-9 -180c-4 -81 -5 -102 -3 -125c2 -35 19 -46 69 -49v-34h-188v34c42 2 56 15 63 51c5 22 8 54 13 114l13 148c7 81 -2 89 -63 93v35
h191l122 -279l130 279h194z" />
    <glyph glyph-name="n.sc" unicode="&#xf76e;" horiz-adv-x="600" 
d="M586 475v-34c-42 -1 -65 -11 -68 -41c-3 -29 -7 -61 -7 -128v-277h-58l-301 354l-1 -1v-143c0 -71 3 -101 6 -126c4 -33 27 -41 80 -45v-34h-204v34c41 3 64 13 68 45c3 25 6 55 6 126v135c0 82 -19 97 -84 101v34h180l262 -297h2v94c0 66 -3 99 -7 125
c-4 33 -22 42 -79 44v34h205z" />
    <glyph glyph-name="o.sc" unicode="&#xf76f;" horiz-adv-x="618" 
d="M311 488c164 0 265 -109 265 -243c0 -169 -125 -258 -266 -258c-179 0 -269 123 -269 241c0 176 140 260 270 260zM301 449c-60 0 -116 -71 -116 -201c0 -133 57 -222 133 -222c61 0 114 51 114 197c0 115 -44 226 -131 226z" />
    <glyph glyph-name="p.sc" unicode="&#xf770;" horiz-adv-x="547" 
d="M45 475h266c121 0 194 -46 194 -142c0 -94 -70 -143 -170 -157c-13 -1 -28 -2 -45 1l-55 14v-81c0 -65 6 -70 76 -76v-34h-270v34c60 6 67 11 67 76v249c0 72 -7 77 -63 81v35zM235 394v-164c13 -6 31 -10 46 -10c23 0 87 13 87 112c0 71 -45 106 -93 106
c-36 0 -40 -8 -40 -44z" />
    <glyph glyph-name="q.sc" unicode="&#xf771;" horiz-adv-x="621" 
d="M600 -117l-6 -21c-64 -9 -109 0 -139 8c-33 10 -90 41 -188 121c-152 20 -225 131 -225 235c0 178 139 262 270 262c165 0 266 -109 267 -245c1 -133 -81 -211 -161 -236c43 -33 116 -83 182 -124zM285 28l70 30c8 -6 16 -12 24 -19c21 16 56 72 56 181
c0 130 -48 230 -134 229c-59 0 -115 -69 -115 -203c0 -110 47 -199 99 -218z" />
    <glyph glyph-name="r.sc" unicode="&#xf772;" horiz-adv-x="588" 
d="M571 22l-4 -28h-37c-114 0 -144 25 -171 64c-25 35 -45 73 -66 113c-12 22 -21 30 -47 30h-11v-90c0 -66 6 -72 67 -77v-34h-262v34c61 4 69 9 69 76v256c0 66 -6 71 -66 75v34h271c61 0 99 -6 131 -24c35 -20 55 -55 55 -98c0 -61 -45 -102 -102 -121
c13 -26 47 -78 71 -113c25 -35 41 -56 58 -72c14 -13 31 -21 44 -25zM235 238h23c29 0 53 4 73 18c22 16 33 44 33 78c0 74 -45 103 -92 103c-27 0 -37 -8 -37 -33v-166z" />
    <glyph glyph-name="s.sc" unicode="&#xf773;" horiz-adv-x="452" 
d="M392 342l-34 -9c-20 63 -60 117 -120 117c-41 0 -69 -30 -69 -65c0 -42 38 -61 69 -74l31 -12c85 -34 147 -73 147 -153c0 -98 -82 -159 -203 -159c-74 0 -125 28 -144 38c-8 21 -18 78 -25 136l32 9c20 -59 75 -145 148 -145c48 0 77 29 77 69c0 32 -20 56 -75 78
l-37 15c-57 24 -128 66 -128 147c0 92 69 154 194 154c53 0 101 -18 121 -27c4 -26 9 -62 16 -119z" />
    <glyph glyph-name="t.sc" unicode="&#xf774;" horiz-adv-x="543" 
d="M510 340l-34 -2c-12 46 -21 64 -34 79c-12 13 -35 17 -68 17h-37v-320c0 -71 6 -76 77 -80v-34h-280v34c67 4 74 9 74 80v320h-25c-48 0 -67 -6 -80 -22c-12 -14 -22 -38 -32 -73h-34c3 63 9 116 10 154h23c12 -16 20 -18 47 -18h318c26 0 30 4 42 18h24
c0 -37 5 -112 9 -153z" />
    <glyph glyph-name="u.sc" unicode="&#xf775;" horiz-adv-x="603" 
d="M587 475v-33c-44 -2 -62 -13 -66 -40c-3 -23 -6 -55 -6 -119v-55c0 -84 -15 -147 -57 -188c-34 -33 -86 -53 -146 -53c-55 0 -104 12 -143 39c-42 30 -68 84 -68 170v168c0 68 -6 73 -68 78v33h264v-33c-60 -5 -66 -10 -66 -78v-141c0 -119 44 -174 118 -174
c80 0 120 61 120 179v53c0 73 -3 98 -7 121c-4 28 -23 37 -79 40v33h204z" />
    <glyph glyph-name="v.sc" unicode="&#xf776;" horiz-adv-x="606" 
d="M581 475v-34c-51 -8 -65 -18 -95 -73c-37 -69 -106 -229 -169 -378h-43c-55 131 -111 257 -168 388c-22 52 -43 58 -84 63v34h261v-34l-24 -4c-28 -5 -32 -16 -16 -54c34 -80 65 -155 99 -236c26 60 81 196 91 230c15 44 13 56 -21 61l-20 3v34h189z" />
    <glyph glyph-name="w.sc" unicode="&#xf777;" horiz-adv-x="793" 
d="M768 475v-35c-53 -7 -62 -18 -80 -67c-45 -124 -89 -251 -134 -383h-41l-127 295h-2l-112 -295h-39l-132 379c-21 61 -34 66 -79 72v34h257v-35l-24 -4c-31 -5 -37 -12 -25 -51l66 -215h2l104 292h45l123 -296h2c27 78 49 145 67 215c11 42 4 51 -26 55l-30 4v35h185z
" />
    <glyph glyph-name="x.sc" unicode="&#xf778;" horiz-adv-x="594" 
d="M570 0h-275v34l23 4c21 5 27 16 7 47l-63 99c-27 -37 -46 -68 -65 -102c-15 -26 -13 -38 13 -43l27 -5v-34h-205v34c57 8 77 16 117 69c25 31 59 74 89 117l-106 166c-27 42 -40 48 -95 55v34h262v-34l-25 -5c-19 -3 -20 -13 -8 -32l56 -89c24 31 42 61 56 84
c16 26 9 35 -9 38l-21 4v34h199v-34c-62 -6 -82 -15 -122 -60c-20 -23 -45 -51 -81 -99l115 -173c37 -57 58 -69 111 -75v-34z" />
    <glyph glyph-name="y.sc" unicode="&#xf779;" horiz-adv-x="549" 
d="M528 475v-34c-50 -4 -67 -14 -96 -59c-19 -30 -46 -72 -84 -144c-8 -15 -11 -26 -11 -44v-84c0 -64 7 -70 76 -75v-35h-282v35c71 5 76 10 76 75v76c0 25 -4 36 -15 53c-29 50 -55 94 -84 143c-29 47 -43 55 -87 59v34h248v-34l-27 -5c-21 -5 -21 -15 -9 -37
c30 -55 54 -95 80 -142c29 53 55 106 68 135c14 30 11 40 -10 44l-29 5v34h186z" />
    <glyph glyph-name="z.sc" unicode="&#xf77a;" horiz-adv-x="529" 
d="M472 154l34 -8c-7 -40 -22 -122 -30 -146h-432l-11 19l285 414h-76c-79 0 -99 -10 -110 -25c-12 -15 -22 -39 -32 -75h-35c4 69 9 121 11 160h25c12 -16 19 -18 45 -18h328l9 -18l-280 -413c14 -1 46 -3 90 -3c61 0 102 4 124 23c19 15 39 47 55 90z" />
    <glyph glyph-name="dcroat.sc" unicode="&#xf676;" horiz-adv-x="656" 
d="M66 475h266c86 0 164 -17 217 -64c38 -34 64 -91 64 -154c0 -180 -142 -257 -315 -257h-238v34c64 4 71 12 71 81v110h-74v45h74v91c0 71 -7 75 -65 80v34zM261 225v-111c0 -57 9 -74 55 -74c93 0 153 71 153 202c0 141 -66 195 -158 195c-26 0 -38 -5 -43 -11
s-7 -19 -7 -40v-116h97v-45h-97z" />
    <glyph glyph-name="hbar.sc" unicode="&#xf681;" horiz-adv-x="663" 
d="M622 0h-257v34c55 5 62 11 62 84v87h-190v-87c0 -70 6 -79 58 -84v-34h-255v34c63 3 69 11 69 84v208h-66v45h66v9c0 51 -13 56 -71 61v34h259v-34c-48 -5 -59 -9 -60 -62v-8h190v9c0 48 -14 56 -62 61v34h257v-31c-55 -7 -67 -12 -67 -64v-9h63v-45h-63v-208
c0 -72 7 -79 67 -84v-34zM427 253v73h-190v-73h190z" />
    <glyph glyph-name="dotlessi.sc" unicode="&#xe08e;" horiz-adv-x="347" 
d="M306 0h-265v34c60 4 68 9 68 76v255c0 67 -8 70 -68 75v35h265v-34c-62 -4 -68 -9 -68 -77v-254c0 -67 6 -72 68 -76v-34z" />
    <glyph glyph-name="oslash.sc" unicode="&#xf7f8;" horiz-adv-x="621" 
d="M529 489l-41 -55c60 -45 92 -113 92 -189c0 -169 -125 -258 -268 -258c-51 0 -98 12 -140 31l-51 -63l-30 28l45 59c-63 49 -94 119 -94 186c0 176 141 260 270 260c52 0 97 -11 139 -33l45 59zM205 124l192 263c-25 44 -51 62 -96 62c-61 0 -119 -72 -119 -204
c0 -42 8 -88 23 -121zM418 346l-192 -263c24 -41 56 -57 92 -57c55 0 121 46 121 198c0 42 -6 88 -21 122z" />
    <glyph glyph-name="tbar.sc" unicode="&#xf69c;" horiz-adv-x="543" 
d="M510 340l-34 -2c-12 46 -22 63 -35 77s-35 20 -67 20h-37v-173h106v-45h-106v-99c0 -71 6 -80 77 -84v-34h-280v34c67 4 74 13 74 84v99h-104v45h104v173h-25c-48 0 -67 -8 -80 -24c-12 -14 -22 -37 -32 -72h-34c3 63 9 116 10 154h25c12 -16 20 -18 47 -18h313
c25 0 29 4 42 18h27c0 -37 5 -112 9 -153z" />
    <glyph glyph-name="eng.sc" unicode="&#xf67b;" horiz-adv-x="596" 
d="M582 475v-34c-42 -2 -65 -11 -68 -41c-3 -29 -7 -61 -7 -128v-224c0 -91 -11 -150 -38 -193c-26 -42 -58 -62 -93 -62c-28 0 -55 25 -55 57c0 13 5 26 16 26c12 0 23 -10 45 -10c43 0 70 48 74 121l-304 362l-1 -2v-142c0 -70 3 -101 6 -126c4 -32 27 -40 80 -44v-35
h-204v35c41 3 64 12 68 44c3 26 6 56 6 126v132c0 84 -11 99 -84 104v34h180l258 -296h2v93c0 67 -3 99 -7 125c-4 33 -24 41 -81 44v34h207z" />
    <glyph glyph-name="eth.sc" unicode="&#xf7f0;" horiz-adv-x="656" 
d="M66 475h266c86 0 164 -17 217 -64c38 -34 64 -91 64 -154c0 -180 -142 -257 -315 -257h-238v34c64 4 71 12 71 81v110h-74v45h74v91c0 71 -7 75 -65 80v34zM261 225v-111c0 -57 9 -74 55 -74c93 0 153 71 153 202c0 141 -66 195 -158 195c-26 0 -38 -5 -43 -11
s-7 -19 -7 -40v-116h97v-45h-97z" />
    <glyph glyph-name="thorn.sc" unicode="&#xf7fe;" horiz-adv-x="545" 
d="M300 475v-34c-58 -4 -64 -6 -64 -65h99c102 0 173 -40 173 -129c0 -88 -73 -131 -165 -141c-21 -2 -43 -1 -56 2l-52 12v-15c0 -63 8 -67 73 -71v-34h-265v34c59 4 66 8 66 77v251c0 71 -7 74 -66 79v34h257zM235 302v-144c16 -6 33 -9 53 -9c32 0 82 17 82 96
c0 66 -48 93 -92 93c-41 0 -43 -6 -43 -36z" />
    <glyph glyph-name="uni021D.sc" unicode="&#xe203;" horiz-adv-x="453" 
d="M112 164l-12 34c109 45 148 82 148 157c0 60 -32 91 -72 91s-67 -36 -96 -109l-31 7c8 48 13 80 17 112c53 15 85 32 148 32c92 0 161 -41 161 -117c0 -38 -19 -63 -52 -89c-9 -7 -28 -20 -40 -26v-3c74 -18 132 -67 132 -144c0 -121 -138 -222 -319 -248l-56 42l8 18
c20 -4 43 -7 73 -7c90 0 157 49 157 154c0 83 -51 114 -91 114c-20 0 -37 -5 -75 -18z" />
    <glyph glyph-name="germandbls.sc" unicode="&#xe0a4;" horiz-adv-x="903" 
d="M392 342l-34 -9c-20 63 -60 117 -120 117c-41 0 -69 -30 -69 -65c0 -42 38 -61 69 -74l31 -12c85 -34 147 -73 147 -153c0 -98 -82 -159 -203 -159c-74 0 -125 28 -144 38c-8 21 -18 78 -25 136l32 9c20 -59 75 -145 148 -145c48 0 77 29 77 69c0 32 -20 56 -75 78
l-37 15c-57 24 -128 66 -128 147c0 92 69 154 194 154c53 0 101 -18 121 -27c4 -26 9 -62 16 -119zM843 342l-34 -9c-20 63 -60 117 -120 117c-41 0 -69 -30 -69 -65c0 -42 38 -61 69 -74l31 -12c85 -34 147 -73 147 -153c0 -98 -82 -159 -203 -159c-74 0 -125 28 -144 38
c-8 21 -18 78 -25 136l32 9c20 -59 75 -145 148 -145c48 0 77 29 77 69c0 32 -20 56 -75 78l-37 15c-57 24 -128 66 -128 147c0 92 69 154 194 154c53 0 101 -18 121 -27c4 -26 9 -62 16 -119z" />
    <glyph glyph-name="ae.sc" unicode="&#xf7e6;" horiz-adv-x="771" 
d="M707 135l36 -3c-7 -38 -21 -112 -28 -132h-423v33c66 5 72 14 72 76v93h-140c-17 -34 -40 -81 -56 -117c-10 -25 -9 -41 13 -46l33 -6v-33h-200v33c36 4 67 13 95 58c20 34 53 86 110 191l66 124c13 23 6 27 -21 31l-49 5v33h481c1 -20 4 -72 8 -121l-35 -2
c-10 26 -19 46 -29 60c-12 16 -33 24 -78 24h-44c-28 0 -29 -2 -29 -30v-160h60c55 0 64 6 72 57h35v-157h-35c-6 45 -17 56 -72 56h-60v-87c0 -36 5 -58 17 -65c13 -9 34 -11 72 -11c43 0 71 5 89 26c14 15 27 41 40 70zM364 246v191c-10 0 -18 -6 -30 -27
c-19 -38 -51 -98 -86 -164h116z" />
    <glyph glyph-name="oe.sc" unicode="&#xf6fa;" horiz-adv-x="833" 
d="M766 134l38 -2c-7 -39 -21 -112 -27 -132h-281c-36 0 -70 -1 -99 -4c-22 -2 -49 -4 -72 -4c-194 0 -283 115 -283 236c0 176 145 255 300 255c76 0 107 -8 140 -8h275c1 -20 4 -70 8 -119l-37 -2c-9 28 -16 44 -25 57c-13 18 -34 25 -82 25h-39c-29 0 -30 -3 -30 -31
v-138h58c58 0 65 7 73 56h34v-154h-34c-8 49 -16 55 -73 55h-58v-103c0 -42 5 -65 18 -72c13 -8 35 -10 74 -10c41 0 65 5 84 25c14 15 26 40 38 70zM423 104v280c0 19 -1 39 -12 46c-10 6 -34 14 -64 14c-89 0 -161 -70 -161 -202c0 -128 66 -211 161 -211c23 0 44 4 60 13
c14 8 16 30 16 60z" />
    <glyph glyph-name="i.dot" horiz-adv-x="295" 
d="M148 517c-38 0 -71 32 -71 70c0 40 33 70 72 70s71 -30 71 -70c0 -38 -32 -70 -72 -70zM285 0h-256v32c58 7 64 11 64 82v198c0 66 -7 69 -55 77v29c60 7 126 20 182 36v-340c0 -69 5 -75 65 -82v-32z" />
    <glyph glyph-name="uni25B6" unicode="&#x25b6;" horiz-adv-x="606" 
d="M75 24c0 0 2 465 1 465h1l486 -230v-2l-486 -235z" />
    <glyph glyph-name="ij.sc" unicode="&#xf684;" horiz-adv-x="684" 
d="M306 0h-265v34c60 4 68 9 68 76v255c0 67 -8 70 -68 75v35h265v-34c-62 -4 -68 -9 -68 -77v-254c0 -67 6 -72 68 -76v-34zM654 475v-34c-59 -5 -67 -9 -67 -78v-223c0 -95 -9 -178 -94 -229c-34 -21 -69 -34 -103 -41l-11 32c36 15 60 44 68 88c10 51 11 117 11 182v191
c0 68 -7 73 -73 78v34h269z" />
    <glyph glyph-name="ampersand.sc" unicode="&#xf726;" horiz-adv-x="664" 
d="M649 312l-25 -3c-31 -4 -55 -20 -86 -55c-26 -30 -44 -56 -75 -96c85 -78 117 -117 149 -166l-5 -10c-87 0 -150 18 -170 37c-9 7 -26 22 -53 47c-44 -46 -93 -78 -162 -78c-116 0 -177 79 -177 149c0 61 37 88 112 135c-31 28 -54 62 -54 108c0 81 73 143 164 143
s152 -54 152 -129c0 -24 -12 -46 -38 -66c-17 -13 -34 -24 -66 -44c37 -30 77 -63 119 -101c26 37 40 59 51 80c13 27 12 37 -20 44l-22 5v34h206v-34zM257 485c-31 0 -56 -29 -56 -67c0 -37 27 -70 85 -113c25 22 37 56 37 95c0 47 -29 85 -66 85zM282 68c37 0 61 12 74 24
c-50 48 -98 89 -172 157c-11 -15 -17 -35 -17 -60c0 -73 54 -121 115 -121z" />
    <glyph glyph-name="exclam.sc" unicode="&#xf721;" horiz-adv-x="264" 
d="M133 521c73 0 97 -24 81 -87l-62 -243h-41l-60 243c-16 62 8 87 82 87zM132 -12c-38 0 -71 31 -71 72c0 42 33 76 72 76c41 0 72 -34 72 -76c0 -41 -31 -72 -73 -72z" />
    <glyph glyph-name="exclamdown.sc" unicode="&#xf7a1;" horiz-adv-x="264" 
d="M132 522c39 0 71 -30 71 -73c0 -42 -32 -76 -72 -76c-41 0 -72 34 -72 76c0 43 31 73 73 73zM114 318h40l60 -242c16 -64 -7 -88 -81 -88h-1c-72 0 -96 25 -80 88z" />
    <glyph glyph-name="question.sc" unicode="&#xf73f;" horiz-adv-x="399" 
d="M223 194l-26 -18c-47 20 -95 58 -95 103c0 33 22 57 84 87c69 33 92 48 92 66c0 20 -16 32 -35 32c-57 0 -86 -86 -129 -86c-36 0 -63 31 -62 53c0 18 9 35 27 50c22 17 70 41 114 41h1c74 0 160 -56 160 -144c0 -47 -27 -76 -85 -102c-41 -19 -54 -33 -54 -52
c0 -12 5 -22 8 -30zM190 -12c-38 0 -71 31 -71 72c0 42 33 76 72 76c41 0 72 -34 72 -76c0 -41 -31 -72 -73 -72z" />
    <glyph glyph-name="questiondown.sc" unicode="&#xf7bf;" horiz-adv-x="399" 
d="M205 521c39 0 71 -30 71 -73c0 -41 -32 -75 -72 -75c-41 0 -72 34 -72 75c0 43 31 73 73 73zM176 315l26 18c47 -20 95 -57 95 -102c0 -34 -22 -58 -84 -87c-69 -33 -91 -47 -91 -66s16 -31 35 -31c58 0 84 85 126 85c36 0 65 -32 64 -54c0 -17 -9 -34 -27 -49
c-22 -18 -70 -41 -114 -41h-1c-74 0 -160 55 -160 143c0 47 27 77 84 102c42 19 55 33 55 52c0 12 -5 22 -8 30z" />
    <glyph glyph-name="zero.oldstyle" unicode="&#xf730;" horiz-adv-x="549" 
d="M275 458c140 0 232 -110 232 -235c0 -123 -92 -235 -233 -235c-142 0 -234 110 -234 235c0 124 92 235 235 235zM273 400c-60 0 -113 -60 -113 -177c0 -119 53 -177 114 -177s114 62 114 177c0 117 -54 177 -115 177z" />
    <glyph glyph-name="one.oldstyle" unicode="&#xf731;" horiz-adv-x="367" 
d="M341 0h-298v34l46 6c36 4 40 21 40 71v205c0 44 -4 55 -41 57l-41 2v32c55 8 128 26 208 51v-347c0 -50 4 -67 39 -71l47 -6v-34z" />
    <glyph glyph-name="two.oldstyle" unicode="&#xf732;" horiz-adv-x="474" 
d="M458 138l-38 -138h-384v32c84 53 229 133 229 246c0 52 -28 90 -87 90c-50 0 -86 -37 -115 -77l-28 23l58 84c33 34 77 59 139 59c97 0 164 -63 164 -146c0 -48 -20 -87 -72 -130c-38 -32 -81 -57 -122 -84v-2h126c54 0 70 3 96 54z" />
    <glyph glyph-name="three.oldstyle" unicode="&#xf733;" horiz-adv-x="441" 
d="M254 217v-4c92 -14 143 -76 143 -144c0 -162 -209 -232 -265 -232c-43 0 -84 18 -102 35c-12 10 -19 24 -14 42c5 13 16 27 29 36c10 8 24 8 32 0c26 -22 67 -56 112 -56c48 0 79 53 79 123c0 91 -57 126 -106 126c-22 0 -41 -4 -59 -10l-7 36c83 32 138 66 138 132
c0 41 -27 79 -77 79c-41 0 -71 -31 -97 -66l-27 24l45 60c27 34 76 60 125 60h1c93 0 151 -52 151 -131c0 -27 -14 -46 -35 -65c-16 -13 -38 -28 -66 -45z" />
    <glyph glyph-name="four.oldstyle" unicode="&#xf734;" horiz-adv-x="501" 
d="M490 91l-10 -67h-81v-181h-122v181h-248v41c96 137 214 294 296 393h74v-367h91zM277 91v238h-2c-58 -78 -106 -147 -164 -238h166z" />
    <glyph glyph-name="five.oldstyle" unicode="&#xf735;" horiz-adv-x="413" 
d="M122 335l-15 -76c122 -2 265 -46 265 -190c0 -66 -33 -124 -106 -169c-66 -41 -165 -63 -241 -63l-4 37c78 13 228 52 228 168c0 84 -92 116 -206 115l41 274l287 27l-15 -101z" />
    <glyph glyph-name="six.oldstyle" unicode="&#xf736;" horiz-adv-x="527" 
d="M468 609l6 -38c-32 -7 -75 -20 -110 -38c-52 -26 -135 -77 -171 -188l50 24c21 11 40 18 57 18c112 0 187 -75 187 -184c0 -116 -89 -215 -223 -215c-128 0 -220 93 -220 239c0 205 162 317 276 352c64 19 110 25 148 30zM247 319c-21 0 -40 -4 -59 -14
c-5 -19 -7 -39 -7 -73c0 -128 50 -202 100 -202c57 0 76 62 76 133c0 89 -40 156 -110 156z" />
    <glyph glyph-name="seven.oldstyle" unicode="&#xf737;" horiz-adv-x="451" 
d="M434 447l10 -14c-54 -102 -208 -393 -305 -579l-102 -17l-7 15c131 178 233 346 317 490h-319v105h406z" />
    <glyph glyph-name="eight.oldstyle" unicode="&#xf738;" horiz-adv-x="495" 
d="M254 609c107 0 175 -66 175 -148c0 -25 -11 -51 -29 -69c-11 -12 -33 -29 -71 -55c69 -38 127 -81 127 -171c0 -117 -118 -178 -213 -178c-117 0 -203 59 -203 162c0 42 23 69 41 86c20 18 57 43 83 57c-57 32 -104 79 -104 148c0 91 79 168 194 168zM239 568
c-40 0 -69 -40 -69 -83c0 -56 46 -89 125 -130c14 17 33 49 33 102c0 80 -52 111 -89 111zM260 28c46 0 80 38 79 96c-1 70 -58 105 -143 150c-24 -22 -45 -63 -45 -115c0 -86 59 -131 109 -131z" />
    <glyph glyph-name="nine.oldstyle" unicode="&#xf739;" horiz-adv-x="523" 
d="M266 458c141 0 214 -109 214 -238c0 -199 -134 -307 -277 -353c-42 -13 -123 -29 -170 -30l-6 36c143 30 267 117 299 226l-37 -17c-23 -11 -42 -16 -55 -16c-123 0 -193 80 -193 180c0 97 77 212 225 212zM245 416c-50 0 -72 -63 -72 -125c0 -93 48 -158 119 -158
c18 0 31 4 42 8c6 23 8 46 8 86c0 96 -31 189 -97 189z" />
    <glyph glyph-name="dollar.oldstyle" unicode="&#xf724;" horiz-adv-x="504" 
d="M273 285l19 -5c102 -25 163 -64 163 -144c0 -84 -73 -136 -182 -146v-78h-40v77c-73 2 -138 25 -157 37c-7 18 -20 65 -30 126l32 9c21 -51 74 -125 155 -134v150l-28 8c-91 23 -145 61 -145 133c0 76 61 134 173 144v68h40v-66c39 0 85 -8 126 -25c8 -28 16 -61 23 -115
l-33 -8c-16 50 -48 99 -116 108v-139zM233 295v129c-55 -4 -79 -34 -79 -63c0 -35 28 -53 79 -66zM273 167v-139c39 4 79 28 79 67c0 31 -19 55 -79 72z" />
    <glyph glyph-name="cent.oldstyle" unicode="&#xf7a2;" horiz-adv-x="479" 
d="M430 146l21 -28c-34 -48 -85 -89 -142 -100v-97h-41v94c-141 5 -221 102 -221 202c0 72 38 139 99 183c38 27 84 44 122 51v82h41v-78c8 1 13 1 17 1c33 0 71 -7 94 -23c11 -9 15 -20 15 -31c0 -31 -25 -53 -38 -53c-5 0 -9 1 -18 10c-25 27 -48 43 -70 48v-311
c52 0 94 26 121 50zM268 103v307c-41 -2 -105 -37 -105 -143c0 -103 53 -151 105 -164z" />
    <glyph glyph-name="Euro.oldstyle" unicode="&#xe023;" horiz-adv-x="563" 
d="M496 139l30 -10c-10 -39 -27 -93 -42 -119c-21 -7 -85 -22 -131 -22c-170 0 -250 94 -269 213h-71l15 39h52c-1 17 0 38 3 57h-52l15 39h43c32 128 138 205 279 205c59 0 110 -16 128 -21c7 -40 11 -74 16 -120l-31 -7c-21 67 -63 110 -118 110c-70 0 -121 -65 -138 -167
h263l-15 -39h-252c-2 -16 -2 -40 0 -57h238l-15 -39h-219c13 -110 63 -173 138 -173c52 0 93 42 133 111z" />
    <glyph glyph-name="florin.oldstyle" unicode="&#xe09f;" horiz-adv-x="514" 
d="M179 308l5 27c13 75 51 127 101 167c59 47 103 53 127 53c30 0 64 -15 63 -46s-28 -57 -48 -57c-19 0 -39 54 -66 54c-11 0 -18 -7 -22 -24c-5 -17 -9 -58 -26 -174h101l-1 -46h-106l-16 -102c-30 -183 -98 -238 -156 -276c-30 -20 -60 -29 -86 -29c-28 0 -54 20 -54 46
c0 29 30 54 45 54c18 0 44 -42 65 -42c11 0 19 10 23 24c4 20 9 49 18 118l26 207h-81v46h88z" />
    <glyph glyph-name="sterling.oldstyle" unicode="&#xe0dd;" horiz-adv-x="518" 
d="M394 241h-140c0 -5 -1 -9 -1 -13c-5 -44 -37 -88 -94 -119c40 3 73 1 110 -16c36 -16 79 -41 113 -41c23 0 32 10 32 28c0 11 -3 25 -7 35c-2 6 1 17 7 23c12 15 28 26 40 26c17 0 27 -21 27 -40c0 -46 -46 -96 -84 -123c-30 -22 -62 -33 -92 -33c-44 0 -101 34 -139 55
c-25 14 -39 21 -57 21c-15 0 -29 -16 -33 -36c-3 -10 -8 -15 -16 -15c-17 0 -35 16 -27 42c8 23 37 55 54 76c27 33 36 65 36 92c0 16 -1 28 -3 38h-85v44h78c-4 23 -5 40 -5 57c0 50 31 116 93 156c33 21 71 35 108 37c43 0 80 -15 101 -35c11 -12 12 -30 4 -44
c-6 -11 -16 -23 -26 -29c-10 -7 -21 -10 -32 0c-34 29 -69 53 -98 53c-26 0 -38 -18 -38 -48c0 -41 21 -97 29 -147h145v-44z" />
    <glyph glyph-name="yen.oldstyle" unicode="&#xe101;" horiz-adv-x="518" 
d="M498 534v-35c-43 -5 -57 -19 -83 -58c-21 -31 -51 -83 -83 -143h117v-40h-128v-20v-53h129v-40h-129v-29c0 -65 11 -77 76 -81v-35h-277v35c68 4 74 17 74 85v25h-132v40h132v36v37h-132v40h117c-16 34 -43 89 -76 149c-20 35 -31 43 -77 53v34h237v-35l-22 -4
c-19 -4 -20 -16 -16 -27c16 -38 51 -106 73 -151c27 50 50 102 65 133c13 30 9 40 -22 45l-22 4v35h179z" />
    <glyph glyph-name="colonmonetary.oldstyle" unicode="&#xe08b;" horiz-adv-x="538" 
d="M472 138l28 -12c-10 -40 -27 -91 -39 -116c-20 -5 -79 -19 -123 -20l-9 -59h-33l10 61c-23 1 -40 2 -53 7l-11 -67h-33l13 75c-134 39 -181 143 -181 252c0 165 122 260 268 273l11 57h31l-8 -55h7c14 0 30 -2 46 -4l10 59h33l-11 -64c18 -3 39 -8 57 -12
c6 -41 9 -73 13 -115l-30 -5c-11 37 -22 67 -48 84l-77 -452c62 5 91 44 129 113zM311 27l79 465c-17 6 -34 9 -53 8l-77 -454c15 -11 32 -16 51 -19zM232 70l71 428c-74 -17 -122 -119 -122 -237c0 -91 21 -157 51 -191z" />
    <glyph glyph-name="franc.oldstyle" unicode="&#xe0a1;" horiz-adv-x="518" 
d="M473 403l-33 -6c-9 32 -17 50 -33 68c-15 17 -34 23 -84 23h-35c-24 0 -29 -5 -29 -28v-152c115 0 145 5 180 10v-66c-37 6 -69 10 -180 10v-82h132v-41h-132v-34c0 -65 7 -67 82 -73v-32h-282v32c61 7 71 8 71 73v34h-79v41h79v241c0 64 -8 70 -71 76v32h404
c1 -14 5 -70 10 -126z" />
    <glyph glyph-name="lira.oldstyle" unicode="&#xe0a7;" horiz-adv-x="518" 
d="M398 197h-155c-12 -25 -34 -60 -81 -87c38 4 67 2 114 -17c36 -15 77 -40 109 -40c23 0 32 12 32 29c0 12 -3 25 -8 34c-3 7 1 18 6 24c13 16 30 26 42 26c17 0 27 -21 27 -40c0 -47 -46 -96 -83 -123c-31 -22 -60 -35 -90 -35c-44 0 -103 35 -139 55
c-28 16 -44 23 -61 23c-15 0 -26 -16 -32 -37c-3 -10 -10 -15 -18 -15c-17 0 -33 16 -25 42c8 24 37 56 54 77c22 28 32 60 33 84h-89v40h88c-1 13 -2 30 -5 53h-83v40h79c0 9 -1 18 -1 26c0 46 30 107 94 148c32 21 70 35 107 37c43 0 79 -15 98 -34c13 -14 14 -31 6 -46
c-5 -11 -16 -23 -26 -30s-20 -10 -32 0c-33 30 -71 55 -100 55c-26 0 -36 -19 -36 -48c0 -32 13 -80 20 -108h155v-40h-148c3 -20 4 -39 2 -53h146v-40z" />
    <glyph glyph-name="numbersign.oldstyle" unicode="&#xe0b4;" horiz-adv-x="536" 
d="M498 383l-11 -83h-104l-29 -121h92l-13 -83h-98l-41 -167h-49l40 167h-96l-40 -167h-50l40 167h-105l11 83h114l28 121h-98l10 83h108l35 144h50l-35 -144h97l34 144h49l-34 -144h95zM334 300h-96l-29 -121h96z" />
    <glyph glyph-name="percent.oldstyle" unicode="&#xf642;" horiz-adv-x="748" 
d="M560 528l-343 -558l-36 26l341 558zM197 542c104 0 147 -89 147 -155c0 -69 -43 -157 -150 -157c-108 0 -151 92 -151 156c0 68 44 156 154 156zM194 508c-40 0 -51 -80 -51 -120c0 -43 11 -124 51 -124c41 0 50 83 50 123c0 44 -7 121 -50 121zM559 301
c104 0 147 -89 147 -156c0 -68 -43 -157 -150 -157c-109 0 -152 92 -152 157c0 68 44 156 155 156zM556 267c-41 0 -52 -81 -52 -121c0 -43 11 -124 52 -124s50 83 50 124c0 44 -7 121 -50 121z" />
    <glyph glyph-name="perthousand.oldstyle" unicode="&#xf628;" horiz-adv-x="1071" 
d="M560 528l-343 -558l-36 26l341 558zM197 542c104 0 147 -89 147 -156c0 -68 -43 -157 -150 -157c-108 0 -151 92 -151 157c0 68 44 156 154 156zM194 508c-40 0 -51 -80 -51 -121c0 -42 11 -125 51 -125c41 0 50 85 50 125c0 44 -7 121 -50 121zM559 301
c104 0 147 -89 147 -156c0 -68 -43 -157 -150 -157c-109 0 -152 92 -152 157c0 68 44 156 155 156zM556 267c-41 0 -52 -81 -52 -121c0 -43 11 -124 52 -124s50 83 50 124c0 44 -7 121 -50 121zM886 301c104 0 147 -89 147 -156c0 -68 -43 -157 -150 -157
c-108 0 -151 92 -151 157c0 68 44 156 154 156zM883 267c-40 0 -51 -81 -51 -121c0 -43 11 -124 51 -124c41 0 50 83 50 124c0 44 -7 121 -50 121z" />
    <glyph glyph-name="estimated.oldstyle" unicode="&#xe091;" horiz-adv-x="696" 
d="M654 257h-496c-2 0 -4 -1 -4 -3v-150c0 -7 3 -13 7 -18c47 -49 114 -80 189 -80c78 0 148 35 196 90h44c-55 -64 -143 -107 -242 -107c-169 0 -306 123 -306 276c0 152 137 275 306 275s306 -123 306 -275v-8zM542 276v151c0 8 -3 14 -8 19c-47 48 -113 77 -184 77
c-74 0 -141 -31 -188 -80c-5 -5 -8 -11 -8 -19v-148c0 -2 2 -4 4 -4h381c2 0 3 2 3 4z" />
    <glyph glyph-name="zero.fitted" unicode="&#xf639;" horiz-adv-x="524" 
d="M264 635c167 0 220 -178 220 -323c0 -146 -53 -324 -222 -324c-168 0 -222 179 -222 323c0 149 57 324 224 324zM261 595c-67 0 -84 -145 -84 -280c0 -141 18 -287 86 -287c67 0 84 146 84 286c0 136 -17 281 -86 281z" />
    <glyph glyph-name="one.fitted" unicode="&#xf6dc;" horiz-adv-x="370" 
d="M345 0h-303v33c85 5 88 13 88 89v372c0 45 -6 52 -43 56l-52 4v29c70 11 139 29 223 52v-513c0 -76 2 -84 87 -89v-33z" />
    <glyph glyph-name="two.fitted" unicode="&#xf63a;" horiz-adv-x="494" 
d="M442 172l29 -9c-16 -58 -28 -121 -39 -163h-401v25c53 51 111 107 160 165c70 83 109 156 109 232c0 69 -35 120 -104 120c-60 0 -103 -40 -135 -87l-27 23l63 95c37 37 90 62 152 62c100 0 181 -66 181 -178c0 -83 -47 -142 -141 -235l-118 -114h162c60 0 72 1 109 64z
" />
    <glyph glyph-name="three.fitted" unicode="&#xf63b;" horiz-adv-x="484" 
d="M295 385v-2c96 -18 149 -84 149 -159c0 -170 -218 -236 -280 -236c-50 0 -91 17 -111 33c-17 13 -24 26 -24 40c0 19 16 36 29 46c12 9 24 11 37 1c22 -19 71 -65 131 -65c50 0 88 36 88 134c0 97 -68 136 -119 136c-18 0 -39 -2 -54 -6l-7 32c85 27 144 69 144 130
s-39 89 -84 89c-53 0 -92 -37 -120 -76l-26 24l49 68c27 32 75 61 141 61h1c104 0 163 -57 163 -133c0 -26 -12 -50 -32 -66c-17 -15 -42 -30 -75 -51z" />
    <glyph glyph-name="four.fitted" unicode="&#xf63c;" horiz-adv-x="523" 
d="M496 176h-90v-67c0 -60 7 -69 81 -76v-33h-298v33c85 7 90 20 90 80v63h-254v35c108 152 217 300 312 418h69v-398h90v-55zM279 231v257h-2c-49 -66 -111 -154 -174 -257h176z" />
    <glyph glyph-name="five.fitted" unicode="&#xf63d;" horiz-adv-x="484" 
d="M137 515l-26 -150c49 19 106 34 132 34c128 0 201 -83 201 -172c0 -63 -31 -123 -101 -173c-56 -40 -127 -65 -188 -66c-40 0 -82 14 -103 32c-20 16 -25 26 -25 41c0 16 14 38 32 51c11 9 22 5 35 -6c24 -22 72 -61 127 -61c65 0 95 53 95 130c0 92 -56 152 -147 152
c-46 0 -89 -13 -110 -20l45 316h318l6 -10l-32 -98h-259z" />
    <glyph glyph-name="six.fitted" unicode="&#xf63e;" horiz-adv-x="532" 
d="M191 359l52 24c24 11 42 19 58 19c116 0 192 -73 192 -186c0 -127 -96 -228 -228 -228c-127 0 -225 96 -225 252c0 212 152 330 266 368c58 19 113 27 151 33l6 -37c-29 -7 -72 -19 -106 -36c-50 -25 -137 -82 -166 -209zM249 333c-24 0 -45 -4 -64 -11
c-6 -21 -7 -49 -7 -83c0 -133 53 -211 106 -211c62 0 77 64 77 142c0 92 -43 163 -112 163z" />
    <glyph glyph-name="seven.fitted" unicode="&#xf63f;" horiz-adv-x="497" 
d="M463 623l9 -12c-95 -201 -195 -406 -286 -611l-104 -12l-7 13c117 175 218 351 303 514h-216c-67 0 -75 -5 -103 -64h-32c13 78 19 129 26 172h410z" />
    <glyph glyph-name="eight.fitted" unicode="&#xf640;" horiz-adv-x="520" 
d="M270 635c109 0 183 -65 183 -154c0 -26 -10 -51 -32 -73c-16 -14 -36 -31 -76 -56c70 -37 135 -86 135 -174c0 -126 -126 -190 -223 -190c-125 0 -217 61 -217 169c0 47 24 71 42 88c18 16 63 44 93 61c-58 32 -109 81 -109 155c0 95 84 174 204 174zM255 597
c-47 0 -74 -44 -74 -86c0 -69 51 -105 128 -141c17 16 37 47 37 106c0 86 -52 121 -91 121zM268 26c61 0 93 45 91 110c-3 76 -66 111 -149 152c-28 -22 -50 -67 -50 -120c0 -97 59 -142 108 -142z" />
    <glyph glyph-name="nine.fitted" unicode="&#xf641;" horiz-adv-x="527" 
d="M269 635c145 0 217 -116 217 -251c0 -171 -101 -309 -248 -366c-39 -16 -126 -32 -170 -33l-5 33c148 27 250 136 276 257l-50 -27c-24 -12 -40 -17 -57 -17c-120 0 -193 84 -193 189c0 89 77 215 230 215zM247 596c-57 0 -76 -76 -76 -136c0 -85 46 -160 119 -160
c25 0 41 7 55 13c4 34 5 58 5 75c0 97 -25 208 -103 208z" />
    <glyph glyph-name="zero.slashfitted" unicode="&#xe201;" horiz-adv-x="524" 
d="M448 648l-40 -80c55 -62 75 -166 75 -256c0 -146 -53 -324 -221 -324c-47 0 -84 14 -115 37l-39 -74l-32 19l43 81c-57 63 -79 168 -79 261c0 148 58 323 224 323c48 0 86 -15 117 -39l35 70zM182 173l151 334c-12 53 -35 88 -72 88c-63 0 -89 -115 -89 -282
c0 -46 4 -102 10 -140zM344 445l-151 -337c12 -46 37 -80 70 -80c67 0 89 122 89 287c0 40 -2 95 -8 130z" />
    <glyph glyph-name="dollar.fitted" unicode="&#xe08d;" horiz-adv-x="503" 
d="M272 381l38 -14c75 -28 148 -80 148 -169c-1 -105 -73 -173 -186 -186v-83h-41v80c-83 1 -145 30 -165 42c-8 24 -19 90 -27 142l32 6c18 -47 61 -140 160 -149v211l-31 13c-90 36 -147 88 -147 165c0 92 64 160 178 175v75h41v-72c31 0 67 -5 92 -12c14 -4 24 -7 36 -9
c7 -36 15 -71 23 -133l-32 -5c-16 50 -43 109 -119 120v-197zM231 397v181c-54 -8 -80 -49 -80 -89c0 -48 35 -74 80 -92zM272 247v-195c45 8 81 39 81 99c0 24 -6 59 -68 89z" />
    <glyph glyph-name="cent.fitted" unicode="&#xe089;" horiz-adv-x="498" 
d="M435 231l19 -27c-36 -52 -87 -92 -145 -103v-96h-40v93c-143 5 -224 102 -224 202c0 73 36 139 101 184c38 27 82 43 123 49v82h40v-78c7 1 12 1 17 1c29 0 73 -7 96 -23c12 -9 15 -20 15 -30c0 -28 -27 -50 -39 -50c-4 0 -8 0 -18 11c-24 27 -47 42 -71 46v-311
c54 1 92 19 126 50zM269 188v307c-44 -5 -107 -44 -107 -148c0 -99 54 -145 107 -159z" />
    <glyph glyph-name="Euro.fitted" unicode="&#xe022;" horiz-adv-x="604" 
d="M529 157l31 -12c-10 -42 -29 -102 -46 -134c-21 -7 -89 -23 -140 -23c-175 0 -268 104 -288 259h-73l15 40h54c-2 16 1 41 3 60h-52l14 40h44c31 158 153 250 304 250c62 0 113 -16 135 -23c6 -48 11 -88 17 -134l-32 -8c-24 79 -69 125 -133 125
c-74 0 -136 -76 -154 -210h299l-15 -40h-288c-2 -20 -1 -41 0 -60h266l-15 -40h-247c17 -145 77 -217 156 -217c57 0 98 39 145 127z" />
    <glyph glyph-name="florin.fitted" unicode="&#xe09e;" horiz-adv-x="502" 
d="M163 376l7 37c15 79 46 133 104 180c66 52 116 59 139 59c29 0 71 -20 70 -51c-1 -24 -27 -56 -44 -57c-17 0 -49 55 -79 55c-13 0 -22 -9 -28 -26c-7 -17 -15 -54 -33 -197h106v-46h-113l-22 -142c-31 -200 -97 -250 -161 -293c-35 -23 -70 -33 -95 -33
c-29 0 -61 20 -61 46c0 29 33 59 50 59c13 0 45 -45 72 -45c12 0 20 8 24 22c7 24 13 64 23 140l33 246h-87v46h95z" />
    <glyph glyph-name="sterling.fitted" unicode="&#xe0dc;" horiz-adv-x="510" 
d="M403 289h-154c1 -5 1 -9 1 -15c0 -64 -57 -119 -111 -148c40 1 77 -4 111 -19c47 -19 104 -43 140 -43c29 0 38 9 38 24s-3 29 -7 39c-3 7 -2 16 3 24c14 17 27 27 40 27c17 0 26 -20 26 -41c0 -50 -47 -100 -85 -127c-35 -25 -69 -37 -103 -37c-48 0 -102 35 -146 59
c-31 17 -50 22 -68 22c-15 0 -28 -16 -33 -40c-3 -11 -8 -17 -16 -17c-17 0 -32 15 -23 45c8 28 44 63 64 91c28 36 39 75 39 112c0 16 -1 31 -3 44h-95v46h87c-4 36 -8 60 -8 85c0 52 25 121 95 171c35 25 75 42 115 44c49 0 86 -22 101 -38c11 -13 14 -28 4 -46
c-8 -12 -18 -21 -26 -27c-11 -5 -21 -6 -34 3c-31 23 -65 49 -101 49c-29 0 -42 -20 -42 -63c0 -48 18 -109 32 -178h159v-46z" />
    <glyph glyph-name="yen.fitted" unicode="&#xe100;" horiz-adv-x="500" 
d="M496 623v-35c-47 -6 -57 -16 -88 -68c-25 -42 -50 -90 -93 -183h131v-42h-138v-29v-46h139v-42h-139v-39c0 -89 8 -99 90 -104v-35h-303v35c79 5 86 15 86 105v38h-140v42h140v34v41h-140v42h128c-20 46 -44 98 -82 176c-31 62 -44 69 -84 75v35h242v-35l-23 -4
c-24 -5 -28 -13 -21 -33c30 -72 59 -136 82 -189c27 58 59 129 74 170c12 33 13 47 -18 52l-26 4v35h183z" />
    <glyph glyph-name="colonmonetary.fitted" unicode="&#xe08a;" horiz-adv-x="599" 
d="M528 170l31 -11c-11 -48 -32 -110 -45 -134c-22 -7 -87 -24 -143 -25l-11 -69h-37l12 71c-24 2 -44 5 -63 10l-15 -80h-36l16 89c-145 40 -199 165 -199 283c0 171 112 298 297 316l11 63h37l-10 -60h7c15 0 34 -2 57 -4l11 64h37l-12 -71c20 -4 39 -9 60 -13
c7 -42 12 -82 17 -126l-33 -5c-10 40 -24 74 -54 91l-85 -521c71 5 106 50 150 132zM341 40l89 536c-20 8 -42 10 -64 9l-87 -525c19 -10 40 -17 62 -20zM247 85l82 497c-97 -22 -150 -138 -150 -274c0 -97 25 -182 68 -223z" />
    <glyph glyph-name="franc.fitted" unicode="&#xe0a0;" horiz-adv-x="520" 
d="M482 482l-34 -6c-10 38 -20 61 -37 80c-17 21 -38 28 -84 28h-38c-32 0 -37 -5 -37 -33v-195c133 0 152 4 191 12v-71c-42 7 -63 11 -191 11v-105h154v-42h-154v-38c0 -78 8 -85 91 -91v-32h-300v32c70 6 79 14 79 91v38h-88v42h88v299c0 75 -9 82 -79 89v32h428
c1 -16 6 -83 11 -141z" />
    <glyph glyph-name="lira.fitted" unicode="&#xe0a6;" horiz-adv-x="529" 
d="M415 237h-155c-14 -44 -55 -85 -104 -111c42 1 78 -5 111 -19c50 -20 97 -44 133 -44c29 0 37 11 37 26s-3 28 -7 38c-4 7 -2 17 3 24c13 18 31 28 43 28c17 0 27 -18 27 -42c0 -50 -49 -102 -85 -128c-35 -24 -68 -36 -103 -36c-45 0 -97 33 -142 59
c-31 17 -47 21 -64 21c-15 0 -27 -15 -33 -42c-2 -11 -8 -16 -15 -16c-17 0 -37 16 -28 47c9 27 44 64 65 91c25 35 35 69 37 104h-96v42h95c-2 21 -6 38 -10 61h-85v42h80c-1 10 -2 24 -2 37c0 53 25 122 96 172c36 25 72 42 113 44c50 0 82 -22 98 -38
c11 -12 13 -29 3 -46c-7 -12 -18 -21 -25 -26c-9 -6 -21 -7 -34 2c-30 23 -62 50 -96 50c-30 0 -42 -20 -42 -63c0 -39 12 -91 21 -132h165v-42h-156c5 -22 7 -41 8 -61h148z" />
    <glyph glyph-name="numbersign.fitted" unicode="&#xe0b3;" horiz-adv-x="496" 
d="M480 469l-11 -82h-104l-29 -121h92l-13 -82h-98l-41 -169h-49l40 169h-96l-40 -169h-50l40 169h-105l11 82h114l28 121h-98l10 82h108l35 145h50l-35 -145h96l35 145h49l-34 -145h95zM316 387h-96l-29 -121h96z" />
    <glyph glyph-name="zero.taboldstyle" unicode="&#xf643;" horiz-adv-x="523" 
d="M263 458c129 0 225 -100 225 -233c0 -141 -99 -237 -226 -237c-134 0 -226 103 -226 235c1 137 100 235 227 235zM261 401c-57 0 -105 -62 -105 -178c0 -120 50 -178 107 -178s106 63 106 178s-49 178 -108 178z" />
    <glyph glyph-name="one.taboldstyle" unicode="&#xf644;" horiz-adv-x="523" 
d="M438 0h-336v34l57 6c44 4 48 21 48 71v205c0 44 -4 55 -41 57l-55 2v32c69 8 142 26 222 51v-347c0 -50 4 -66 48 -71l57 -6v-34z" />
    <glyph glyph-name="two.taboldstyle" unicode="&#xf645;" horiz-adv-x="523" 
d="M481 137l-36 -137h-385v27c83 53 230 138 230 251c0 50 -27 92 -88 92c-52 0 -87 -37 -116 -78l-28 22l59 85c33 34 76 58 139 58c97 0 165 -62 165 -146c0 -64 -34 -111 -139 -180c-17 -11 -36 -23 -54 -35v-2h128c53 0 67 2 93 53z" />
    <glyph glyph-name="three.taboldstyle" unicode="&#xf646;" horiz-adv-x="523" 
d="M293 213v-2c94 -12 145 -75 145 -143c0 -164 -212 -232 -267 -232c-43 0 -84 18 -102 35c-13 11 -20 24 -14 42c4 13 15 29 29 38c10 8 21 7 29 -1c24 -21 69 -58 114 -58c43 0 81 36 81 124c0 90 -57 127 -105 127c-22 0 -42 -4 -59 -10l-8 33c83 33 139 68 139 135
c0 54 -34 82 -77 82c-40 0 -73 -31 -100 -67l-24 22l44 62c26 32 73 58 126 58h1c95 0 152 -52 152 -132c0 -26 -13 -47 -34 -65c-15 -13 -39 -30 -70 -48z" />
    <glyph glyph-name="four.taboldstyle" unicode="&#xf647;" horiz-adv-x="523" 
d="M498 87l-10 -67h-81v-177h-122v177h-250v43c72 108 222 304 297 395h75v-371h91zM285 87v244l-2 1c-56 -75 -108 -154 -167 -245h169z" />
    <glyph glyph-name="five.taboldstyle" unicode="&#xf648;" horiz-adv-x="523" 
d="M173 335l-15 -75c123 -1 270 -45 270 -191c0 -66 -33 -123 -106 -169c-66 -42 -167 -64 -243 -64l-4 37c76 13 230 51 230 171c0 89 -98 117 -207 116l41 271l288 27l-15 -101z" />
    <glyph glyph-name="six.taboldstyle" unicode="&#xf649;" horiz-adv-x="523" 
d="M466 609l6 -40c-32 -6 -73 -19 -108 -37c-41 -22 -132 -71 -173 -187l50 24c21 11 40 18 57 18c112 0 187 -74 187 -184c0 -116 -89 -215 -223 -215c-128 0 -220 93 -220 239c0 205 162 317 276 352c64 19 110 25 148 30zM245 319c-21 0 -40 -4 -59 -14
c-5 -19 -7 -39 -7 -73c0 -128 50 -202 100 -202c58 0 76 62 76 133c0 89 -40 156 -110 156z" />
    <glyph glyph-name="seven.taboldstyle" unicode="&#xf64a;" horiz-adv-x="523" 
d="M471 447l10 -14c-54 -99 -211 -393 -308 -580l-101 -17l-7 15c132 180 238 351 320 491h-322v105h408z" />
    <glyph glyph-name="eight.taboldstyle" unicode="&#xf64b;" horiz-adv-x="523" 
d="M268 608c107 0 176 -65 176 -147c0 -25 -10 -49 -28 -67c-11 -11 -35 -30 -76 -55c69 -37 130 -82 130 -173c0 -117 -118 -178 -214 -178c-116 0 -203 59 -203 162c0 42 23 70 41 87c20 18 59 40 86 54c-60 32 -107 80 -107 149c0 91 80 168 195 168zM256 570
c-42 0 -73 -39 -73 -85c0 -55 47 -90 126 -129c15 16 34 48 34 101c0 82 -49 113 -87 113zM268 26c54 0 87 38 85 98c-3 71 -59 107 -144 151c-24 -23 -45 -65 -45 -117c0 -89 54 -132 104 -132z" />
    <glyph glyph-name="nine.taboldstyle" unicode="&#xf64c;" horiz-adv-x="523" 
d="M267 458c141 0 214 -110 214 -239c0 -199 -134 -308 -277 -353c-42 -13 -130 -29 -173 -30l-6 33c140 29 270 120 302 229l-37 -16c-24 -10 -41 -16 -55 -16c-123 0 -195 77 -195 179c0 96 79 213 227 213zM247 418c-53 0 -74 -68 -74 -127c0 -93 49 -161 120 -161
c18 0 31 4 42 9c7 23 9 48 9 88c0 91 -25 191 -97 191z" />
    <glyph glyph-name="dollar.taboldstyle" unicode="&#xf653;" horiz-adv-x="523" 
d="M284 286l19 -6c102 -25 163 -64 163 -144c0 -84 -73 -136 -182 -146v-78h-40v77c-73 2 -138 25 -157 37c-7 18 -20 65 -30 126l34 9c21 -51 72 -124 153 -133v149l-28 8c-91 23 -145 61 -145 133c0 76 61 135 173 144v68h40v-66c39 -1 85 -8 126 -25
c8 -28 16 -60 23 -115l-35 -8c-15 50 -46 99 -114 109v-139zM244 295v129c-55 -3 -79 -34 -79 -63c0 -35 28 -53 79 -66zM284 167v-138c39 4 79 27 79 66c0 31 -19 55 -79 72z" />
    <glyph glyph-name="cent.taboldstyle" unicode="&#xf654;" horiz-adv-x="523" 
d="M450 144l21 -26c-34 -49 -85 -90 -142 -100v-97h-41v94c-142 5 -222 102 -222 202c0 72 38 139 99 183c38 27 85 44 123 51v82h41v-78c8 1 13 1 17 1c33 0 71 -7 94 -23c11 -9 15 -20 15 -31c0 -31 -25 -53 -38 -53c-5 0 -9 0 -18 10c-25 27 -48 45 -70 49v-314
c52 0 94 26 121 50zM288 101v310c-41 -1 -106 -38 -106 -144c0 -104 54 -153 106 -166z" />
    <glyph glyph-name="Euro.taboldstyle" unicode="&#xf64e;" horiz-adv-x="523" 
d="M465 138l31 -10c-9 -38 -25 -93 -39 -119c-20 -6 -76 -21 -118 -21c-162 0 -235 86 -254 213h-62l13 40h45c-1 18 1 36 4 56h-45l15 39h36c30 132 132 205 265 205c54 0 99 -17 116 -21c6 -39 10 -74 15 -120l-32 -7c-19 64 -52 108 -105 108c-66 0 -104 -66 -119 -165
h235l-14 -39h-226c-1 -17 -2 -39 0 -56h211l-15 -40h-193c12 -105 48 -173 119 -173c48 0 75 32 117 110z" />
    <glyph glyph-name="florin.taboldstyle" unicode="&#xf64f;" horiz-adv-x="523" 
d="M186 308l5 27c13 75 51 127 101 167c59 47 103 53 127 53c30 0 64 -15 63 -46c-1 -30 -28 -59 -48 -59c-19 0 -39 56 -66 56c-11 0 -19 -7 -23 -24c-5 -17 -8 -58 -25 -174h101l-1 -46h-106l-16 -102c-30 -183 -98 -238 -156 -276c-30 -20 -60 -29 -86 -29
c-28 0 -54 19 -54 45c0 29 30 56 45 56c18 0 44 -44 65 -44c11 0 19 10 22 24c5 21 10 49 19 118l26 208h-81v46h88z" />
    <glyph glyph-name="sterling.taboldstyle" unicode="&#xf651;" horiz-adv-x="523" 
d="M396 241h-139c0 -5 -1 -9 -1 -13c-5 -44 -38 -88 -94 -119c40 3 73 1 110 -16c36 -16 79 -41 113 -41c23 0 32 10 32 28c0 11 -3 25 -7 35c-2 6 1 17 7 23c12 15 28 26 40 26c17 0 27 -21 27 -40c0 -46 -46 -96 -84 -123c-30 -22 -62 -33 -92 -33c-44 0 -101 34 -139 55
c-25 14 -39 21 -57 21c-15 0 -29 -16 -33 -36c-3 -10 -8 -15 -16 -15c-17 0 -35 16 -27 42c8 23 37 55 54 76c27 33 36 65 36 92c0 16 -1 28 -3 38h-85v44h78c-4 23 -5 40 -5 57c0 50 31 116 94 157c32 20 70 34 107 36c43 0 80 -14 101 -35c11 -12 12 -29 4 -44
c-6 -10 -16 -22 -26 -29s-21 -10 -32 0c-34 30 -70 56 -99 56c-26 0 -38 -18 -38 -48c0 -42 22 -100 30 -150h144v-44z" />
    <glyph glyph-name="yen.taboldstyle" unicode="&#xf652;" horiz-adv-x="523" 
d="M499 533v-34c-43 -5 -56 -19 -83 -57c-20 -31 -50 -81 -84 -142h113v-40h-124v-20v-48h125v-40h-125v-36c0 -65 12 -78 78 -82v-34h-279v34c68 4 74 18 74 86v32h-123v40h123v31v37h-123v40h109c-16 40 -38 87 -69 147c-19 35 -31 43 -77 53v33h238v-34l-20 -5
c-19 -4 -20 -15 -16 -26c15 -37 41 -101 62 -149c28 49 51 100 66 131c14 30 9 38 -22 45l-18 4v34h175z" />
    <glyph glyph-name="colonmonetary.taboldstyle" unicode="&#xf64d;" horiz-adv-x="523" 
d="M443 138l30 -13c-10 -40 -25 -90 -36 -115c-19 -5 -72 -19 -112 -20l-11 -62h-30l10 64c-20 2 -33 3 -44 7l-13 -71h-31l14 78c-124 40 -170 141 -170 253c0 167 115 265 250 273l9 57h31l-8 -55h6c12 0 25 -2 40 -4l8 59h31l-10 -64c16 -4 37 -9 54 -12
c4 -42 8 -73 11 -115l-31 -6c-10 36 -18 65 -41 82l-70 -444c56 5 79 40 113 108zM299 31l72 458c-12 5 -28 7 -44 7l-71 -450c12 -9 25 -13 43 -15zM229 70l66 424c-68 -17 -107 -117 -107 -233c0 -93 14 -157 41 -191z" />
    <glyph glyph-name="franc.taboldstyle" unicode="&#xe0a2;" horiz-adv-x="523" 
d="M472 401l-33 -6c-9 32 -15 50 -31 68c-15 17 -29 23 -78 23h-36c-24 0 -29 -5 -29 -28v-149c115 0 138 4 173 9v-66c-38 6 -62 9 -173 9v-81h116v-43h-116v-30c0 -65 7 -67 82 -73v-34h-282v34c61 7 71 8 71 73v30h-70v43h70v238c0 65 -8 71 -71 77v34h397
c1 -14 5 -72 10 -128z" />
    <glyph glyph-name="lira.taboldstyle" unicode="&#xe0a8;" horiz-adv-x="523" 
d="M400 196h-154c-12 -24 -33 -59 -80 -86c37 4 65 2 113 -17c36 -15 77 -40 109 -40c23 0 32 11 32 29c0 12 -3 25 -8 34c-3 7 1 18 6 24c13 16 30 26 42 26c17 0 27 -22 27 -40c0 -46 -46 -97 -83 -124c-30 -22 -58 -34 -89 -34c-43 0 -103 35 -139 55
c-28 16 -44 23 -61 23c-15 0 -26 -16 -32 -37c-3 -10 -10 -15 -18 -15c-17 0 -33 16 -25 42c8 24 37 56 54 77c22 28 32 60 33 83h-88v40h87c-1 13 -2 30 -5 54h-83v40h79c0 9 -1 18 -1 26c0 45 30 107 94 148c32 21 70 35 106 37c44 0 80 -15 99 -34c13 -15 14 -32 6 -47
c-5 -11 -16 -22 -26 -29s-20 -10 -32 0c-34 30 -71 53 -100 53c-26 0 -36 -19 -36 -48c0 -32 12 -78 19 -106h155v-40h-147c3 -21 4 -39 2 -54h144v-40z" />
    <glyph glyph-name="numbersign.taboldstyle" unicode="&#xf650;" horiz-adv-x="523" 
d="M485 383l-12 -83h-93l-30 -121h82l-12 -83h-89l-41 -167h-49l40 167h-96l-40 -167h-51l41 167h-94l11 83h102l29 121h-87l10 83h97l35 144h50l-35 -144h97l34 144h49l-34 -144h86zM330 300h-96l-29 -121h96z" />
    <glyph glyph-name="a.superior" horiz-adv-x="335" 
d="M318 307l-74 -36c-35 0 -50 22 -57 37c-23 -17 -56 -37 -74 -37c-49 0 -85 40 -85 80c0 32 18 53 55 66c27 11 81 25 102 39v16c0 29 -17 46 -39 46s-35 -23 -44 -53c-4 -14 -13 -20 -26 -20c-19 0 -43 14 -43 35c0 11 7 20 23 31c18 12 63 36 113 45c53 0 99 -26 99 -90
v-106c0 -26 10 -35 21 -35c8 0 15 3 23 6zM185 335v91c-10 -5 -27 -12 -38 -19c-19 -9 -28 -20 -28 -39c0 -31 23 -43 38 -43c11 0 19 4 28 10z" />
    <glyph glyph-name="b.superior" unicode="&#xf6ea;" horiz-adv-x="385" 
d="M153 533l23 10c21 8 34 13 49 13c77 0 133 -61 133 -130c0 -89 -78 -156 -177 -156c-42 0 -74 7 -119 25v326c1 36 -1 39 -43 43v27c33 3 86 12 134 22v-180zM153 505v-152c0 -9 1 -19 5 -25c4 -7 18 -23 39 -24c25 0 64 35 64 104c0 78 -48 102 -82 102
c-11 0 -16 -1 -26 -5z" />
    <glyph glyph-name="d.superior" unicode="&#xf6eb;" horiz-adv-x="392" 
d="M375 321v-27c-23 -2 -88 -10 -139 -25v34l-39 -23c-10 -6 -21 -10 -31 -10c-58 0 -139 44 -139 134c0 85 77 152 181 152c6 0 16 -2 28 -4v70c0 35 -2 37 -47 43v26c34 3 90 12 138 21v-358c0 -26 4 -29 21 -30zM236 333v155c-12 26 -30 34 -46 34
c-18 0 -62 -12 -62 -102c0 -73 42 -99 70 -99c13 0 24 4 38 12z" />
    <glyph glyph-name="e.superior" unicode="&#xf6ec;" horiz-adv-x="316" 
d="M183 556c60 0 110 -47 110 -102c0 -19 -3 -24 -17 -27c-8 -2 -99 -7 -162 -9c0 -50 43 -85 91 -85c25 0 47 7 74 25l13 -19c-44 -56 -97 -68 -121 -68c-91 0 -143 59 -144 132c-1 77 63 153 156 153zM117 450l80 2c10 0 13 3 13 17c0 24 -20 57 -42 57h-1
c-22 0 -47 -27 -50 -76z" />
    <glyph glyph-name="egrave.superior" unicode="&#xe090;" horiz-adv-x="316" 
d="M199 585l-24 -8c-34 37 -72 75 -91 97l3 8c9 7 62 15 75 13c13 -37 25 -73 37 -110zM183 556c60 0 110 -47 110 -102c0 -19 -3 -24 -17 -27c-8 -2 -99 -7 -162 -9c0 -50 43 -85 91 -85c25 0 47 7 74 25l13 -19c-44 -56 -97 -68 -121 -68c-91 0 -143 59 -144 132
c-1 77 63 153 156 153zM117 450l80 2c10 0 13 3 13 17c0 24 -20 57 -42 57h-1c-22 0 -47 -27 -50 -76z" />
    <glyph glyph-name="g.superior" unicode="&#xe0a3;" horiz-adv-x="346" 
d="M343 546l4 -4c-4 -11 -17 -33 -29 -40l-38 3c10 -13 17 -26 17 -47c0 -68 -69 -98 -133 -98c-12 0 -22 2 -32 3c-6 -5 -10 -10 -10 -16c0 -11 10 -19 42 -19c22 0 41 1 63 1c44 0 107 -17 107 -79c0 -72 -89 -127 -184 -127c-87 0 -131 41 -131 75c0 14 8 26 21 35
c17 13 36 20 54 29c-28 9 -44 22 -53 35c-8 10 -11 25 -10 33c35 12 59 28 72 39c-41 13 -69 46 -69 84c0 68 74 102 134 102c29 0 53 -5 77 -16c35 1 71 5 98 7zM163 530c-18 0 -37 -24 -37 -68c0 -42 15 -74 45 -74c26 0 39 23 39 67c0 28 -8 75 -47 75zM168 258
c-31 0 -45 -3 -54 -12s-15 -17 -15 -29c0 -29 32 -57 85 -57c50 0 79 24 79 55c0 22 -16 33 -37 38c-19 4 -35 5 -58 5z" />
    <glyph glyph-name="h.superior" unicode="&#xf637;" horiz-adv-x="407" 
d="M381 278h-165v26c33 6 35 11 35 47v97c0 41 -22 54 -47 54c-19 0 -34 -7 -48 -19v-132c0 -36 4 -41 31 -47v-26h-165v26c40 5 43 11 43 46v272c0 38 0 40 -43 45v25c31 3 87 12 134 22v-200l35 23c23 14 38 20 60 20c57 0 91 -35 91 -92v-114c0 -36 2 -41 39 -47v-26z
" />
    <glyph glyph-name="i.superior" unicode="&#xf6ed;" horiz-adv-x="219" 
d="M107 704c29 0 51 -23 51 -52s-22 -53 -52 -53c-28 0 -52 24 -52 53s24 52 53 52zM196 278h-171v27c38 4 41 11 41 45v120c0 33 -2 38 -40 42v24c41 4 86 12 127 21h5v-205c0 -36 4 -41 38 -47v-27z" />
    <glyph glyph-name="l.superior" unicode="&#xf6ee;" horiz-adv-x="219" 
d="M200 278h-178v27c40 6 43 11 43 46v273c0 36 -2 41 -43 45v25c31 3 87 11 134 22v-365c0 -35 3 -40 44 -46v-27z" />
    <glyph glyph-name="m.superior" unicode="&#xf6ef;" horiz-adv-x="598" 
d="M571 278h-166v26c33 8 35 9 35 47v96c0 40 -20 56 -46 56c-17 0 -33 -5 -50 -20c1 -6 1 -12 1 -22v-110c0 -36 6 -41 32 -47v-26h-158v26c33 6 35 11 35 47v99c0 38 -20 53 -46 53c-19 0 -34 -8 -49 -19v-133c0 -36 5 -41 31 -47v-26h-168v26c43 6 46 11 46 47v115
c0 37 -4 40 -42 46v24c40 4 88 12 129 21h4v-45l35 24c23 15 38 21 63 21c39 0 67 -17 80 -47l44 28c22 13 37 19 59 19c58 0 91 -35 91 -97v-109c0 -36 4 -41 40 -47v-26z" />
    <glyph glyph-name="n.superior" unicode="&#x207f;" horiz-adv-x="410" 
d="M384 278h-165v26c33 6 35 11 35 47v97c0 40 -22 55 -47 55c-19 0 -34 -8 -48 -19v-133c0 -36 4 -41 31 -47v-26h-169v26c44 6 47 11 47 46v115c0 37 -1 40 -41 47v24c40 4 89 14 127 21h5v-44l35 23c23 14 38 21 60 21c57 0 91 -35 91 -91v-115c0 -36 2 -41 39 -47v-26z
" />
    <glyph glyph-name="o.superior" horiz-adv-x="369" 
d="M189 556c95 0 153 -67 152 -142c-2 -94 -73 -144 -157 -144c-106 0 -160 68 -158 140c2 93 86 146 163 146zM178 522c-23 0 -46 -27 -48 -99c-1 -68 24 -119 59 -119c23 0 48 19 50 94c2 78 -21 124 -61 124z" />
    <glyph glyph-name="r.superior" unicode="&#xf6f1;" horiz-adv-x="292" 
d="M153 498h2c7 13 15 25 27 38c11 12 27 21 45 21c25 0 46 -18 46 -45c0 -26 -17 -43 -33 -48c-10 -4 -16 -2 -21 2c-11 9 -22 17 -34 17s-25 -7 -32 -27v-105c0 -36 4 -41 55 -46v-27h-187v26c42 6 45 11 45 47v114c0 40 1 37 -40 47v24c38 4 82 12 125 21h2v-59z" />
    <glyph glyph-name="s.superior" unicode="&#xf6f2;" horiz-adv-x="289" 
d="M248 473l-24 -7c-25 40 -47 59 -72 59c-24 0 -39 -12 -39 -30c0 -15 22 -29 50 -38c50 -17 99 -39 99 -93c0 -66 -66 -93 -130 -93c-35 0 -82 16 -95 27c-5 16 -10 57 -10 78l24 5c17 -37 48 -78 88 -78c20 0 38 11 38 29s-20 33 -52 45c-35 14 -88 37 -88 88
c0 50 43 91 122 92c29 0 54 -7 70 -14c9 -14 18 -61 19 -70z" />
    <glyph glyph-name="t.superior" unicode="&#xf6f3;" horiz-adv-x="250" 
d="M233 305l-62 -27c-10 -4 -21 -7 -31 -7c-42 0 -75 21 -75 78v162h-39l-6 9l22 29h23v43l80 51l10 -6v-88h65c9 -6 7 -34 -6 -38h-59v-135c0 -45 20 -53 34 -53c13 0 26 4 36 9z" />
    <glyph glyph-name="zero.superior" unicode="&#x2070;" horiz-adv-x="348" 
d="M175 755c108 0 148 -96 148 -182c0 -89 -40 -183 -149 -183c-110 0 -149 93 -149 183c0 86 39 182 150 182zM173 721c-40 0 -48 -98 -48 -148c0 -49 8 -149 49 -149c40 0 49 100 49 149c0 50 -9 148 -50 148z" />
    <glyph glyph-name="one.superior" horiz-adv-x="348" 
d="M289 398h-219v29c50 4 61 13 61 65v154c0 38 -2 46 -35 49l-25 2v29c46 4 102 14 158 29v-263c0 -52 10 -61 60 -65v-29z" />
    <glyph glyph-name="two.superior" horiz-adv-x="348" 
d="M295 506l25 -7c-11 -34 -19 -67 -27 -101h-258v26c65 49 159 130 159 199c0 42 -22 66 -58 66c-34 0 -62 -25 -81 -49l-21 19l35 49c23 29 65 47 102 47c70 0 123 -41 123 -110c0 -49 -34 -82 -109 -142l-43 -34v-2h90c35 0 43 5 63 39z" />
    <glyph glyph-name="three.superior" horiz-adv-x="348" 
d="M208 605v-2c64 -9 97 -38 97 -81c0 -90 -130 -132 -182 -132c-31 0 -63 13 -74 22c-8 8 -12 20 -7 33c6 15 17 25 26 31c5 3 14 3 22 -3c22 -19 51 -42 75 -42c21 0 44 18 44 65c0 50 -31 69 -66 69c-16 0 -29 -2 -40 -6l-7 29c56 18 86 42 86 70c0 23 -18 39 -44 39
c-29 0 -54 -21 -70 -39l-18 18l34 45c18 18 51 35 90 35h1c68 0 105 -39 105 -79c0 -16 -9 -33 -19 -41s-29 -20 -53 -31z" />
    <glyph glyph-name="four.superior" unicode="&#x2074;" horiz-adv-x="348" 
d="M322 495h-55v-19c0 -34 9 -47 50 -51v-27h-201v27c53 4 60 16 60 51v19h-155v28c64 85 123 161 185 232h61v-215h55v-45zM176 540v129h-2c-30 -40 -57 -78 -92 -129h94z" />
    <glyph glyph-name="five.superior" unicode="&#x2075;" horiz-adv-x="348" 
d="M119 679l-14 -73c23 8 58 17 78 17c82 0 122 -45 122 -96c0 -36 -19 -69 -60 -96c-36 -23 -83 -40 -127 -41c-22 0 -52 11 -63 20s-14 19 -10 32c4 11 13 24 22 30s18 6 27 -3c13 -10 42 -38 71 -37c30 0 45 26 45 59c0 50 -37 77 -87 77c-23 0 -45 -6 -63 -11l27 192
h203l-15 -70h-156z" />
    <glyph glyph-name="six.superior" unicode="&#x2076;" horiz-adv-x="348" 
d="M132 604l30 13c14 7 26 11 39 11c72 0 117 -44 117 -109c0 -72 -60 -129 -145 -129c-82 0 -143 52 -143 141c0 120 91 186 160 207c38 12 68 16 104 20l6 -31c-20 -4 -42 -10 -65 -20c-32 -13 -85 -42 -103 -103zM163 582c-9 0 -22 -1 -35 -8c-3 -13 -4 -21 -4 -43
c0 -70 30 -108 59 -108c33 0 44 32 44 73c0 50 -26 86 -64 86z" />
    <glyph glyph-name="seven.superior" unicode="&#x2077;" horiz-adv-x="348" 
d="M307 748l5 -10c-58 -113 -118 -227 -174 -341l-65 -6l-7 10c63 93 123 186 175 278h-115c-42 0 -47 -3 -63 -37h-27c8 55 12 82 16 106h255z" />
    <glyph glyph-name="eight.superior" unicode="&#x2078;" horiz-adv-x="348" 
d="M177 756c70 0 117 -37 117 -84c0 -14 -5 -32 -17 -44c-10 -8 -22 -17 -46 -31c37 -16 80 -44 80 -97c0 -73 -77 -109 -144 -109c-71 0 -135 34 -135 97c0 23 12 39 28 52c13 12 33 22 47 29c-33 19 -63 44 -63 86c0 55 52 101 133 101zM167 724c-28 0 -42 -21 -42 -41
c0 -30 31 -51 78 -71c8 7 20 28 20 49c0 46 -34 63 -56 63zM176 423c33 0 53 26 52 49c-1 38 -35 57 -92 82c-12 -10 -27 -32 -27 -62c0 -43 33 -69 67 -69z" />
    <glyph glyph-name="nine.superior" unicode="&#x2079;" horiz-adv-x="348" 
d="M176 755c92 0 137 -68 137 -148c0 -94 -56 -166 -146 -199c-30 -11 -83 -20 -115 -21l-4 28c89 18 152 72 166 131l-29 -14c-13 -7 -23 -10 -33 -10c-76 0 -117 49 -118 107c0 60 51 126 142 126zM163 723c-26 0 -41 -31 -41 -73c0 -48 31 -81 66 -81c11 0 22 4 30 6
c2 18 3 28 3 39c0 53 -16 109 -58 109z" />
    <glyph glyph-name="period.superior" unicode="&#xf6e8;" horiz-adv-x="187" 
d="M92 366c-31 0 -63 25 -63 64s29 66 64 66c39 0 65 -30 65 -66c0 -37 -26 -64 -66 -64z" />
    <glyph glyph-name="comma.superior" unicode="&#xf6e2;" horiz-adv-x="187" 
d="M75 518c38 0 92 -33 92 -104c0 -73 -70 -116 -133 -132l-13 31c44 19 67 43 67 76c0 27 -21 48 -54 55c-5 1 -12 12 -12 32c0 24 24 42 53 42z" />
    <glyph glyph-name="dollar.superior" unicode="&#xf6e4;" horiz-adv-x="348" 
d="M190 619l16 -5c69 -18 113 -49 113 -109c-1 -66 -57 -104 -129 -112v-57h-31v55c-52 2 -98 21 -112 30c-4 14 -13 49 -18 96l26 8c11 -39 51 -93 104 -100v109l-16 4c-68 20 -107 53 -107 107c0 57 45 101 123 109v50h31v-49c25 0 56 -5 89 -21c6 -21 11 -47 16 -85
l-28 -5c-13 33 -34 72 -77 78v-103zM159 628v94c-36 -2 -55 -20 -55 -46c0 -27 24 -39 55 -48zM190 525v-100c32 3 54 17 54 46c0 24 -8 38 -54 54z" />
    <glyph glyph-name="cent.superior" unicode="&#xf6e0;" horiz-adv-x="348" 
d="M300 516l15 -23c-25 -35 -62 -57 -96 -63v-60h-31v57c-105 5 -154 72 -154 140c0 50 23 92 63 121c26 19 57 32 91 37v48h31v-47c4 1 7 1 9 1c23 0 49 -6 64 -16c10 -6 12 -14 12 -21c0 -20 -20 -33 -27 -33c-4 0 -7 2 -12 7c-16 13 -29 24 -46 28v-208c30 0 59 13 81 32
zM188 488v205c-26 -1 -69 -28 -69 -102c0 -66 38 -95 69 -103z" />
    <glyph glyph-name="hyphen.superior" unicode="&#xf6e6;" horiz-adv-x="268" 
d="M236 532h-204v61h204v-61z" />
    <glyph glyph-name="parenleft.superior" unicode="&#x207d;" horiz-adv-x="237" 
d="M208 301l-18 -21c-104 58 -154 164 -154 275v1c0 109 50 215 154 274l18 -21c-39 -38 -89 -136 -89 -254c0 -115 50 -215 89 -254z" />
    <glyph glyph-name="parenright.superior" unicode="&#x207e;" horiz-adv-x="237" 
d="M201 554c0 -110 -49 -216 -153 -274l-19 21c40 38 90 139 90 254c0 118 -51 215 -90 254l19 21c104 -59 153 -165 153 -276z" />
    <glyph glyph-name="zero.inferior" unicode="&#x2080;" horiz-adv-x="348" 
d="M175 259c108 0 148 -96 148 -182c0 -88 -40 -182 -149 -182c-110 0 -149 93 -149 182c0 86 39 182 150 182zM173 225c-40 0 -48 -97 -48 -148c0 -49 8 -148 49 -148c40 0 49 99 49 148c0 51 -9 148 -50 148z" />
    <glyph glyph-name="one.inferior" unicode="&#x2081;" horiz-adv-x="348" 
d="M289 -98h-219v29c50 4 61 13 61 65v154c0 38 -2 46 -35 49l-25 2v29c46 4 102 14 158 30v-264c0 -52 10 -61 60 -65v-29z" />
    <glyph glyph-name="two.inferior" unicode="&#x2082;" horiz-adv-x="348" 
d="M295 10l25 -7c-11 -34 -19 -67 -27 -101h-258v26c65 49 159 131 159 200c0 42 -22 66 -58 66c-34 0 -62 -25 -81 -50l-21 20l35 49c23 29 65 47 102 47c70 0 123 -41 123 -110c0 -49 -34 -83 -109 -143l-43 -34v-2h90c35 0 43 5 63 39z" />
    <glyph glyph-name="three.inferior" unicode="&#x2083;" horiz-adv-x="348" 
d="M208 110v-2c64 -9 97 -38 97 -82c0 -90 -130 -132 -182 -132c-31 0 -63 13 -74 22c-8 8 -11 20 -6 33c5 15 16 25 25 31c6 3 14 3 23 -3c22 -19 50 -42 74 -42c21 0 44 18 44 65c0 51 -30 70 -66 70c-15 0 -29 -3 -40 -6l-7 29c56 18 87 42 87 69c0 24 -19 39 -45 39
c-29 0 -54 -20 -69 -39l-19 19l34 44c18 18 51 35 91 35h1c67 0 104 -39 104 -79c0 -16 -9 -32 -19 -41c-10 -7 -29 -19 -53 -30z" />
    <glyph glyph-name="four.inferior" unicode="&#x2084;" horiz-adv-x="348" 
d="M322 0h-55v-20c0 -34 9 -47 50 -51v-27h-201v27c53 4 60 17 60 51v20h-155v28c64 85 123 161 185 232h61v-215h55v-45zM176 45v128h-2c-30 -39 -57 -77 -92 -128h94z" />
    <glyph glyph-name="five.inferior" unicode="&#x2085;" horiz-adv-x="348" 
d="M119 183l-14 -73c23 8 58 17 78 17c82 0 122 -45 122 -96c0 -36 -19 -69 -60 -96c-36 -23 -83 -40 -127 -41c-22 0 -52 11 -63 20s-14 19 -10 32c4 11 13 24 22 30s18 6 27 -2c13 -11 42 -39 71 -38c30 0 45 26 45 59c0 50 -37 77 -87 77c-23 0 -45 -6 -63 -11l27 192
h203l-15 -70h-156z" />
    <glyph glyph-name="six.inferior" unicode="&#x2086;" horiz-adv-x="348" 
d="M132 108l30 14c14 6 26 10 39 10c72 0 117 -44 117 -108c0 -72 -60 -129 -145 -129c-82 0 -143 52 -143 141c0 119 91 186 160 207c38 12 68 16 104 20l6 -31c-20 -4 -42 -10 -65 -20c-32 -13 -85 -43 -103 -104zM163 86c-9 0 -22 -1 -35 -7c-3 -13 -4 -22 -4 -43
c0 -70 30 -108 59 -108c33 0 44 32 44 72c0 50 -26 86 -64 86z" />
    <glyph glyph-name="seven.inferior" unicode="&#x2087;" horiz-adv-x="348" 
d="M307 253l5 -10c-58 -113 -118 -227 -174 -341l-65 -6l-7 10c63 93 123 186 175 278h-115c-42 0 -47 -3 -63 -37h-27c8 55 12 82 16 106h255z" />
    <glyph glyph-name="eight.inferior" unicode="&#x2088;" horiz-adv-x="348" 
d="M176 259c71 0 117 -36 117 -84c0 -14 -5 -31 -17 -43c-9 -8 -21 -17 -46 -31c37 -16 81 -44 81 -97c0 -72 -77 -109 -144 -109c-71 0 -134 34 -134 97c0 23 11 39 27 52c14 12 33 22 46 29c-32 19 -62 44 -62 85c0 55 52 101 132 101zM167 228c-28 0 -42 -21 -42 -41
c0 -30 31 -51 77 -71c8 7 20 28 21 49c0 45 -34 63 -56 63zM176 -73c33 0 53 26 52 49c-1 38 -35 57 -92 82c-12 -10 -27 -32 -27 -62c0 -43 33 -69 67 -69z" />
    <glyph glyph-name="nine.inferior" unicode="&#x2089;" horiz-adv-x="348" 
d="M176 260c92 0 137 -68 137 -148c0 -95 -56 -167 -146 -200c-30 -11 -83 -20 -115 -21l-4 28c89 18 152 72 166 131l-29 -14c-13 -7 -23 -10 -33 -10c-76 0 -117 49 -118 108c0 60 51 126 142 126zM163 228c-26 0 -41 -31 -41 -73c0 -48 31 -82 66 -82c11 0 22 4 30 7
c2 18 3 28 3 39c0 53 -16 109 -58 109z" />
    <glyph glyph-name="period.inferior" unicode="&#xf6e7;" horiz-adv-x="187" 
d="M92 -129c-31 0 -63 25 -63 64s29 66 64 66c39 0 65 -30 65 -66c0 -37 -26 -64 -66 -64z" />
    <glyph glyph-name="comma.inferior" unicode="&#xf6e1;" horiz-adv-x="187" 
d="M75 22c38 0 92 -33 92 -104c0 -73 -70 -116 -133 -132l-13 31c44 19 67 43 67 76c0 27 -21 48 -54 55c-5 1 -12 12 -12 32c0 24 24 42 53 42z" />
    <glyph glyph-name="dollar.inferior" unicode="&#xf6e3;" horiz-adv-x="348" 
d="M190 123l16 -5c69 -18 113 -49 113 -108c-1 -66 -57 -104 -129 -112v-57h-31v55c-52 2 -98 21 -112 30c-4 14 -13 48 -18 96l26 7c11 -39 51 -92 104 -99v108l-16 5c-68 20 -107 52 -107 106c0 57 45 101 123 109v50h31v-49c25 0 56 -5 89 -21c6 -21 11 -47 16 -85
l-28 -5c-13 33 -34 72 -77 78v-103zM159 132v94c-36 -3 -55 -20 -55 -46c0 -27 24 -39 55 -48zM190 30v-100c32 3 54 17 54 46c0 24 -8 38 -54 54z" />
    <glyph glyph-name="cent.inferior" unicode="&#xf6df;" horiz-adv-x="348" 
d="M300 21l15 -24c-25 -35 -62 -57 -96 -63v-60h-31v57c-105 5 -154 72 -154 140c0 50 23 92 63 121c26 19 57 32 91 37v48h31v-46h9c23 0 49 -6 64 -16c10 -5 12 -14 12 -21c0 -20 -20 -33 -27 -33c-4 0 -7 2 -12 7c-16 14 -29 25 -46 28v-208c30 0 59 13 81 33zM188 -8
v205c-26 -1 -69 -28 -69 -102c0 -66 38 -96 69 -103z" />
    <glyph glyph-name="hyphen.inferior" unicode="&#xf6e5;" horiz-adv-x="268" 
d="M236 36h-204v61h204v-61z" />
    <glyph glyph-name="parenleft.inferior" unicode="&#x208d;" horiz-adv-x="237" 
d="M208 -195l-18 -21c-104 58 -154 164 -154 275v1c0 109 50 215 154 274l18 -21c-39 -38 -89 -136 -89 -254c0 -115 50 -215 89 -254z" />
    <glyph glyph-name="parenright.inferior" unicode="&#x208e;" horiz-adv-x="237" 
d="M201 58c0 -110 -49 -216 -153 -274l-19 21c40 38 90 139 90 254c0 118 -51 215 -90 254l19 21c104 -59 153 -165 153 -276z" />
    <glyph glyph-name="zero.numerator" unicode="&#xf661;" horiz-adv-x="348" 
d="M175 635c108 0 148 -96 148 -182c0 -88 -40 -182 -149 -182c-110 0 -149 93 -149 182c0 86 39 182 150 182zM173 601c-40 0 -48 -97 -48 -148c0 -49 8 -148 49 -148c40 0 49 99 49 148c0 51 -9 148 -50 148z" />
    <glyph glyph-name="one.numerator" unicode="&#xf662;" horiz-adv-x="348" 
d="M289 278h-219v29c50 4 61 13 61 65v154c0 38 -2 46 -35 49l-25 2v29c46 4 102 14 158 29v-263c0 -52 10 -61 60 -65v-29z" />
    <glyph glyph-name="two.numerator" unicode="&#xf663;" horiz-adv-x="348" 
d="M295 386l25 -7c-11 -34 -19 -67 -27 -101h-258v26c65 49 159 130 159 199c0 43 -22 66 -58 66c-34 0 -62 -25 -81 -49l-21 19l35 49c23 30 65 47 102 47c70 0 123 -41 123 -110c0 -49 -34 -82 -109 -142l-43 -34v-2h90c35 0 43 5 63 39z" />
    <glyph glyph-name="three.numerator" unicode="&#xf664;" horiz-adv-x="348" 
d="M208 486v-2c64 -9 97 -38 97 -82c0 -90 -130 -132 -182 -132c-31 0 -63 13 -74 22c-8 8 -12 20 -7 33c6 15 17 25 26 31c5 3 14 3 22 -3c22 -19 51 -42 75 -42c21 0 44 18 44 65c0 51 -31 70 -66 70c-16 0 -29 -3 -40 -6l-7 29c55 18 86 42 86 69c0 23 -19 38 -44 38
c-30 0 -54 -20 -70 -38l-18 18l34 44c18 18 51 35 90 35h1c68 0 105 -39 105 -79c0 -15 -9 -31 -20 -40c-9 -7 -28 -19 -52 -30z" />
    <glyph glyph-name="four.numerator" unicode="&#xf665;" horiz-adv-x="348" 
d="M322 375h-55v-19c0 -34 9 -47 50 -51v-27h-201v27c53 4 60 16 60 51v19h-155v28c64 86 123 162 185 233h61v-216h55v-45zM176 420v130h-2c-30 -40 -57 -79 -92 -130h94z" />
    <glyph glyph-name="five.numerator" unicode="&#xf666;" horiz-adv-x="348" 
d="M119 559l-14 -73c23 8 58 17 78 17c82 0 122 -45 122 -96c0 -36 -19 -69 -60 -96c-36 -23 -83 -40 -127 -41c-22 0 -52 11 -63 20s-14 19 -10 32c4 11 13 24 22 30s18 6 27 -2c13 -11 42 -39 71 -38c30 0 45 26 45 59c0 50 -37 77 -87 77c-23 0 -45 -6 -63 -11l27 192
h203l-15 -70h-156z" />
    <glyph glyph-name="six.numerator" unicode="&#xf667;" horiz-adv-x="348" 
d="M132 485l30 13c14 6 26 10 39 10c72 0 117 -44 117 -108c0 -72 -60 -129 -145 -129c-82 0 -143 52 -143 141c0 120 91 185 160 207c38 11 68 15 104 19l6 -30c-20 -5 -42 -11 -65 -21c-32 -12 -85 -41 -103 -102zM163 462c-9 0 -22 -1 -35 -7c-3 -13 -4 -22 -4 -43
c0 -70 30 -108 59 -108c33 0 44 32 44 72c0 50 -26 86 -64 86z" />
    <glyph glyph-name="seven.numerator" unicode="&#xf668;" horiz-adv-x="348" 
d="M307 629l5 -10c-58 -113 -118 -227 -174 -341l-65 -6l-7 10c63 93 123 186 175 278h-115c-42 0 -47 -3 -63 -37h-27c8 55 12 82 16 106h255z" />
    <glyph glyph-name="eight.numerator" unicode="&#xf669;" horiz-adv-x="348" 
d="M177 636c70 0 117 -37 117 -84c0 -14 -5 -31 -17 -44c-10 -8 -22 -17 -46 -31c37 -16 80 -44 80 -97c0 -73 -77 -109 -144 -109c-71 0 -135 34 -135 97c0 23 12 39 28 53c13 11 33 21 47 28c-33 19 -63 44 -63 86c0 55 52 101 133 101zM167 604c-28 0 -42 -21 -42 -41
c0 -30 31 -51 78 -71c8 7 20 28 20 49c0 46 -34 63 -56 63zM176 303c33 0 52 26 52 49c-1 38 -35 57 -92 82c-12 -10 -27 -32 -27 -62c0 -43 33 -69 67 -69z" />
    <glyph glyph-name="nine.numerator" unicode="&#xf66a;" horiz-adv-x="348" 
d="M176 635c92 0 137 -67 137 -147c0 -95 -56 -166 -146 -200c-30 -11 -83 -19 -115 -20l-4 28c89 17 152 71 166 130l-29 -14c-13 -6 -23 -10 -33 -10c-76 0 -117 50 -118 107c0 60 51 126 142 126zM163 603c-26 0 -41 -30 -41 -72c0 -48 31 -82 66 -82c11 0 22 4 30 7
c2 17 3 28 3 38c0 54 -16 109 -58 109z" />
    <glyph glyph-name="period.numerator" unicode="&#xf66c;" horiz-adv-x="187" 
d="M92 247c-31 0 -63 25 -63 64s29 66 64 66c39 0 65 -30 65 -66c0 -37 -26 -64 -66 -64z" />
    <glyph glyph-name="comma.numerator" unicode="&#xf66b;" horiz-adv-x="187" 
d="M75 398c38 0 92 -33 92 -104c0 -73 -70 -116 -133 -132l-13 31c44 19 67 43 67 76c0 27 -21 48 -54 55c-5 1 -12 12 -12 32c0 24 24 42 53 42z" />
    <glyph glyph-name="dollar.numerator" unicode="&#xf62f;" horiz-adv-x="348" 
d="M190 499l16 -5c69 -18 113 -49 113 -108c-1 -66 -57 -104 -129 -112v-57h-31v55c-52 2 -98 21 -112 30c-4 14 -13 48 -18 96l26 7c11 -39 51 -92 104 -99v108l-16 5c-68 20 -107 52 -107 106c0 57 45 101 123 109v50h31v-49c25 0 56 -5 89 -21c6 -21 11 -47 16 -85
l-28 -5c-13 33 -34 72 -77 78v-103zM159 508v94c-36 -2 -55 -20 -55 -46c0 -27 24 -39 55 -48zM190 406v-100c32 3 54 17 54 46c0 24 -8 38 -54 54z" />
    <glyph glyph-name="cent.numerator" unicode="&#xf62e;" horiz-adv-x="348" 
d="M300 396l15 -23c-25 -35 -62 -57 -96 -63v-60h-31v57c-105 5 -154 72 -154 140c0 50 23 92 63 121c26 19 57 32 91 37v48h31v-47c4 1 7 1 9 1c23 0 49 -6 64 -16c10 -6 12 -14 12 -21c0 -20 -20 -33 -27 -33c-4 0 -7 2 -12 7c-16 13 -29 24 -46 28v-208c30 0 59 12 81 32
zM188 368v205c-26 -1 -69 -28 -69 -102c0 -66 38 -96 69 -103z" />
    <glyph glyph-name="hyphen.numerator" unicode="&#xf630;" horiz-adv-x="268" 
d="M236 412h-204v61h204v-61z" />
    <glyph glyph-name="parenleft.numerator" unicode="&#xf631;" horiz-adv-x="237" 
d="M208 181l-18 -21c-104 58 -154 164 -154 275v1c0 109 50 215 154 274l18 -21c-39 -38 -89 -136 -89 -254c0 -115 50 -215 89 -254z" />
    <glyph glyph-name="parenright.numerator" unicode="&#xf632;" horiz-adv-x="237" 
d="M201 434c0 -110 -49 -216 -153 -274l-19 21c40 38 90 139 90 254c0 118 -51 215 -90 254l19 21c104 -59 153 -165 153 -276z" />
    <glyph glyph-name="zero.denominator" unicode="&#xf655;" horiz-adv-x="348" 
d="M175 357c108 0 148 -96 148 -182c0 -89 -40 -183 -149 -183c-110 0 -149 93 -149 183c0 86 39 182 150 182zM173 323c-40 0 -48 -98 -48 -148c0 -49 8 -149 49 -149c40 0 49 100 49 149c0 50 -9 148 -50 148z" />
    <glyph glyph-name="one.denominator" unicode="&#xf656;" horiz-adv-x="348" 
d="M289 0h-219v29c50 5 61 14 61 65v154c0 38 -2 46 -35 49l-25 2v29c46 4 102 14 158 30v-264c0 -51 10 -60 60 -65v-29z" />
    <glyph glyph-name="two.denominator" unicode="&#xf657;" horiz-adv-x="348" 
d="M295 108l25 -7c-11 -34 -19 -67 -27 -101h-258v27c65 48 159 130 159 199c0 42 -22 66 -58 66c-34 0 -62 -25 -81 -50l-21 20l35 49c23 29 65 47 102 47c70 0 123 -41 123 -110c0 -49 -34 -83 -109 -143l-43 -34v-2h90c35 0 43 5 63 39z" />
    <glyph glyph-name="three.denominator" unicode="&#xf658;" horiz-adv-x="348" 
d="M209 208l-1 -2c64 -9 97 -38 97 -82c0 -89 -130 -131 -182 -131c-31 0 -63 12 -74 22c-8 8 -12 19 -7 32c6 16 17 26 26 31c5 3 14 4 22 -3c22 -18 51 -41 75 -41c21 0 44 17 44 65c0 50 -31 69 -67 69c-15 0 -29 -3 -39 -6l-7 29c55 18 86 42 86 69c0 24 -19 39 -44 39
c-30 0 -54 -20 -70 -39l-18 19l34 44c18 18 51 35 90 35h1c68 0 105 -39 105 -79c0 -16 -9 -32 -19 -41c-10 -7 -29 -19 -52 -30z" />
    <glyph glyph-name="four.denominator" unicode="&#xf659;" horiz-adv-x="348" 
d="M322 97h-55v-19c0 -34 9 -47 50 -51v-27h-201v27c53 4 60 16 60 51v19h-155v28c64 86 123 162 185 233h61v-216h55v-45zM176 142v129h-2c-30 -40 -57 -78 -92 -129h94z" />
    <glyph glyph-name="five.denominator" unicode="&#xf65a;" horiz-adv-x="348" 
d="M119 281l-14 -73c23 8 58 17 78 17c82 0 122 -45 122 -96c0 -36 -19 -69 -60 -96c-36 -23 -83 -40 -127 -41c-22 0 -52 11 -63 20s-14 19 -10 32c4 11 13 24 22 30s18 6 27 -2c13 -11 42 -39 71 -38c30 0 45 26 45 59c0 50 -37 77 -87 77c-23 0 -45 -6 -63 -11l27 192
h203l-15 -70h-156z" />
    <glyph glyph-name="six.denominator" unicode="&#xf65b;" horiz-adv-x="348" 
d="M132 206l30 14c14 6 26 10 39 10c72 0 117 -44 117 -109c0 -71 -60 -129 -145 -129c-82 0 -143 52 -143 141c0 120 91 187 160 208c38 12 68 16 104 20l6 -31c-20 -4 -42 -10 -65 -20c-32 -13 -85 -43 -103 -104zM163 184c-9 0 -22 -1 -35 -7c-3 -14 -4 -22 -4 -43
c0 -71 30 -109 59 -109c33 0 44 33 44 73c0 50 -26 86 -64 86z" />
    <glyph glyph-name="seven.denominator" unicode="&#xf65c;" horiz-adv-x="348" 
d="M307 351l5 -10c-58 -113 -118 -227 -174 -341l-65 -7l-7 11c63 93 123 186 175 278h-115c-42 0 -47 -3 -63 -37h-27c8 55 12 82 16 106h255z" />
    <glyph glyph-name="eight.denominator" unicode="&#xf65d;" horiz-adv-x="348" 
d="M177 358c70 0 117 -37 117 -85c0 -14 -5 -31 -18 -43c-10 -8 -22 -17 -46 -32c37 -16 81 -44 81 -96c0 -73 -77 -109 -144 -109c-71 0 -135 34 -135 97c0 23 12 39 28 52c13 11 33 22 47 28c-33 19 -63 45 -63 86c0 55 52 102 133 102zM167 326c-28 0 -42 -21 -42 -41
c0 -30 31 -51 78 -71c8 7 20 28 20 49c0 45 -33 63 -56 63zM176 25c32 0 52 26 52 49c-2 37 -35 57 -92 82c-12 -10 -27 -32 -27 -62c0 -43 33 -69 67 -69z" />
    <glyph glyph-name="nine.denominator" unicode="&#xf65e;" horiz-adv-x="348" 
d="M176 358c92 0 137 -68 137 -148c0 -95 -56 -167 -146 -200c-30 -11 -83 -20 -115 -21l-4 28c89 18 152 72 166 131l-29 -14c-13 -7 -23 -10 -33 -10c-76 0 -117 49 -118 108c0 60 51 126 142 126zM163 326c-26 0 -41 -31 -41 -73c0 -48 31 -82 66 -82c11 0 22 4 30 7
c2 18 3 28 3 39c0 53 -16 109 -58 109z" />
    <glyph glyph-name="period.denominator" unicode="&#xf660;" horiz-adv-x="187" 
d="M92 -31c-31 0 -63 25 -63 64s29 66 64 66c39 0 65 -30 65 -66c0 -37 -26 -64 -66 -64z" />
    <glyph glyph-name="comma.denominator" unicode="&#xf65f;" horiz-adv-x="187" 
d="M75 120c38 0 92 -33 92 -104c0 -73 -70 -116 -133 -132l-13 31c44 19 67 43 67 76c0 27 -21 48 -54 55c-5 1 -12 12 -12 32c0 24 24 42 53 42z" />
    <glyph glyph-name="dollar.denominator" unicode="&#xf62a;" horiz-adv-x="348" 
d="M190 220l16 -4c69 -18 113 -49 113 -109c-1 -66 -57 -103 -129 -112v-57h-31v55c-52 2 -98 21 -112 30c-4 14 -13 49 -18 96l26 8c11 -39 51 -93 104 -100v109l-16 4c-68 20 -107 53 -107 107c0 57 45 101 123 109v50h31v-49c24 0 55 -6 88 -21c6 -22 12 -47 16 -85
l-28 -5c-13 33 -34 72 -76 78v-104zM159 230v94c-36 -3 -55 -20 -55 -46c0 -27 24 -39 55 -48zM190 127v-99c32 3 54 17 54 45c0 24 -8 38 -54 54z" />
    <glyph glyph-name="cent.denominator" unicode="&#xf629;" horiz-adv-x="348" 
d="M300 118l15 -23c-25 -35 -62 -57 -96 -63v-60h-31v57c-105 5 -154 72 -154 140c0 50 23 92 63 121c26 19 57 32 91 37v48h31v-46h9c23 0 49 -6 64 -16c10 -5 12 -14 12 -21c0 -20 -20 -33 -27 -33c-4 0 -7 2 -12 7c-16 14 -29 24 -46 28v-208c30 0 59 13 81 32zM188 90
v205c-26 -1 -69 -28 -69 -102c0 -66 38 -96 69 -103z" />
    <glyph glyph-name="hyphen.denominator" unicode="&#xf62b;" horiz-adv-x="268" 
d="M236 134h-204v61h204v-61z" />
    <glyph glyph-name="parenleft.denominator" unicode="&#xf62c;" horiz-adv-x="237" 
d="M208 -97l-18 -21c-104 58 -154 164 -154 275v1c0 109 50 215 154 274l18 -21c-39 -38 -89 -136 -89 -254c0 -115 50 -215 89 -254z" />
    <glyph glyph-name="parenright.denominator" unicode="&#xf62d;" horiz-adv-x="237" 
d="M201 156c0 -110 -49 -216 -153 -274l-19 21c40 38 90 139 90 254c0 118 -51 215 -90 254l19 21c104 -59 153 -165 153 -276z" />
    <glyph glyph-name="uni25B7" unicode="&#x25b7;" horiz-adv-x="606" 
d="M130 404l1 -295l311 150zM75 25c0 0 2 465 1 465h1l486 -230v-2l-486 -235z" />
    <glyph glyph-name="uni25C0" unicode="&#x25c0;" horiz-adv-x="606" 
d="M531 487c0 0 -2 -465 0 -465h-2l-486 229v2l486 236z" />
    <glyph glyph-name="uni25C1" unicode="&#x25c1;" horiz-adv-x="606" 
d="M476 109v295l-312 -150zM531 488c0 0 -2 -465 0 -465h-2l-485 229v2l485 236z" />
    <glyph glyph-name="uni25C9" unicode="&#x25c9;" horiz-adv-x="454" 
d="M229 451c102 0 182 -84 182 -188c0 -103 -80 -187 -183 -187c-105 0 -185 83 -185 187c0 105 80 188 186 188zM227 400c-73 0 -125 -63 -125 -137s52 -136 126 -136c73 0 124 63 124 136c0 74 -51 137 -125 137zM227 338c-40 0 -68 -35 -68 -75s28 -74 69 -74
c39 0 67 35 67 74c0 40 -28 75 -68 75z" />
    <glyph glyph-name="uni25C6" unicode="&#x25c6;" horiz-adv-x="469" 
d="M35 255l197 199l202 -205l-197 -199z" />
    <glyph glyph-name="uni25A0" unicode="&#x25a0;" horiz-adv-x="407" 
d="M61 398h284v-291h-284v291z" />
    <glyph glyph-name="Rho_uni0313" unicode="&#xe05c;" horiz-adv-x="599" 
d="M42 650h276c79 0 135 -11 175 -39c47 -32 74 -82 74 -148c0 -134 -99 -194 -205 -207c-15 -2 -30 -2 -41 -2l-68 17v-138c0 -85 9 -92 94 -99v-34h-310v34c75 7 84 14 84 99v383c0 85 -9 91 -79 99v35zM253 570v-260c12 -5 33 -10 54 -10c36 0 116 26 116 161
c0 113 -63 150 -124 150c-19 0 -31 -5 -37 -10c-7 -6 -9 -16 -9 -31zM-125 519l-13 28c25 11 53 32 53 56c0 25 -21 39 -55 38c-7 0 -16 12 -16 31c0 21 21 41 53 41c40 0 90 -31 90 -88c0 -72 -74 -99 -112 -106z" />
    <glyph glyph-name="uni1FBC.alt" unicode="&#xe0f8;" horiz-adv-x="706" 
d="M687 0h-286v35c59 9 64 21 48 65c-10 30 -25 73 -40 113h-192c-11 -31 -24 -67 -36 -107c-15 -48 -12 -62 61 -71v-35h-224v35c66 8 79 19 112 103l205 514l51 13c64 -175 126 -349 191 -521c34 -88 46 -101 110 -109v-35zM390 266l-74 217h-3c-28 -73 -53 -146 -79 -217
h156zM453 -137l10 -26c-18 -26 -55 -42 -91 -42c-49 0 -85 31 -85 88c0 27 6 44 15 66l69 29l14 -6c-5 -17 -10 -35 -10 -58c0 -33 16 -56 45 -56c12 0 23 2 33 5z" />
    <glyph glyph-name="uni1F88.alt" unicode="&#xe0e0;" horiz-adv-x="706" 
d="M687 0h-286v35c59 9 64 21 48 65c-10 30 -25 73 -41 113h-191c-11 -31 -24 -67 -36 -107c-15 -48 -12 -62 61 -71v-35h-224v35c67 8 79 19 112 103l204 514l52 13c64 -175 126 -349 191 -521c34 -88 46 -101 110 -109v-35zM390 266l-74 216h-3c-28 -72 -53 -145 -79 -216
h156zM453 -136l11 -27c-19 -26 -56 -42 -91 -42c-49 0 -86 31 -86 88c0 27 6 44 15 67l69 28l14 -6c-5 -17 -10 -35 -10 -57c0 -33 17 -57 45 -57c13 0 23 2 33 6zM99 518l-13 29c25 11 53 32 53 56c0 25 -21 39 -55 38c-7 0 -16 12 -16 31c0 21 21 41 53 41
c40 0 90 -31 90 -88c0 -72 -74 -99 -112 -107z" />
    <glyph glyph-name="uni1F89.alt" unicode="&#xe0e1;" horiz-adv-x="706" 
d="M687 0h-286v35c59 9 64 21 48 65c-10 30 -25 73 -41 113h-191c-11 -31 -24 -67 -36 -107c-14 -48 -12 -62 61 -71v-35h-223v35c66 8 78 19 112 103l203 513l52 13c64 -174 126 -348 191 -520c34 -88 46 -101 110 -109v-35zM390 266l-74 216h-3c-28 -73 -53 -145 -79 -216
h156zM453 -136l11 -27c-19 -26 -56 -42 -91 -42c-49 0 -86 31 -86 88c0 27 6 44 15 67l69 28l14 -6c-5 -17 -10 -35 -10 -57c0 -33 17 -57 45 -57c13 0 23 2 33 6zM191 552l-12 -33c-40 7 -112 35 -112 106c0 56 50 90 91 90c31 0 52 -20 52 -42c0 -18 -10 -30 -16 -30
c-34 1 -55 -14 -55 -39c0 -24 28 -41 52 -52z" />
    <glyph glyph-name="uni1F8A.alt" unicode="&#xe0e2;" horiz-adv-x="706" 
d="M687 0h-286v35c59 9 64 21 48 65c-10 30 -25 73 -41 113h-191c-11 -31 -24 -67 -36 -107c-15 -48 -12 -62 61 -71v-35h-224l1 35c66 8 78 19 111 103l204 514l52 13c64 -175 126 -349 191 -521c34 -88 46 -101 110 -109v-35zM390 266l-74 217h-3
c-28 -73 -53 -146 -79 -217h156zM453 -136l11 -27c-19 -26 -56 -42 -91 -42c-49 0 -86 31 -86 88c0 27 6 44 15 67l69 28l14 -6c-5 -17 -10 -35 -10 -57c0 -33 17 -57 45 -57c13 0 23 2 33 6zM201 525l-30 -5c-26 60 -50 118 -77 175l2 11c11 4 82 16 94 13
c4 -64 8 -128 11 -194zM-31 520l-11 28c23 12 50 34 50 58c0 26 -20 41 -53 40c-6 0 -15 12 -15 30c0 22 21 42 51 42c38 0 82 -34 82 -90c0 -72 -69 -100 -104 -108z" />
    <glyph glyph-name="uni1F8B.alt" unicode="&#xe0e3;" horiz-adv-x="706" 
d="M687 0h-286v35c59 9 64 21 48 65c-10 30 -25 73 -41 113h-191c-11 -31 -24 -67 -36 -107c-15 -48 -12 -62 61 -71v-35h-224v35c67 8 79 19 112 103l204 514l52 13c64 -175 126 -349 191 -521c34 -88 46 -101 110 -109v-35zM390 266l-74 217h-3c-28 -73 -53 -146 -79 -217
h156zM453 -136l11 -27c-19 -26 -56 -42 -91 -42c-49 0 -86 31 -86 88c0 27 6 44 15 67l69 28l14 -6c-5 -17 -10 -35 -10 -57c0 -33 17 -57 45 -57c13 0 23 2 33 6zM206 524l-30 -5c-26 59 -52 117 -80 174l2 10c11 5 84 17 95 14c5 -64 9 -128 13 -193zM51 550l-12 -31
c-34 7 -104 34 -104 107c0 56 47 91 85 91c28 0 49 -21 49 -41c0 -19 -9 -31 -16 -31c-33 1 -53 -15 -53 -41c0 -24 27 -42 51 -54z" />
    <glyph glyph-name="uni1F8C.alt" unicode="&#xe0e4;" horiz-adv-x="706" 
d="M687 0h-286v35c59 9 64 21 48 65c-10 30 -25 73 -41 113h-191c-11 -31 -24 -67 -36 -107c-15 -48 -12 -62 61 -71v-35h-224l1 35c66 8 78 19 111 103l204 514l52 13c64 -175 126 -349 191 -521c34 -88 46 -101 110 -109v-35zM390 266l-74 217h-3
c-28 -73 -53 -146 -79 -217h156zM453 -137l11 -26c-19 -26 -56 -42 -92 -42c-49 0 -85 31 -85 88c0 27 6 44 15 66l69 29l14 -6c-5 -17 -10 -35 -10 -58c0 -33 16 -56 45 -56c13 0 23 2 33 5zM257 703l-96 -185l-30 5c10 60 18 120 24 180c7 5 85 15 97 13zM-5 518l-11 27
c24 12 51 34 51 58c0 26 -20 41 -53 41c-6 0 -16 12 -16 31c0 20 20 41 49 41c37 0 85 -34 85 -91c0 -71 -70 -100 -105 -107z" />
    <glyph glyph-name="uni2767" unicode="&#x2767;" horiz-adv-x="1058" 
d="M222 478h2c9 45 43 71 77 71c39 0 75 -26 75 -74c0 -32 -18 -65 -38 -92c-7 -8 -16 -18 -32 -35c50 -42 127 -74 171 -76c-13 25 -17 47 -17 67c0 99 93 149 171 149c75 0 120 -35 140 -68c22 -37 28 -83 28 -148c0 -69 10 -111 19 -129c11 -22 30 -36 53 -36
c28 0 54 20 54 49c0 37 -13 53 -31 66c-10 6 -10 9 -4 16c7 9 21 18 39 18c34 0 69 -30 69 -79c0 -77 -81 -107 -140 -107c-19 0 -56 -17 -111 -47c-58 -30 -134 -62 -200 -62c-120 0 -186 103 -186 159c0 63 31 92 82 113v2c-41 12 -104 36 -160 83
c-11 -12 -32 -33 -50 -53c19 -6 38 -28 38 -53c0 -32 -18 -54 -38 -82c-29 -41 -40 -66 -40 -104c0 -24 8 -50 27 -65c11 -7 9 -17 -2 -16c-55 6 -120 38 -120 129c0 22 7 46 11 59c2 8 0 13 -10 13c-7 0 -23 -7 -28 -13c-4 -3 -10 -3 -10 6c0 76 77 129 125 131
c29 26 48 44 71 70c-50 46 -88 113 -88 196c0 109 74 166 123 166c30 0 41 -18 44 -38c9 -6 13 -13 15 -18c4 -12 -8 -15 -11 -21c-5 11 -15 16 -35 16c-29 0 -88 -31 -88 -118c0 -17 1 -33 5 -45zM325 465c0 27 -10 46 -34 46c-23 0 -50 -19 -50 -86c9 -20 24 -40 40 -56
c33 36 44 70 44 96z" />
    </font>
</defs>
</svg>
